<ttFont>
    <TTGlyph name="" xMin="-727" yMin="1450" xMax="-327" yMax="2117">
      <contour>
        <pt x="-547" y="1693" on="0"/>
        <pt x="-585" y="1674" on="0"/>
        <pt x="-607" y="1641" on="0"/>
        <pt x="-607" y="1623" on="1"/>
        <pt x="-607" y="1605" on="0"/>
        <pt x="-585" y="1572" on="0"/>
        <pt x="-547" y="1554" on="0"/>
        <pt x="-527" y="1554" on="1"/>
        <pt x="-506" y="1554" on="0"/>
        <pt x="-468" y="1572" on="0"/>
        <pt x="-447" y="1605" on="0"/>
        <pt x="-447" y="1623" on="1"/>
        <pt x="-447" y="1641" on="0"/>
        <pt x="-468" y="1674" on="0"/>
        <pt x="-506" y="1693" on="0"/>
        <pt x="-527" y="1693" on="1"/>
      </contour>
      <contour>
        <pt x="-527" y="1796" on="1"/>
        <pt x="-476" y="1796" on="0"/>
        <pt x="-381" y="1751" on="0"/>
        <pt x="-327" y="1668" on="0"/>
        <pt x="-327" y="1623" on="1"/>
        <pt x="-327" y="1578" on="0"/>
        <pt x="-379" y="1496" on="0"/>
        <pt x="-475" y="1450" on="0"/>
        <pt x="-527" y="1450" on="1"/>
        <pt x="-578" y="1450" on="0"/>
        <pt x="-674" y="1496" on="0"/>
        <pt x="-727" y="1578" on="0"/>
        <pt x="-727" y="1623" on="1"/>
        <pt x="-727" y="1668" on="0"/>
        <pt x="-673" y="1751" on="0"/>
        <pt x="-577" y="1796" on="0"/>
      </contour>
      <contour>
        <pt x="-599" y="2117" on="1"/>
        <pt x="-455" y="2117" on="1"/>
        <pt x="-455" y="1814" on="1"/>
        <pt x="-599" y="1814" on="1"/>
      </contour>
    </TTGlyph>
    <TTGlyph name="#1" xMin="-749" yMin="1450" xMax="-347" yMax="2107">
      <contour>
        <pt x="-569" y="1666" on="0"/>
        <pt x="-607" y="1650" on="0"/>
        <pt x="-629" y="1621" on="0"/>
        <pt x="-629" y="1605" on="1"/>
        <pt x="-629" y="1588" on="0"/>
        <pt x="-607" y="1559" on="0"/>
        <pt x="-569" y="1543" on="0"/>
        <pt x="-549" y="1543" on="1"/>
        <pt x="-528" y="1543" on="0"/>
        <pt x="-490" y="1559" on="0"/>
        <pt x="-469" y="1588" on="0"/>
        <pt x="-469" y="1605" on="1"/>
        <pt x="-469" y="1621" on="0"/>
        <pt x="-490" y="1650" on="0"/>
        <pt x="-528" y="1666" on="0"/>
        <pt x="-549" y="1666" on="1"/>
      </contour>
      <contour>
        <pt x="-549" y="1759" on="1"/>
        <pt x="-498" y="1759" on="0"/>
        <pt x="-403" y="1719" on="0"/>
        <pt x="-349" y="1645" on="0"/>
        <pt x="-349" y="1605" on="1"/>
        <pt x="-349" y="1564" on="0"/>
        <pt x="-401" y="1491" on="0"/>
        <pt x="-497" y="1450" on="0"/>
        <pt x="-549" y="1450" on="1"/>
        <pt x="-600" y="1450" on="0"/>
        <pt x="-696" y="1491" on="0"/>
        <pt x="-749" y="1564" on="0"/>
        <pt x="-749" y="1605" on="1"/>
        <pt x="-749" y="1645" on="0"/>
        <pt x="-695" y="1719" on="0"/>
        <pt x="-599" y="1759" on="0"/>
      </contour>
      <contour>
        <pt x="-613" y="1798" on="1"/>
        <pt x="-613" y="1903" on="1"/>
        <pt x="-747" y="1903" on="1"/>
        <pt x="-747" y="2001" on="1"/>
        <pt x="-613" y="2001" on="1"/>
        <pt x="-613" y="2107" on="1"/>
        <pt x="-480" y="2107" on="1"/>
        <pt x="-480" y="2001" on="1"/>
        <pt x="-347" y="2001" on="1"/>
        <pt x="-347" y="1903" on="1"/>
        <pt x="-480" y="1903" on="1"/>
        <pt x="-480" y="1798" on="1"/>
      </contour>
    </TTGlyph>
    <TTGlyph name="#10" xMin="-419" yMin="1450" xMax="420" yMax="1763">
      <contour>
        <pt x="-419" y="1763" on="0"/>
        <pt x="-25" y="1763" on="1"/>
        <pt x="337" y="1763" on="0"/>
        <pt x="420" y="1459" on="1"/>
        <pt x="243" y="1459" on="1"/>
        <pt x="222" y="1687" on="0"/>
        <pt x="-25" y="1687" on="1"/>
        <pt x="-81" y="1687" on="0"/>
        <pt x="-115" y="1644" on="1"/>
        <pt x="-115" y="1643" on="0"/>
        <pt x="-114" y="1641" on="1"/>
        <pt x="-94" y="1619" on="0"/>
        <pt x="-94" y="1584" on="1"/>
        <pt x="-94" y="1549" on="0"/>
        <pt x="-136" y="1485" on="0"/>
        <pt x="-221" y="1450" on="0"/>
        <pt x="-261" y="1450" on="1"/>
        <pt x="-301" y="1450" on="0"/>
        <pt x="-376" y="1485" on="0"/>
        <pt x="-419" y="1549" on="0"/>
        <pt x="-419" y="1584" on="1"/>
      </contour>
      <contour>
        <pt x="-261" y="1528" on="1"/>
        <pt x="-243" y="1528" on="0"/>
        <pt x="-212" y="1543" on="0"/>
        <pt x="-195" y="1570" on="0"/>
        <pt x="-195" y="1584" on="1"/>
        <pt x="-195" y="1598" on="0"/>
        <pt x="-212" y="1625" on="0"/>
        <pt x="-243" y="1640" on="0"/>
        <pt x="-261" y="1640" on="1"/>
        <pt x="-277" y="1640" on="0"/>
        <pt x="-308" y="1625" on="0"/>
        <pt x="-326" y="1598" on="0"/>
        <pt x="-326" y="1584" on="1"/>
        <pt x="-326" y="1570" on="0"/>
        <pt x="-308" y="1543" on="0"/>
        <pt x="-277" y="1528" on="0"/>
      </contour>
    </TTGlyph>
    <TTGlyph name="#11" xMin="32" yMin="-600" xMax="742" yMax="1300">
      <contour>
        <pt x="374" y="-359" on="0"/>
        <pt x="374" y="-369" on="1"/>
        <pt x="374" y="-377" on="0"/>
        <pt x="385" y="-393" on="0"/>
        <pt x="403" y="-402" on="0"/>
        <pt x="413" y="-402" on="1"/>
        <pt x="424" y="-402" on="0"/>
        <pt x="442" y="-393" on="0"/>
        <pt x="451" y="-377" on="0"/>
        <pt x="451" y="-369" on="1"/>
        <pt x="451" y="-359" on="0"/>
        <pt x="442" y="-344" on="0"/>
        <pt x="423" y="-336" on="0"/>
        <pt x="413" y="-336" on="1"/>
        <pt x="404" y="-336" on="0"/>
        <pt x="385" y="-344" on="0"/>
      </contour>
      <contour>
        <pt x="396" y="-476" on="1"/>
        <pt x="372" y="-473" on="0"/>
        <pt x="350" y="-463" on="1"/>
        <pt x="319" y="-448" on="0"/>
        <pt x="286" y="-397" on="0"/>
        <pt x="286" y="-369" on="1"/>
        <pt x="286" y="-340" on="0"/>
        <pt x="321" y="-287" on="0"/>
        <pt x="381" y="-260" on="0"/>
        <pt x="413" y="-260" on="1"/>
        <pt x="445" y="-260" on="0"/>
        <pt x="505" y="-287" on="0"/>
        <pt x="539" y="-340" on="0"/>
        <pt x="539" y="-369" on="1"/>
        <pt x="539" y="-553" on="0"/>
        <pt x="354" y="-600" on="1"/>
        <pt x="299" y="-534" on="1"/>
        <pt x="366" y="-524" on="0"/>
      </contour>
      <contour>
        <pt x="198" y="1040" on="1"/>
        <pt x="198" y="966" on="0"/>
        <pt x="273" y="966" on="1"/>
        <pt x="349" y="966" on="0"/>
        <pt x="349" y="1041" on="1"/>
        <pt x="349" y="1117" on="0"/>
        <pt x="273" y="1117" on="1"/>
        <pt x="198" y="1117" on="0"/>
      </contour>
      <contour>
        <pt x="554" y="920" on="1"/>
        <pt x="554" y="1137" on="0"/>
        <pt x="413" y="1163" on="1"/>
        <pt x="464" y="1117" on="0"/>
        <pt x="464" y="1040" on="1"/>
        <pt x="464" y="850" on="0"/>
        <pt x="272" y="850" on="1"/>
        <pt x="82" y="850" on="0"/>
        <pt x="82" y="1040" on="1"/>
        <pt x="82" y="1300" on="0"/>
        <pt x="387" y="1300" on="1"/>
        <pt x="742" y="1300" on="0"/>
        <pt x="742" y="920" on="1"/>
        <pt x="742" y="180" on="1"/>
        <pt x="742" y="-10" on="0"/>
        <pt x="549" y="-220" on="0"/>
        <pt x="420" y="-220" on="1"/>
        <pt x="191" y="-220" on="0"/>
        <pt x="32" y="-16" on="1"/>
        <pt x="191" y="-116" on="0"/>
        <pt x="330" y="-116" on="1"/>
        <pt x="453" y="-116" on="0"/>
        <pt x="554" y="68" on="0"/>
        <pt x="554" y="180" on="1"/>
      </contour>
    </TTGlyph>
    <TTGlyph name="#12" xMin="32" yMin="-600" xMax="742" yMax="1300">
      <contour>
        <pt x="298" y="-337" on="0"/>
        <pt x="288" y="-353" on="0"/>
        <pt x="288" y="-362" on="1"/>
        <pt x="288" y="-372" on="0"/>
        <pt x="298" y="-387" on="0"/>
        <pt x="315" y="-396" on="0"/>
        <pt x="345" y="-398" on="1"/>
        <pt x="360" y="-378" on="0"/>
        <pt x="360" y="-362" on="1"/>
        <pt x="360" y="-353" on="0"/>
        <pt x="350" y="-337" on="0"/>
        <pt x="333" y="-327" on="0"/>
        <pt x="324" y="-327" on="1"/>
        <pt x="316" y="-327" on="0"/>
      </contour>
      <contour>
        <pt x="422" y="-424" on="1"/>
        <pt x="411" y="-452" on="0"/>
        <pt x="411" y="-479" on="1"/>
        <pt x="411" y="-490" on="0"/>
        <pt x="413" y="-502" on="1"/>
        <pt x="420" y="-520" on="0"/>
        <pt x="457" y="-520" on="1"/>
        <pt x="504" y="-520" on="0"/>
        <pt x="504" y="-412" on="1"/>
        <pt x="504" y="-260" on="1"/>
        <pt x="616" y="-260" on="1"/>
        <pt x="616" y="-416" on="1"/>
        <pt x="616" y="-600" on="0"/>
        <pt x="457" y="-600" on="1"/>
        <pt x="351" y="-600" on="0"/>
        <pt x="325" y="-551" on="1"/>
        <pt x="309" y="-522" on="0"/>
        <pt x="309" y="-497" on="1"/>
        <pt x="309" y="-477" on="0"/>
        <pt x="318" y="-459" on="1"/>
        <pt x="290" y="-459" on="0"/>
        <pt x="264" y="-446" on="1"/>
        <pt x="236" y="-432" on="0"/>
        <pt x="209" y="-385" on="0"/>
        <pt x="209" y="-359" on="1"/>
        <pt x="209" y="-333" on="0"/>
        <pt x="236" y="-285" on="0"/>
        <pt x="292" y="-260" on="0"/>
        <pt x="321" y="-260" on="1"/>
        <pt x="351" y="-260" on="0"/>
        <pt x="406" y="-285" on="0"/>
        <pt x="437" y="-333" on="0"/>
        <pt x="437" y="-359" on="1"/>
        <pt x="437" y="-383" on="0"/>
      </contour>
      <contour>
        <pt x="198" y="1040" on="1"/>
        <pt x="198" y="966" on="0"/>
        <pt x="273" y="966" on="1"/>
        <pt x="349" y="966" on="0"/>
        <pt x="349" y="1041" on="1"/>
        <pt x="349" y="1117" on="0"/>
        <pt x="273" y="1117" on="1"/>
        <pt x="198" y="1117" on="0"/>
      </contour>
      <contour>
        <pt x="554" y="920" on="1"/>
        <pt x="554" y="1137" on="0"/>
        <pt x="413" y="1163" on="1"/>
        <pt x="464" y="1117" on="0"/>
        <pt x="464" y="1040" on="1"/>
        <pt x="464" y="850" on="0"/>
        <pt x="272" y="850" on="1"/>
        <pt x="82" y="850" on="0"/>
        <pt x="82" y="1040" on="1"/>
        <pt x="82" y="1300" on="0"/>
        <pt x="387" y="1300" on="1"/>
        <pt x="742" y="1300" on="0"/>
        <pt x="742" y="920" on="1"/>
        <pt x="742" y="180" on="1"/>
        <pt x="742" y="-10" on="0"/>
        <pt x="549" y="-220" on="0"/>
        <pt x="420" y="-220" on="1"/>
        <pt x="191" y="-220" on="0"/>
        <pt x="32" y="-16" on="1"/>
        <pt x="191" y="-116" on="0"/>
        <pt x="330" y="-116" on="1"/>
        <pt x="453" y="-116" on="0"/>
        <pt x="554" y="68" on="0"/>
        <pt x="554" y="180" on="1"/>
      </contour>
    </TTGlyph>
    <TTGlyph name="#13" xMin="-928" yMin="-611" xMax="-206" yMax="-41">
      <contour>
        <pt x="-572" y="-404" on="1"/>
        <pt x="-572" y="-391" on="0"/>
        <pt x="-600" y="-371" on="0"/>
        <pt x="-616" y="-371" on="1"/>
        <pt x="-635" y="-371" on="0"/>
        <pt x="-650" y="-381" on="1"/>
        <pt x="-664" y="-390" on="0"/>
        <pt x="-664" y="-403" on="1"/>
        <pt x="-664" y="-405" on="1"/>
        <pt x="-664" y="-416" on="0"/>
        <pt x="-635" y="-439" on="0"/>
        <pt x="-616" y="-439" on="1"/>
        <pt x="-600" y="-439" on="0"/>
        <pt x="-572" y="-416" on="0"/>
      </contour>
      <contour>
        <pt x="-443" y="-474" on="1"/>
        <pt x="-444" y="-474" on="1"/>
        <pt x="-457" y="-502" on="0"/>
        <pt x="-474" y="-524" on="0"/>
        <pt x="-503" y="-551" on="0"/>
        <pt x="-540" y="-580" on="0"/>
        <pt x="-599" y="-611" on="1"/>
        <pt x="-715" y="-565" on="1"/>
        <pt x="-668" y="-549" on="0"/>
        <pt x="-605" y="-502" on="0"/>
        <pt x="-595" y="-482" on="1"/>
        <pt x="-630" y="-490" on="0"/>
        <pt x="-649" y="-490" on="1"/>
        <pt x="-650" y="-491" on="0"/>
        <pt x="-651" y="-491" on="1"/>
        <pt x="-671" y="-491" on="0"/>
        <pt x="-701" y="-481" on="1"/>
        <pt x="-749" y="-463" on="0"/>
        <pt x="-771" y="-422" on="0"/>
        <pt x="-771" y="-391" on="1"/>
        <pt x="-759" y="-354" on="0"/>
        <pt x="-731" y="-330" on="0"/>
        <pt x="-687" y="-309" on="0"/>
        <pt x="-649" y="-301" on="0"/>
        <pt x="-599" y="-301" on="1"/>
        <pt x="-594" y="-301" on="1"/>
        <pt x="-581" y="-301" on="0"/>
        <pt x="-517" y="-319" on="0"/>
        <pt x="-464" y="-352" on="0"/>
        <pt x="-448" y="-385" on="1"/>
        <pt x="-438" y="-404" on="0"/>
        <pt x="-438" y="-432" on="1"/>
        <pt x="-438" y="-451" on="0"/>
      </contour>
      <contour>
        <pt x="-827" y="-173" on="1"/>
        <pt x="-827" y="-178" on="1"/>
        <pt x="-827" y="-192" on="0"/>
        <pt x="-818" y="-198" on="1"/>
        <pt x="-807" y="-207" on="0"/>
        <pt x="-788" y="-208" on="1"/>
        <pt x="-770" y="-208" on="0"/>
        <pt x="-758" y="-199" on="1"/>
        <pt x="-748" y="-193" on="0"/>
        <pt x="-748" y="-180" on="1"/>
        <pt x="-748" y="-177" on="0"/>
        <pt x="-749" y="-174" on="1"/>
        <pt x="-751" y="-156" on="0"/>
        <pt x="-777" y="-136" on="1"/>
        <pt x="-802" y="-139" on="0"/>
        <pt x="-824" y="-155" on="0"/>
      </contour>
      <contour>
        <pt x="-675" y="-140" on="1"/>
        <pt x="-659" y="-169" on="0"/>
        <pt x="-659" y="-195" on="1"/>
        <pt x="-659" y="-207" on="0"/>
        <pt x="-662" y="-217" on="1"/>
        <pt x="-673" y="-252" on="0"/>
        <pt x="-735" y="-293" on="0"/>
        <pt x="-785" y="-293" on="1"/>
        <pt x="-845" y="-293" on="0"/>
        <pt x="-888" y="-259" on="1"/>
        <pt x="-928" y="-226" on="0"/>
        <pt x="-928" y="-165" on="1"/>
        <pt x="-928" y="-103" on="0"/>
        <pt x="-822" y="-41" on="0"/>
        <pt x="-740" y="-41" on="1"/>
        <pt x="-658" y="-41" on="0"/>
        <pt x="-539" y="-99" on="0"/>
        <pt x="-474" y="-167" on="0"/>
        <pt x="-427" y="-169" on="1"/>
        <pt x="-425" y="-169" on="1"/>
        <pt x="-362" y="-169" on="0"/>
        <pt x="-345" y="-49" on="1"/>
        <pt x="-206" y="-49" on="1"/>
        <pt x="-244" y="-270" on="0"/>
        <pt x="-419" y="-270" on="1"/>
        <pt x="-427" y="-270" on="1"/>
        <pt x="-517" y="-267" on="0"/>
        <pt x="-624" y="-146" on="0"/>
      </contour>
    </TTGlyph>
    <TTGlyph name="#14" xMin="-928" yMin="-611" xMax="-206" yMax="-41">
      <contour>
        <pt x="-712" y="-388" on="0"/>
        <pt x="-723" y="-402" on="0"/>
        <pt x="-723" y="-410" on="1"/>
        <pt x="-723" y="-418" on="0"/>
        <pt x="-712" y="-432" on="0"/>
        <pt x="-694" y="-440" on="0"/>
        <pt x="-661" y="-442" on="1"/>
        <pt x="-644" y="-424" on="0"/>
        <pt x="-644" y="-410" on="1"/>
        <pt x="-644" y="-402" on="0"/>
        <pt x="-655" y="-388" on="0"/>
        <pt x="-673" y="-379" on="0"/>
        <pt x="-683" y="-379" on="1"/>
        <pt x="-693" y="-379" on="0"/>
      </contour>
      <contour>
        <pt x="-589" y="-460" on="1"/>
        <pt x="-599" y="-482" on="0"/>
        <pt x="-599" y="-503" on="1"/>
        <pt x="-599" y="-513" on="0"/>
        <pt x="-597" y="-522" on="1"/>
        <pt x="-590" y="-537" on="0"/>
        <pt x="-554" y="-537" on="1"/>
        <pt x="-519" y="-537" on="0"/>
        <pt x="-519" y="-449" on="1"/>
        <pt x="-519" y="-327" on="1"/>
        <pt x="-409" y="-327" on="1"/>
        <pt x="-409" y="-453" on="1"/>
        <pt x="-409" y="-611" on="0"/>
        <pt x="-554" y="-611" on="1"/>
        <pt x="-657" y="-611" on="0"/>
        <pt x="-686" y="-562" on="1"/>
        <pt x="-698" y="-541" on="0"/>
        <pt x="-698" y="-521" on="1"/>
        <pt x="-698" y="-504" on="0"/>
        <pt x="-689" y="-488" on="1"/>
        <pt x="-716" y="-488" on="0"/>
        <pt x="-741" y="-477" on="1"/>
        <pt x="-768" y="-466" on="0"/>
        <pt x="-799" y="-428" on="0"/>
        <pt x="-799" y="-407" on="1"/>
        <pt x="-799" y="-386" on="0"/>
        <pt x="-768" y="-347" on="0"/>
        <pt x="-714" y="-327" on="0"/>
        <pt x="-686" y="-327" on="1"/>
        <pt x="-657" y="-327" on="0"/>
        <pt x="-604" y="-347" on="0"/>
        <pt x="-574" y="-386" on="0"/>
        <pt x="-574" y="-407" on="1"/>
        <pt x="-574" y="-427" on="0"/>
      </contour>
      <contour>
        <pt x="-827" y="-173" on="1"/>
        <pt x="-827" y="-178" on="1"/>
        <pt x="-827" y="-192" on="0"/>
        <pt x="-818" y="-198" on="1"/>
        <pt x="-807" y="-207" on="0"/>
        <pt x="-788" y="-208" on="1"/>
        <pt x="-770" y="-208" on="0"/>
        <pt x="-758" y="-199" on="1"/>
        <pt x="-748" y="-193" on="0"/>
        <pt x="-748" y="-180" on="1"/>
        <pt x="-748" y="-177" on="0"/>
        <pt x="-749" y="-174" on="1"/>
        <pt x="-751" y="-156" on="0"/>
        <pt x="-777" y="-136" on="1"/>
        <pt x="-802" y="-139" on="0"/>
        <pt x="-824" y="-155" on="0"/>
      </contour>
      <contour>
        <pt x="-675" y="-140" on="1"/>
        <pt x="-659" y="-169" on="0"/>
        <pt x="-659" y="-195" on="1"/>
        <pt x="-659" y="-207" on="0"/>
        <pt x="-662" y="-217" on="1"/>
        <pt x="-673" y="-252" on="0"/>
        <pt x="-735" y="-293" on="0"/>
        <pt x="-785" y="-293" on="1"/>
        <pt x="-845" y="-293" on="0"/>
        <pt x="-888" y="-259" on="1"/>
        <pt x="-928" y="-226" on="0"/>
        <pt x="-928" y="-165" on="1"/>
        <pt x="-928" y="-103" on="0"/>
        <pt x="-822" y="-41" on="0"/>
        <pt x="-740" y="-41" on="1"/>
        <pt x="-658" y="-41" on="0"/>
        <pt x="-539" y="-99" on="0"/>
        <pt x="-474" y="-167" on="0"/>
        <pt x="-427" y="-169" on="1"/>
        <pt x="-425" y="-169" on="1"/>
        <pt x="-362" y="-169" on="0"/>
        <pt x="-345" y="-49" on="1"/>
        <pt x="-206" y="-49" on="1"/>
        <pt x="-244" y="-270" on="0"/>
        <pt x="-419" y="-270" on="1"/>
        <pt x="-427" y="-270" on="1"/>
        <pt x="-517" y="-267" on="0"/>
        <pt x="-624" y="-146" on="0"/>
      </contour>
    </TTGlyph>
    <TTGlyph name="#15" xMin="-46" yMin="1600" xMax="76" yMax="1918">
      <contour>
        <pt x="-46" y="1918" on="1"/>
        <pt x="76" y="1918" on="1"/>
        <pt x="76" y="1600" on="1"/>
        <pt x="-46" y="1600" on="1"/>
      </contour>
    </TTGlyph>
    <TTGlyph name="#16" xMin="-330" yMin="1600" xMax="379" yMax="1896">
      <contour>
        <pt x="-90" y="1791" on="0"/>
        <pt x="-90" y="1802" on="1"/>
        <pt x="-90" y="1809" on="0"/>
        <pt x="-93" y="1814" on="1"/>
        <pt x="-105" y="1833" on="0"/>
        <pt x="-127" y="1833" on="1"/>
        <pt x="-136" y="1833" on="1"/>
        <pt x="-165" y="1828" on="0"/>
        <pt x="-166" y="1805" on="1"/>
        <pt x="-167" y="1804" on="0"/>
        <pt x="-167" y="1803" on="1"/>
        <pt x="-167" y="1782" on="0"/>
        <pt x="-141" y="1779" on="1"/>
        <pt x="-120" y="1777" on="0"/>
        <pt x="-97" y="1777" on="1"/>
      </contour>
      <contour>
        <pt x="-192" y="1729" on="0"/>
        <pt x="-222" y="1748" on="1"/>
        <pt x="-254" y="1770" on="0"/>
        <pt x="-254" y="1805" on="1"/>
        <pt x="-254" y="1813" on="1"/>
        <pt x="-250" y="1853" on="0"/>
        <pt x="-206" y="1877" on="1"/>
        <pt x="-170" y="1896" on="0"/>
        <pt x="-123" y="1896" on="1"/>
        <pt x="-113" y="1896" on="0"/>
        <pt x="-102" y="1895" on="1"/>
        <pt x="-41" y="1890" on="0"/>
        <pt x="-19" y="1858" on="1"/>
        <pt x="1" y="1829" on="0"/>
        <pt x="1" y="1787" on="1"/>
        <pt x="1" y="1780" on="1"/>
        <pt x="-1" y="1733" on="0"/>
        <pt x="-88" y="1668" on="1"/>
        <pt x="60" y="1676" on="0"/>
        <pt x="218" y="1781" on="0"/>
        <pt x="259" y="1869" on="1"/>
        <pt x="379" y="1824" on="1"/>
        <pt x="318" y="1729" on="0"/>
        <pt x="206" y="1650" on="0"/>
        <pt x="24" y="1600" on="0"/>
        <pt x="-116" y="1600" on="1"/>
        <pt x="-330" y="1600" on="1"/>
        <pt x="-330" y="1654" on="1"/>
        <pt x="-194" y="1676" on="0"/>
        <pt x="-140" y="1724" on="1"/>
      </contour>
    </TTGlyph>
    <TTGlyph name="#17" xMin="-274" yMin="1594" xMax="401" yMax="1896">
      <contour>
        <pt x="168" y="1600" on="1"/>
        <pt x="146" y="1605" on="0"/>
        <pt x="117" y="1634" on="0"/>
        <pt x="113" y="1654" on="1"/>
        <pt x="123" y="1664" on="0"/>
        <pt x="150" y="1681" on="0"/>
        <pt x="164" y="1701" on="0"/>
        <pt x="183" y="1720" on="0"/>
        <pt x="184" y="1742" on="1"/>
        <pt x="177" y="1766" on="0"/>
        <pt x="164" y="1778" on="1"/>
        <pt x="152" y="1789" on="0"/>
        <pt x="125" y="1789" on="1"/>
        <pt x="120" y="1789" on="1"/>
        <pt x="86" y="1763" on="0"/>
        <pt x="18" y="1703" on="0"/>
        <pt x="0" y="1703" on="1"/>
        <pt x="-17" y="1703" on="0"/>
        <pt x="-82" y="1771" on="0"/>
        <pt x="-109" y="1786" on="1"/>
        <pt x="-139" y="1786" on="0"/>
        <pt x="-165" y="1760" on="0"/>
        <pt x="-165" y="1731" on="1"/>
        <pt x="-165" y="1710" on="0"/>
        <pt x="-144" y="1688" on="0"/>
        <pt x="-120" y="1673" on="0"/>
        <pt x="-90" y="1654" on="0"/>
        <pt x="-79" y="1644" on="1"/>
        <pt x="-108" y="1603" on="0"/>
        <pt x="-147" y="1594" on="1"/>
        <pt x="-215" y="1622" on="0"/>
        <pt x="-274" y="1698" on="0"/>
        <pt x="-274" y="1745" on="1"/>
        <pt x="-274" y="1781" on="0"/>
        <pt x="-240" y="1834" on="0"/>
        <pt x="-202" y="1874" on="0"/>
        <pt x="-151" y="1894" on="0"/>
        <pt x="-114" y="1894" on="1"/>
        <pt x="-95" y="1894" on="0"/>
        <pt x="-54" y="1880" on="0"/>
        <pt x="-2" y="1832" on="0"/>
        <pt x="9" y="1821" on="1"/>
        <pt x="36" y="1842" on="0"/>
        <pt x="91" y="1889" on="0"/>
        <pt x="133" y="1896" on="1"/>
        <pt x="166" y="1896" on="0"/>
        <pt x="225" y="1870" on="0"/>
        <pt x="258" y="1832" on="0"/>
        <pt x="268" y="1812" on="1"/>
        <pt x="275" y="1795" on="0"/>
        <pt x="275" y="1773" on="1"/>
        <pt x="275" y="1764" on="1"/>
        <pt x="300" y="1799" on="0"/>
        <pt x="314" y="1843" on="0"/>
        <pt x="326" y="1886" on="1"/>
        <pt x="355" y="1884" on="0"/>
        <pt x="388" y="1864" on="0"/>
        <pt x="400" y="1845" on="1"/>
        <pt x="401" y="1841" on="0"/>
        <pt x="401" y="1836" on="1"/>
        <pt x="401" y="1793" on="0"/>
        <pt x="381" y="1758" on="1"/>
        <pt x="359" y="1718" on="0"/>
        <pt x="296" y="1664" on="0"/>
        <pt x="204" y="1616" on="0"/>
      </contour>
    </TTGlyph>
    <TTGlyph name="#18" xMin="-174" yMin="1588" xMax="186" yMax="1908">
      <contour>
        <pt x="65" y="1588" on="1"/>
        <pt x="-54" y="1588" on="1"/>
        <pt x="-54" y="1697" on="1"/>
        <pt x="-174" y="1697" on="1"/>
        <pt x="-174" y="1799" on="1"/>
        <pt x="-54" y="1799" on="1"/>
        <pt x="-54" y="1908" on="1"/>
        <pt x="65" y="1908" on="1"/>
        <pt x="65" y="1799" on="1"/>
        <pt x="186" y="1799" on="1"/>
        <pt x="186" y="1697" on="1"/>
        <pt x="65" y="1697" on="1"/>
      </contour>
    </TTGlyph>
    <TTGlyph name="#19" xMin="-544" yMin="1453" xMax="-422" yMax="1771">
      <contour>
        <pt x="-544" y="1771" on="1"/>
        <pt x="-422" y="1771" on="1"/>
        <pt x="-422" y="1453" on="1"/>
        <pt x="-544" y="1453" on="1"/>
      </contour>
    </TTGlyph>
    <TTGlyph name="#2" xMin="-813" yMin="1450" xMax="-170" yMax="2103">
      <contour>
        <pt x="-549" y="1695" on="0"/>
        <pt x="-587" y="1677" on="0"/>
        <pt x="-609" y="1644" on="0"/>
        <pt x="-609" y="1625" on="1"/>
        <pt x="-609" y="1607" on="0"/>
        <pt x="-587" y="1574" on="0"/>
        <pt x="-549" y="1555" on="0"/>
        <pt x="-529" y="1555" on="1"/>
        <pt x="-508" y="1555" on="0"/>
        <pt x="-470" y="1574" on="0"/>
        <pt x="-449" y="1607" on="0"/>
        <pt x="-449" y="1625" on="1"/>
        <pt x="-449" y="1644" on="0"/>
        <pt x="-470" y="1677" on="0"/>
        <pt x="-508" y="1695" on="0"/>
        <pt x="-529" y="1695" on="1"/>
      </contour>
      <contour>
        <pt x="-529" y="1801" on="1"/>
        <pt x="-478" y="1801" on="0"/>
        <pt x="-383" y="1755" on="0"/>
        <pt x="-329" y="1671" on="0"/>
        <pt x="-329" y="1625" on="1"/>
        <pt x="-329" y="1580" on="0"/>
        <pt x="-381" y="1496" on="0"/>
        <pt x="-477" y="1450" on="0"/>
        <pt x="-529" y="1450" on="1"/>
        <pt x="-580" y="1450" on="0"/>
        <pt x="-676" y="1496" on="0"/>
        <pt x="-729" y="1580" on="0"/>
        <pt x="-729" y="1625" on="1"/>
        <pt x="-729" y="1671" on="0"/>
        <pt x="-675" y="1755" on="0"/>
        <pt x="-579" y="1801" on="0"/>
      </contour>
      <contour>
        <pt x="-686" y="1845" on="0"/>
        <pt x="-692" y="1844" on="1"/>
        <pt x="-756" y="1868" on="0"/>
        <pt x="-813" y="1933" on="0"/>
        <pt x="-813" y="1974" on="1"/>
        <pt x="-813" y="2004" on="0"/>
        <pt x="-780" y="2050" on="0"/>
        <pt x="-744" y="2085" on="0"/>
        <pt x="-696" y="2103" on="0"/>
        <pt x="-661" y="2103" on="1"/>
        <pt x="-642" y="2103" on="0"/>
        <pt x="-603" y="2089" on="0"/>
        <pt x="-553" y="2048" on="0"/>
        <pt x="-543" y="2038" on="1"/>
        <pt x="-517" y="2057" on="0"/>
        <pt x="-465" y="2097" on="0"/>
        <pt x="-425" y="2103" on="1"/>
        <pt x="-393" y="2103" on="0"/>
        <pt x="-337" y="2080" on="0"/>
        <pt x="-306" y="2048" on="0"/>
        <pt x="-297" y="2031" on="1"/>
        <pt x="-289" y="2016" on="0"/>
        <pt x="-289" y="1996" on="1"/>
        <pt x="-289" y="1991" on="1"/>
        <pt x="-266" y="2021" on="0"/>
        <pt x="-252" y="2057" on="0"/>
        <pt x="-241" y="2094" on="1"/>
        <pt x="-213" y="2093" on="0"/>
        <pt x="-182" y="2076" on="0"/>
        <pt x="-171" y="2059" on="1"/>
        <pt x="-170" y="2056" on="0"/>
        <pt x="-170" y="2052" on="1"/>
        <pt x="-170" y="2015" on="0"/>
        <pt x="-189" y="1985" on="1"/>
        <pt x="-210" y="1950" on="0"/>
        <pt x="-270" y="1904" on="0"/>
        <pt x="-347" y="1858" on="0"/>
        <pt x="-391" y="1850" on="1"/>
        <pt x="-395" y="1851" on="0"/>
        <pt x="-399" y="1851" on="1"/>
        <pt x="-438" y="1899" on="1"/>
        <pt x="-414" y="1912" on="0"/>
        <pt x="-387" y="1931" on="1"/>
        <pt x="-357" y="1952" on="0"/>
        <pt x="-356" y="1972" on="1"/>
        <pt x="-363" y="1992" on="0"/>
        <pt x="-382" y="2012" on="1"/>
        <pt x="-400" y="2030" on="0"/>
        <pt x="-428" y="2030" on="1"/>
        <pt x="-430" y="2030" on="1"/>
        <pt x="-451" y="2028" on="0"/>
        <pt x="-528" y="1938" on="0"/>
        <pt x="-545" y="1938" on="1"/>
        <pt x="-561" y="1938" on="0"/>
        <pt x="-638" y="2027" on="0"/>
        <pt x="-663" y="2028" on="1"/>
        <pt x="-691" y="2028" on="0"/>
        <pt x="-729" y="1986" on="0"/>
        <pt x="-729" y="1962" on="1"/>
        <pt x="-729" y="1944" on="0"/>
        <pt x="-692" y="1922" on="1"/>
        <pt x="-669" y="1909" on="0"/>
        <pt x="-650" y="1900" on="1"/>
        <pt x="-681" y="1848" on="1"/>
      </contour>
    </TTGlyph>
    <TTGlyph name="#20" xMin="-786" yMin="1454" xMax="-77" yMax="1771">
      <contour>
        <pt x="-546" y="1659" on="0"/>
        <pt x="-546" y="1670" on="1"/>
        <pt x="-546" y="1677" on="0"/>
        <pt x="-549" y="1683" on="1"/>
        <pt x="-561" y="1704" on="0"/>
        <pt x="-583" y="1704" on="1"/>
        <pt x="-587" y="1704" on="0"/>
        <pt x="-592" y="1703" on="1"/>
        <pt x="-621" y="1698" on="0"/>
        <pt x="-622" y="1674" on="1"/>
        <pt x="-623" y="1672" on="0"/>
        <pt x="-623" y="1671" on="1"/>
        <pt x="-623" y="1649" on="0"/>
        <pt x="-597" y="1646" on="1"/>
        <pt x="-581" y="1644" on="0"/>
        <pt x="-564" y="1644" on="1"/>
        <pt x="-553" y="1644" on="1"/>
      </contour>
      <contour>
        <pt x="-648" y="1592" on="0"/>
        <pt x="-678" y="1613" on="1"/>
        <pt x="-710" y="1636" on="0"/>
        <pt x="-710" y="1673" on="1"/>
        <pt x="-710" y="1682" on="1"/>
        <pt x="-706" y="1725" on="0"/>
        <pt x="-662" y="1751" on="1"/>
        <pt x="-626" y="1771" on="0"/>
        <pt x="-579" y="1771" on="1"/>
        <pt x="-569" y="1771" on="0"/>
        <pt x="-558" y="1770" on="1"/>
        <pt x="-497" y="1765" on="0"/>
        <pt x="-475" y="1731" on="1"/>
        <pt x="-455" y="1699" on="0"/>
        <pt x="-455" y="1654" on="1"/>
        <pt x="-455" y="1646" on="1"/>
        <pt x="-457" y="1596" on="0"/>
        <pt x="-544" y="1526" on="1"/>
        <pt x="-396" y="1535" on="0"/>
        <pt x="-238" y="1648" on="0"/>
        <pt x="-197" y="1742" on="1"/>
        <pt x="-77" y="1693" on="1"/>
        <pt x="-138" y="1592" on="0"/>
        <pt x="-250" y="1507" on="0"/>
        <pt x="-432" y="1454" on="0"/>
        <pt x="-572" y="1454" on="1"/>
        <pt x="-786" y="1454" on="1"/>
        <pt x="-786" y="1513" on="1"/>
        <pt x="-650" y="1536" on="0"/>
        <pt x="-596" y="1586" on="1"/>
      </contour>
    </TTGlyph>
    <TTGlyph name="#21" xMin="-805" yMin="1447" xMax="-130" yMax="1759">
      <contour>
        <pt x="-363" y="1453" on="1"/>
        <pt x="-385" y="1458" on="0"/>
        <pt x="-414" y="1488" on="0"/>
        <pt x="-418" y="1509" on="1"/>
        <pt x="-408" y="1519" on="0"/>
        <pt x="-381" y="1537" on="0"/>
        <pt x="-367" y="1558" on="0"/>
        <pt x="-348" y="1577" on="0"/>
        <pt x="-347" y="1600" on="1"/>
        <pt x="-354" y="1625" on="0"/>
        <pt x="-367" y="1637" on="1"/>
        <pt x="-379" y="1648" on="0"/>
        <pt x="-406" y="1648" on="1"/>
        <pt x="-411" y="1648" on="1"/>
        <pt x="-445" y="1622" on="0"/>
        <pt x="-513" y="1560" on="0"/>
        <pt x="-531" y="1560" on="1"/>
        <pt x="-548" y="1560" on="0"/>
        <pt x="-613" y="1630" on="0"/>
        <pt x="-640" y="1645" on="1"/>
        <pt x="-670" y="1645" on="0"/>
        <pt x="-696" y="1618" on="0"/>
        <pt x="-696" y="1589" on="1"/>
        <pt x="-696" y="1567" on="0"/>
        <pt x="-675" y="1544" on="0"/>
        <pt x="-651" y="1529" on="0"/>
        <pt x="-621" y="1509" on="0"/>
        <pt x="-610" y="1499" on="1"/>
        <pt x="-639" y="1456" on="0"/>
        <pt x="-678" y="1447" on="1"/>
        <pt x="-746" y="1476" on="0"/>
        <pt x="-805" y="1554" on="0"/>
        <pt x="-805" y="1603" on="1"/>
        <pt x="-805" y="1640" on="0"/>
        <pt x="-771" y="1695" on="0"/>
        <pt x="-733" y="1736" on="0"/>
        <pt x="-682" y="1757" on="0"/>
        <pt x="-645" y="1757" on="1"/>
        <pt x="-626" y="1757" on="0"/>
        <pt x="-585" y="1742" on="0"/>
        <pt x="-533" y="1693" on="0"/>
        <pt x="-522" y="1681" on="1"/>
        <pt x="-495" y="1703" on="0"/>
        <pt x="-440" y="1752" on="0"/>
        <pt x="-398" y="1759" on="1"/>
        <pt x="-365" y="1759" on="0"/>
        <pt x="-306" y="1732" on="0"/>
        <pt x="-273" y="1693" on="0"/>
        <pt x="-263" y="1672" on="1"/>
        <pt x="-256" y="1655" on="0"/>
        <pt x="-256" y="1633" on="1"/>
        <pt x="-256" y="1623" on="1"/>
        <pt x="-231" y="1659" on="0"/>
        <pt x="-217" y="1704" on="0"/>
        <pt x="-205" y="1749" on="1"/>
        <pt x="-176" y="1747" on="0"/>
        <pt x="-143" y="1726" on="0"/>
        <pt x="-131" y="1706" on="1"/>
        <pt x="-130" y="1702" on="0"/>
        <pt x="-130" y="1697" on="1"/>
        <pt x="-130" y="1653" on="0"/>
        <pt x="-150" y="1616" on="1"/>
        <pt x="-172" y="1575" on="0"/>
        <pt x="-235" y="1519" on="0"/>
        <pt x="-327" y="1470" on="0"/>
      </contour>
    </TTGlyph>
    <TTGlyph name="#22" xMin="-671" yMin="1445" xMax="-311" yMax="1769">
      <contour>
        <pt x="-432" y="1445" on="1"/>
        <pt x="-551" y="1445" on="1"/>
        <pt x="-551" y="1555" on="1"/>
        <pt x="-671" y="1555" on="1"/>
        <pt x="-671" y="1658" on="1"/>
        <pt x="-551" y="1658" on="1"/>
        <pt x="-551" y="1769" on="1"/>
        <pt x="-432" y="1769" on="1"/>
        <pt x="-432" y="1658" on="1"/>
        <pt x="-311" y="1658" on="1"/>
        <pt x="-311" y="1555" on="1"/>
        <pt x="-432" y="1555" on="1"/>
      </contour>
    </TTGlyph>
    <TTGlyph name="#23" xMin="-508" yMin="-615" xMax="214" yMax="-41">
      <contour>
        <pt x="-142" y="-399" on="1"/>
        <pt x="-142" y="-385" on="0"/>
        <pt x="-170" y="-365" on="0"/>
        <pt x="-186" y="-365" on="1"/>
        <pt x="-205" y="-365" on="0"/>
        <pt x="-220" y="-375" on="1"/>
        <pt x="-234" y="-385" on="0"/>
        <pt x="-234" y="-398" on="1"/>
        <pt x="-234" y="-400" on="1"/>
        <pt x="-234" y="-412" on="0"/>
        <pt x="-205" y="-435" on="0"/>
        <pt x="-186" y="-435" on="1"/>
        <pt x="-170" y="-435" on="0"/>
        <pt x="-142" y="-411" on="0"/>
      </contour>
      <contour>
        <pt x="-13" y="-472" on="1"/>
        <pt x="-14" y="-472" on="1"/>
        <pt x="-27" y="-501" on="0"/>
        <pt x="-44" y="-524" on="0"/>
        <pt x="-73" y="-553" on="0"/>
        <pt x="-110" y="-583" on="0"/>
        <pt x="-169" y="-615" on="1"/>
        <pt x="-285" y="-567" on="1"/>
        <pt x="-238" y="-550" on="0"/>
        <pt x="-175" y="-501" on="0"/>
        <pt x="-165" y="-481" on="1"/>
        <pt x="-200" y="-488" on="0"/>
        <pt x="-219" y="-489" on="1"/>
        <pt x="-223" y="-489" on="1"/>
        <pt x="-242" y="-489" on="0"/>
        <pt x="-271" y="-479" on="1"/>
        <pt x="-319" y="-461" on="0"/>
        <pt x="-341" y="-418" on="0"/>
        <pt x="-341" y="-385" on="1"/>
        <pt x="-329" y="-347" on="0"/>
        <pt x="-301" y="-321" on="0"/>
        <pt x="-257" y="-300" on="0"/>
        <pt x="-219" y="-292" on="0"/>
        <pt x="-169" y="-291" on="1"/>
        <pt x="-164" y="-291" on="1"/>
        <pt x="-151" y="-291" on="0"/>
        <pt x="-87" y="-310" on="0"/>
        <pt x="-34" y="-345" on="0"/>
        <pt x="-18" y="-379" on="1"/>
        <pt x="-8" y="-399" on="0"/>
        <pt x="-8" y="-429" on="1"/>
        <pt x="-8" y="-448" on="0"/>
      </contour>
      <contour>
        <pt x="-407" y="-173" on="1"/>
        <pt x="-407" y="-178" on="1"/>
        <pt x="-407" y="-192" on="0"/>
        <pt x="-398" y="-198" on="1"/>
        <pt x="-387" y="-207" on="0"/>
        <pt x="-368" y="-208" on="1"/>
        <pt x="-350" y="-208" on="0"/>
        <pt x="-338" y="-199" on="1"/>
        <pt x="-328" y="-193" on="0"/>
        <pt x="-328" y="-180" on="1"/>
        <pt x="-328" y="-177" on="0"/>
        <pt x="-329" y="-174" on="1"/>
        <pt x="-331" y="-156" on="0"/>
        <pt x="-357" y="-136" on="1"/>
        <pt x="-382" y="-139" on="0"/>
        <pt x="-404" y="-155" on="0"/>
      </contour>
      <contour>
        <pt x="-255" y="-140" on="1"/>
        <pt x="-239" y="-169" on="0"/>
        <pt x="-239" y="-195" on="1"/>
        <pt x="-239" y="-207" on="0"/>
        <pt x="-242" y="-217" on="1"/>
        <pt x="-253" y="-252" on="0"/>
        <pt x="-315" y="-293" on="0"/>
        <pt x="-365" y="-293" on="1"/>
        <pt x="-425" y="-293" on="0"/>
        <pt x="-468" y="-259" on="1"/>
        <pt x="-508" y="-226" on="0"/>
        <pt x="-508" y="-165" on="1"/>
        <pt x="-508" y="-103" on="0"/>
        <pt x="-402" y="-41" on="0"/>
        <pt x="-320" y="-41" on="1"/>
        <pt x="-238" y="-41" on="0"/>
        <pt x="-119" y="-99" on="0"/>
        <pt x="-54" y="-167" on="0"/>
        <pt x="-7" y="-169" on="1"/>
        <pt x="-5" y="-169" on="1"/>
        <pt x="58" y="-169" on="0"/>
        <pt x="75" y="-49" on="1"/>
        <pt x="214" y="-49" on="1"/>
        <pt x="176" y="-270" on="0"/>
        <pt x="1" y="-270" on="1"/>
        <pt x="-7" y="-270" on="1"/>
        <pt x="-97" y="-267" on="0"/>
        <pt x="-204" y="-146" on="0"/>
      </contour>
    </TTGlyph>
    <TTGlyph name="#24" xMin="-508" yMin="-615" xMax="214" yMax="-41">
      <contour>
        <pt x="-272" y="-398" on="0"/>
        <pt x="-283" y="-412" on="0"/>
        <pt x="-283" y="-419" on="1"/>
        <pt x="-283" y="-428" on="0"/>
        <pt x="-272" y="-441" on="0"/>
        <pt x="-254" y="-449" on="0"/>
        <pt x="-221" y="-451" on="1"/>
        <pt x="-204" y="-433" on="0"/>
        <pt x="-204" y="-419" on="1"/>
        <pt x="-204" y="-412" on="0"/>
        <pt x="-215" y="-398" on="0"/>
        <pt x="-233" y="-389" on="0"/>
        <pt x="-243" y="-389" on="1"/>
        <pt x="-253" y="-389" on="0"/>
      </contour>
      <contour>
        <pt x="-149" y="-468" on="1"/>
        <pt x="-159" y="-490" on="0"/>
        <pt x="-159" y="-510" on="1"/>
        <pt x="-159" y="-519" on="0"/>
        <pt x="-157" y="-528" on="1"/>
        <pt x="-150" y="-543" on="0"/>
        <pt x="-114" y="-543" on="1"/>
        <pt x="-79" y="-543" on="0"/>
        <pt x="-79" y="-458" on="1"/>
        <pt x="-79" y="-339" on="1"/>
        <pt x="31" y="-339" on="1"/>
        <pt x="31" y="-462" on="1"/>
        <pt x="31" y="-615" on="0"/>
        <pt x="-114" y="-615" on="1"/>
        <pt x="-217" y="-615" on="0"/>
        <pt x="-246" y="-567" on="1"/>
        <pt x="-258" y="-546" on="0"/>
        <pt x="-258" y="-527" on="1"/>
        <pt x="-258" y="-510" on="0"/>
        <pt x="-249" y="-495" on="1"/>
        <pt x="-276" y="-495" on="0"/>
        <pt x="-301" y="-484" on="1"/>
        <pt x="-328" y="-474" on="0"/>
        <pt x="-359" y="-437" on="0"/>
        <pt x="-359" y="-417" on="1"/>
        <pt x="-359" y="-396" on="0"/>
        <pt x="-328" y="-359" on="0"/>
        <pt x="-274" y="-339" on="0"/>
        <pt x="-246" y="-339" on="1"/>
        <pt x="-217" y="-339" on="0"/>
        <pt x="-164" y="-359" on="0"/>
        <pt x="-134" y="-396" on="0"/>
        <pt x="-134" y="-417" on="1"/>
        <pt x="-134" y="-436" on="0"/>
      </contour>
      <contour>
        <pt x="-407" y="-173" on="1"/>
        <pt x="-407" y="-178" on="1"/>
        <pt x="-407" y="-192" on="0"/>
        <pt x="-398" y="-198" on="1"/>
        <pt x="-387" y="-207" on="0"/>
        <pt x="-368" y="-208" on="1"/>
        <pt x="-350" y="-208" on="0"/>
        <pt x="-338" y="-199" on="1"/>
        <pt x="-328" y="-193" on="0"/>
        <pt x="-328" y="-180" on="1"/>
        <pt x="-328" y="-177" on="0"/>
        <pt x="-329" y="-174" on="1"/>
        <pt x="-331" y="-156" on="0"/>
        <pt x="-357" y="-136" on="1"/>
        <pt x="-382" y="-139" on="0"/>
        <pt x="-404" y="-155" on="0"/>
      </contour>
      <contour>
        <pt x="-255" y="-140" on="1"/>
        <pt x="-239" y="-169" on="0"/>
        <pt x="-239" y="-195" on="1"/>
        <pt x="-239" y="-207" on="0"/>
        <pt x="-242" y="-217" on="1"/>
        <pt x="-253" y="-252" on="0"/>
        <pt x="-315" y="-293" on="0"/>
        <pt x="-365" y="-293" on="1"/>
        <pt x="-425" y="-293" on="0"/>
        <pt x="-468" y="-259" on="1"/>
        <pt x="-508" y="-226" on="0"/>
        <pt x="-508" y="-165" on="1"/>
        <pt x="-508" y="-103" on="0"/>
        <pt x="-402" y="-41" on="0"/>
        <pt x="-320" y="-41" on="1"/>
        <pt x="-238" y="-41" on="0"/>
        <pt x="-119" y="-99" on="0"/>
        <pt x="-54" y="-167" on="0"/>
        <pt x="-7" y="-169" on="1"/>
        <pt x="-5" y="-169" on="1"/>
        <pt x="58" y="-169" on="0"/>
        <pt x="75" y="-49" on="1"/>
        <pt x="214" y="-49" on="1"/>
        <pt x="176" y="-270" on="0"/>
        <pt x="1" y="-270" on="1"/>
        <pt x="-7" y="-270" on="1"/>
        <pt x="-97" y="-267" on="0"/>
        <pt x="-204" y="-146" on="0"/>
      </contour>
    </TTGlyph>
    <TTGlyph name="#25" xMin="82" yMin="0" xMax="1551" yMax="1300">
      <contour>
        <pt x="198" y="191" on="1"/>
        <pt x="198" y="116" on="0"/>
        <pt x="273" y="116" on="1"/>
        <pt x="349" y="116" on="0"/>
        <pt x="349" y="191" on="1"/>
        <pt x="349" y="267" on="0"/>
        <pt x="273" y="267" on="1"/>
        <pt x="198" y="267" on="0"/>
      </contour>
      <contour>
        <pt x="823" y="676" on="0"/>
        <pt x="805" y="649" on="0"/>
        <pt x="805" y="635" on="1"/>
        <pt x="805" y="621" on="0"/>
        <pt x="823" y="594" on="0"/>
        <pt x="854" y="579" on="0"/>
        <pt x="870" y="579" on="1"/>
        <pt x="888" y="579" on="0"/>
        <pt x="919" y="594" on="0"/>
        <pt x="936" y="621" on="0"/>
        <pt x="936" y="635" on="1"/>
        <pt x="936" y="649" on="0"/>
        <pt x="919" y="676" on="0"/>
        <pt x="888" y="691" on="0"/>
        <pt x="870" y="691" on="1"/>
        <pt x="854" y="691" on="0"/>
      </contour>
      <contour>
        <pt x="340" y="1045" on="1"/>
        <pt x="340" y="1068" on="1"/>
        <pt x="340" y="1186" on="0"/>
        <pt x="268" y="1186" on="1"/>
        <pt x="198" y="1186" on="0"/>
        <pt x="198" y="1115" on="1"/>
        <pt x="198" y="1044" on="0"/>
        <pt x="311" y="1044" on="1"/>
        <pt x="326" y="1044" on="0"/>
      </contour>
      <contour>
        <pt x="1090" y="533" on="1"/>
        <pt x="1090" y="950" on="1"/>
        <pt x="1090" y="1039" on="0"/>
        <pt x="968" y="1190" on="0"/>
        <pt x="846" y="1190" on="1"/>
        <pt x="658" y="1190" on="0"/>
        <pt x="561" y="1033" on="1"/>
        <pt x="528" y="985" on="1"/>
        <pt x="528" y="260" on="1"/>
        <pt x="528" y="123" on="0"/>
        <pt x="457" y="58" on="1"/>
        <pt x="394" y="0" on="0"/>
        <pt x="273" y="0" on="1"/>
        <pt x="171" y="0" on="0"/>
        <pt x="124" y="54" on="1"/>
        <pt x="82" y="102" on="0"/>
        <pt x="82" y="191" on="1"/>
        <pt x="82" y="281" on="0"/>
        <pt x="124" y="328" on="1"/>
        <pt x="172" y="382" on="0"/>
        <pt x="273" y="382" on="1"/>
        <pt x="310" y="382" on="0"/>
        <pt x="340" y="375" on="1"/>
        <pt x="340" y="930" on="1"/>
        <pt x="313" y="930" on="1"/>
        <pt x="189" y="930" on="0"/>
        <pt x="132" y="983" on="1"/>
        <pt x="82" y="1029" on="0"/>
        <pt x="82" y="1115" on="1"/>
        <pt x="82" y="1209" on="0"/>
        <pt x="131" y="1255" on="1"/>
        <pt x="179" y="1300" on="0"/>
        <pt x="273" y="1300" on="1"/>
        <pt x="475" y="1300" on="0"/>
        <pt x="517" y="1159" on="1"/>
        <pt x="628" y="1300" on="0"/>
        <pt x="846" y="1300" on="1"/>
        <pt x="1063" y="1300" on="0"/>
        <pt x="1278" y="1124" on="0"/>
        <pt x="1278" y="950" on="1"/>
        <pt x="1278" y="575" on="1"/>
        <pt x="1362" y="631" on="0"/>
        <pt x="1374" y="760" on="1"/>
        <pt x="1551" y="760" on="1"/>
        <pt x="1490" y="536" on="0"/>
        <pt x="1278" y="477" on="1"/>
        <pt x="1278" y="200" on="1"/>
        <pt x="1278" y="105" on="0"/>
        <pt x="1228" y="0" on="1"/>
        <pt x="1040" y="0" on="1"/>
        <pt x="1090" y="75" on="0"/>
        <pt x="1090" y="200" on="1"/>
        <pt x="1090" y="456" on="1"/>
        <pt x="712" y="460" on="0"/>
        <pt x="712" y="635" on="1"/>
        <pt x="712" y="670" on="0"/>
        <pt x="755" y="734" on="0"/>
        <pt x="830" y="769" on="0"/>
        <pt x="870" y="769" on="1"/>
        <pt x="910" y="769" on="0"/>
        <pt x="995" y="734" on="0"/>
        <pt x="1037" y="670" on="0"/>
        <pt x="1037" y="635" on="1"/>
        <pt x="1037" y="600" on="0"/>
        <pt x="1017" y="578" on="1"/>
        <pt x="1016" y="576" on="0"/>
        <pt x="1016" y="575" on="1"/>
        <pt x="1045" y="538" on="0"/>
      </contour>
    </TTGlyph>
    <TTGlyph name="#26" xMin="147" yMin="0" xMax="1496" yMax="1300">
      <contour>
        <pt x="457" y="1184" on="1"/>
        <pt x="426" y="1184" on="0"/>
        <pt x="408" y="1172" on="1"/>
        <pt x="381" y="1154" on="0"/>
        <pt x="381" y="1109" on="1"/>
        <pt x="381" y="1033" on="0"/>
        <pt x="457" y="1033" on="1"/>
        <pt x="496" y="1033" on="0"/>
        <pt x="515" y="1054" on="1"/>
        <pt x="532" y="1073" on="0"/>
        <pt x="532" y="1109" on="1"/>
        <pt x="532" y="1150" on="0"/>
        <pt x="510" y="1169" on="1"/>
        <pt x="491" y="1184" on="0"/>
      </contour>
      <contour>
        <pt x="768" y="751" on="0"/>
        <pt x="750" y="724" on="0"/>
        <pt x="750" y="710" on="1"/>
        <pt x="750" y="696" on="0"/>
        <pt x="768" y="669" on="0"/>
        <pt x="799" y="654" on="0"/>
        <pt x="815" y="654" on="1"/>
        <pt x="833" y="654" on="0"/>
        <pt x="864" y="669" on="0"/>
        <pt x="881" y="696" on="0"/>
        <pt x="881" y="710" on="1"/>
        <pt x="881" y="724" on="0"/>
        <pt x="864" y="751" on="0"/>
        <pt x="833" y="766" on="0"/>
        <pt x="815" y="766" on="1"/>
        <pt x="799" y="766" on="0"/>
      </contour>
      <contour>
        <pt x="1197" y="546" on="1"/>
        <pt x="1197" y="380" on="1"/>
        <pt x="1197" y="187" on="0"/>
        <pt x="1067" y="92" on="1"/>
        <pt x="943" y="0" on="0"/>
        <pt x="668" y="0" on="1"/>
        <pt x="392" y="0" on="0"/>
        <pt x="267" y="83" on="1"/>
        <pt x="147" y="163" on="0"/>
        <pt x="147" y="350" on="1"/>
        <pt x="147" y="574" on="0"/>
        <pt x="310" y="640" on="1"/>
        <pt x="147" y="713" on="0"/>
        <pt x="147" y="870" on="1"/>
        <pt x="147" y="1005" on="1"/>
        <pt x="147" y="1177" on="0"/>
        <pt x="252" y="1248" on="1"/>
        <pt x="327" y="1300" on="0"/>
        <pt x="457" y="1300" on="1"/>
        <pt x="552" y="1300" on="0"/>
        <pt x="599" y="1253" on="1"/>
        <pt x="647" y="1205" on="0"/>
        <pt x="647" y="1110" on="1"/>
        <pt x="647" y="1014" on="0"/>
        <pt x="600" y="966" on="1"/>
        <pt x="552" y="918" on="0"/>
        <pt x="457" y="918" on="1"/>
        <pt x="381" y="918" on="0"/>
        <pt x="335" y="948" on="1"/>
        <pt x="335" y="870" on="1"/>
        <pt x="335" y="704" on="0"/>
        <pt x="547" y="704" on="1"/>
        <pt x="627" y="704" on="1"/>
        <pt x="627" y="570" on="1"/>
        <pt x="547" y="570" on="1"/>
        <pt x="335" y="570" on="0"/>
        <pt x="335" y="350" on="1"/>
        <pt x="335" y="229" on="0"/>
        <pt x="488" y="110" on="0"/>
        <pt x="668" y="110" on="1"/>
        <pt x="848" y="110" on="0"/>
        <pt x="1009" y="253" on="0"/>
        <pt x="1009" y="380" on="1"/>
        <pt x="1009" y="532" on="1"/>
        <pt x="657" y="541" on="0"/>
        <pt x="657" y="710" on="1"/>
        <pt x="657" y="745" on="0"/>
        <pt x="700" y="809" on="0"/>
        <pt x="775" y="844" on="0"/>
        <pt x="815" y="844" on="1"/>
        <pt x="855" y="844" on="0"/>
        <pt x="940" y="809" on="0"/>
        <pt x="982" y="745" on="0"/>
        <pt x="982" y="710" on="1"/>
        <pt x="982" y="675" on="0"/>
        <pt x="962" y="653" on="1"/>
        <pt x="961" y="651" on="0"/>
        <pt x="961" y="650" on="1"/>
        <pt x="981" y="625" on="0"/>
        <pt x="1009" y="614" on="1"/>
        <pt x="1009" y="1100" on="1"/>
        <pt x="1009" y="1195" on="0"/>
        <pt x="1059" y="1300" on="1"/>
        <pt x="1247" y="1300" on="1"/>
        <pt x="1197" y="1225" on="0"/>
        <pt x="1197" y="1100" on="1"/>
        <pt x="1197" y="635" on="1"/>
        <pt x="1305" y="687" on="0"/>
        <pt x="1319" y="835" on="1"/>
        <pt x="1496" y="835" on="1"/>
        <pt x="1431" y="598" on="0"/>
      </contour>
    </TTGlyph>
    <TTGlyph name="#3" xMin="-187" yMin="-511" xMax="121" yMax="-61">
      <contour>
        <pt x="-43" y="-161" on="0"/>
        <pt x="-66" y="-173" on="0"/>
        <pt x="-80" y="-193" on="0"/>
        <pt x="-80" y="-205" on="1"/>
        <pt x="-80" y="-216" on="0"/>
        <pt x="-66" y="-236" on="0"/>
        <pt x="-45" y="-249" on="0"/>
        <pt x="-32" y="-249" on="1"/>
        <pt x="-19" y="-249" on="0"/>
        <pt x="3" y="-236" on="0"/>
        <pt x="14" y="-216" on="0"/>
        <pt x="14" y="-205" on="1"/>
        <pt x="14" y="-193" on="0"/>
        <pt x="3" y="-173" on="0"/>
        <pt x="-20" y="-161" on="0"/>
        <pt x="-32" y="-161" on="1"/>
      </contour>
      <contour>
        <pt x="-53" y="-347" on="1"/>
        <pt x="-82" y="-343" on="0"/>
        <pt x="-109" y="-329" on="1"/>
        <pt x="-147" y="-310" on="0"/>
        <pt x="-187" y="-243" on="0"/>
        <pt x="-187" y="-205" on="1"/>
        <pt x="-187" y="-166" on="0"/>
        <pt x="-144" y="-97" on="0"/>
        <pt x="-71" y="-61" on="0"/>
        <pt x="-32" y="-61" on="1"/>
        <pt x="7" y="-61" on="0"/>
        <pt x="80" y="-97" on="0"/>
        <pt x="121" y="-166" on="0"/>
        <pt x="121" y="-205" on="1"/>
        <pt x="121" y="-448" on="0"/>
        <pt x="-104" y="-511" on="1"/>
        <pt x="-171" y="-423" on="1"/>
        <pt x="-90" y="-411" on="0"/>
      </contour>
    </TTGlyph>
    <TTGlyph name="#4" xMin="-335" yMin="-511" xMax="153" yMax="-61">
      <contour>
        <pt x="-228" y="-163" on="0"/>
        <pt x="-240" y="-184" on="0"/>
        <pt x="-240" y="-196" on="1"/>
        <pt x="-240" y="-209" on="0"/>
        <pt x="-228" y="-229" on="0"/>
        <pt x="-208" y="-242" on="0"/>
        <pt x="-172" y="-244" on="1"/>
        <pt x="-154" y="-218" on="0"/>
        <pt x="-154" y="-196" on="1"/>
        <pt x="-154" y="-184" on="0"/>
        <pt x="-166" y="-163" on="0"/>
        <pt x="-186" y="-150" on="0"/>
        <pt x="-197" y="-150" on="1"/>
        <pt x="-207" y="-150" on="0"/>
      </contour>
      <contour>
        <pt x="-80" y="-278" on="1"/>
        <pt x="-93" y="-315" on="0"/>
        <pt x="-93" y="-351" on="1"/>
        <pt x="-93" y="-366" on="0"/>
        <pt x="-90" y="-381" on="1"/>
        <pt x="-82" y="-406" on="0"/>
        <pt x="-38" y="-406" on="1"/>
        <pt x="19" y="-406" on="0"/>
        <pt x="19" y="-262" on="1"/>
        <pt x="19" y="-61" on="1"/>
        <pt x="153" y="-61" on="1"/>
        <pt x="153" y="-268" on="1"/>
        <pt x="153" y="-511" on="0"/>
        <pt x="-38" y="-511" on="1"/>
        <pt x="-165" y="-511" on="0"/>
        <pt x="-196" y="-446" on="1"/>
        <pt x="-215" y="-408" on="0"/>
        <pt x="-215" y="-374" on="1"/>
        <pt x="-215" y="-348" on="0"/>
        <pt x="-204" y="-324" on="1"/>
        <pt x="-238" y="-324" on="0"/>
        <pt x="-269" y="-307" on="1"/>
        <pt x="-303" y="-289" on="0"/>
        <pt x="-335" y="-226" on="0"/>
        <pt x="-335" y="-193" on="1"/>
        <pt x="-335" y="-158" on="0"/>
        <pt x="-303" y="-94" on="0"/>
        <pt x="-235" y="-61" on="0"/>
        <pt x="-201" y="-61" on="1"/>
        <pt x="-165" y="-61" on="0"/>
        <pt x="-99" y="-94" on="0"/>
        <pt x="-62" y="-158" on="0"/>
        <pt x="-62" y="-193" on="1"/>
        <pt x="-62" y="-224" on="0"/>
      </contour>
    </TTGlyph>
    <TTGlyph name="#5" xMin="-451" yMin="1450" xMax="451" yMax="1797">
      <contour>
        <pt x="0" y="1797" on="1"/>
        <pt x="160" y="1797" on="0"/>
        <pt x="344" y="1760" on="0"/>
        <pt x="451" y="1667" on="0"/>
        <pt x="451" y="1628" on="1"/>
        <pt x="445" y="1594" on="0"/>
        <pt x="421" y="1558" on="0"/>
        <pt x="348" y="1507" on="0"/>
        <pt x="274" y="1472" on="0"/>
        <pt x="220" y="1451" on="1"/>
        <pt x="212" y="1451" on="0"/>
        <pt x="206" y="1450" on="1"/>
        <pt x="146" y="1530" on="1"/>
        <pt x="279" y="1574" on="0"/>
        <pt x="279" y="1624" on="1"/>
        <pt x="279" y="1673" on="0"/>
        <pt x="213" y="1690" on="1"/>
        <pt x="153" y="1705" on="0"/>
        <pt x="0" y="1705" on="1"/>
        <pt x="-153" y="1705" on="0"/>
        <pt x="-213" y="1690" on="1"/>
        <pt x="-279" y="1673" on="0"/>
        <pt x="-279" y="1624" on="1"/>
        <pt x="-279" y="1574" on="0"/>
        <pt x="-146" y="1530" on="1"/>
        <pt x="-206" y="1450" on="1"/>
        <pt x="-212" y="1451" on="0"/>
        <pt x="-220" y="1451" on="1"/>
        <pt x="-274" y="1472" on="0"/>
        <pt x="-348" y="1507" on="0"/>
        <pt x="-421" y="1558" on="0"/>
        <pt x="-445" y="1594" on="0"/>
        <pt x="-451" y="1628" on="1"/>
        <pt x="-451" y="1667" on="0"/>
        <pt x="-344" y="1760" on="0"/>
        <pt x="-160" y="1797" on="0"/>
      </contour>
    </TTGlyph>
    <TTGlyph name="#6" xMin="-450" yMin="1450" xMax="530" yMax="1795">
      <contour>
        <pt x="118" y="1532" on="1"/>
        <pt x="121" y="1534" on="0"/>
        <pt x="135" y="1536" on="1"/>
        <pt x="251" y="1577" on="0"/>
        <pt x="251" y="1624" on="1"/>
        <pt x="251" y="1673" on="0"/>
        <pt x="185" y="1690" on="1"/>
        <pt x="128" y="1704" on="0"/>
        <pt x="-13" y="1704" on="1"/>
        <pt x="-155" y="1704" on="0"/>
        <pt x="-212" y="1690" on="1"/>
        <pt x="-278" y="1673" on="0"/>
        <pt x="-278" y="1624" on="1"/>
        <pt x="-278" y="1574" on="0"/>
        <pt x="-145" y="1530" on="1"/>
        <pt x="-205" y="1450" on="1"/>
        <pt x="-211" y="1451" on="0"/>
        <pt x="-219" y="1451" on="1"/>
        <pt x="-273" y="1472" on="0"/>
        <pt x="-347" y="1507" on="0"/>
        <pt x="-420" y="1558" on="0"/>
        <pt x="-444" y="1594" on="0"/>
        <pt x="-450" y="1628" on="1"/>
        <pt x="-450" y="1667" on="0"/>
        <pt x="-343" y="1760" on="0"/>
        <pt x="-251" y="1779" on="1"/>
        <pt x="-168" y="1795" on="0"/>
        <pt x="-13" y="1795" on="1"/>
        <pt x="141" y="1795" on="0"/>
        <pt x="224" y="1779" on="1"/>
        <pt x="316" y="1760" on="0"/>
        <pt x="423" y="1667" on="0"/>
        <pt x="423" y="1628" on="1"/>
        <pt x="417" y="1594" on="0"/>
        <pt x="405" y="1576" on="1"/>
        <pt x="397" y="1563" on="0"/>
        <pt x="376" y="1547" on="1"/>
        <pt x="530" y="1547" on="1"/>
        <pt x="530" y="1450" on="1"/>
        <pt x="118" y="1450" on="1"/>
      </contour>
    </TTGlyph>
    <TTGlyph name="#7" xMin="-451" yMin="1450" xMax="451" yMax="1797">
      <contour>
        <pt x="-1" y="1658" on="1"/>
        <pt x="24" y="1658" on="0"/>
        <pt x="68" y="1644" on="0"/>
        <pt x="93" y="1617" on="0"/>
        <pt x="93" y="1603" on="1"/>
        <pt x="93" y="1589" on="0"/>
        <pt x="69" y="1562" on="0"/>
        <pt x="25" y="1548" on="0"/>
        <pt x="-1" y="1548" on="1"/>
        <pt x="-25" y="1548" on="0"/>
        <pt x="-69" y="1562" on="0"/>
        <pt x="-94" y="1589" on="0"/>
        <pt x="-94" y="1603" on="1"/>
        <pt x="-94" y="1617" on="0"/>
        <pt x="-69" y="1644" on="0"/>
        <pt x="-24" y="1658" on="0"/>
      </contour>
      <contour>
        <pt x="0" y="1797" on="1"/>
        <pt x="160" y="1797" on="0"/>
        <pt x="344" y="1760" on="0"/>
        <pt x="451" y="1667" on="0"/>
        <pt x="451" y="1628" on="1"/>
        <pt x="445" y="1594" on="0"/>
        <pt x="421" y="1558" on="0"/>
        <pt x="348" y="1507" on="0"/>
        <pt x="274" y="1472" on="0"/>
        <pt x="220" y="1451" on="1"/>
        <pt x="212" y="1451" on="0"/>
        <pt x="206" y="1450" on="1"/>
        <pt x="146" y="1530" on="1"/>
        <pt x="279" y="1574" on="0"/>
        <pt x="279" y="1624" on="1"/>
        <pt x="279" y="1673" on="0"/>
        <pt x="213" y="1690" on="1"/>
        <pt x="153" y="1705" on="0"/>
        <pt x="0" y="1705" on="1"/>
        <pt x="-153" y="1705" on="0"/>
        <pt x="-213" y="1690" on="1"/>
        <pt x="-279" y="1673" on="0"/>
        <pt x="-279" y="1624" on="1"/>
        <pt x="-279" y="1574" on="0"/>
        <pt x="-146" y="1530" on="1"/>
        <pt x="-206" y="1450" on="1"/>
        <pt x="-212" y="1451" on="0"/>
        <pt x="-220" y="1451" on="1"/>
        <pt x="-274" y="1472" on="0"/>
        <pt x="-348" y="1507" on="0"/>
        <pt x="-421" y="1558" on="0"/>
        <pt x="-445" y="1594" on="0"/>
        <pt x="-451" y="1628" on="1"/>
        <pt x="-451" y="1667" on="0"/>
        <pt x="-344" y="1760" on="0"/>
        <pt x="-160" y="1797" on="0"/>
      </contour>
    </TTGlyph>
    <TTGlyph name="#8" xMin="-440" yMin="1450" xMax="540" yMax="1795">
      <contour>
        <pt x="0" y="1658" on="1"/>
        <pt x="21" y="1658" on="0"/>
        <pt x="60" y="1644" on="0"/>
        <pt x="83" y="1618" on="0"/>
        <pt x="83" y="1605" on="1"/>
        <pt x="83" y="1592" on="0"/>
        <pt x="61" y="1565" on="0"/>
        <pt x="22" y="1551" on="0"/>
        <pt x="0" y="1551" on="1"/>
        <pt x="-22" y="1551" on="0"/>
        <pt x="-61" y="1565" on="0"/>
        <pt x="-83" y="1592" on="0"/>
        <pt x="-83" y="1605" on="1"/>
        <pt x="-83" y="1618" on="0"/>
        <pt x="-61" y="1644" on="0"/>
        <pt x="-21" y="1658" on="0"/>
      </contour>
      <contour>
        <pt x="128" y="1532" on="1"/>
        <pt x="131" y="1534" on="0"/>
        <pt x="145" y="1536" on="1"/>
        <pt x="261" y="1577" on="0"/>
        <pt x="261" y="1624" on="1"/>
        <pt x="261" y="1673" on="0"/>
        <pt x="195" y="1690" on="1"/>
        <pt x="138" y="1704" on="0"/>
        <pt x="-3" y="1704" on="1"/>
        <pt x="-145" y="1704" on="0"/>
        <pt x="-202" y="1690" on="1"/>
        <pt x="-268" y="1673" on="0"/>
        <pt x="-268" y="1624" on="1"/>
        <pt x="-268" y="1574" on="0"/>
        <pt x="-135" y="1530" on="1"/>
        <pt x="-195" y="1450" on="1"/>
        <pt x="-201" y="1451" on="0"/>
        <pt x="-209" y="1451" on="1"/>
        <pt x="-263" y="1472" on="0"/>
        <pt x="-337" y="1507" on="0"/>
        <pt x="-410" y="1558" on="0"/>
        <pt x="-434" y="1594" on="0"/>
        <pt x="-440" y="1628" on="1"/>
        <pt x="-440" y="1667" on="0"/>
        <pt x="-333" y="1760" on="0"/>
        <pt x="-241" y="1779" on="1"/>
        <pt x="-158" y="1795" on="0"/>
        <pt x="-3" y="1795" on="1"/>
        <pt x="151" y="1795" on="0"/>
        <pt x="234" y="1779" on="1"/>
        <pt x="326" y="1760" on="0"/>
        <pt x="433" y="1667" on="0"/>
        <pt x="433" y="1628" on="1"/>
        <pt x="427" y="1594" on="0"/>
        <pt x="415" y="1576" on="1"/>
        <pt x="407" y="1563" on="0"/>
        <pt x="386" y="1547" on="1"/>
        <pt x="540" y="1547" on="1"/>
        <pt x="540" y="1450" on="1"/>
        <pt x="128" y="1450" on="1"/>
      </contour>
    </TTGlyph>
    <TTGlyph name="#9" xMin="-419" yMin="1450" xMax="420" yMax="1763">
      <contour>
        <pt x="-419" y="1629" on="1"/>
        <pt x="-419" y="1664" on="0"/>
        <pt x="-376" y="1728" on="0"/>
        <pt x="-301" y="1763" on="0"/>
        <pt x="-261" y="1763" on="1"/>
        <pt x="-221" y="1763" on="0"/>
        <pt x="-136" y="1728" on="0"/>
        <pt x="-94" y="1664" on="0"/>
        <pt x="-94" y="1629" on="1"/>
        <pt x="-94" y="1594" on="0"/>
        <pt x="-114" y="1572" on="1"/>
        <pt x="-115" y="1570" on="0"/>
        <pt x="-115" y="1569" on="1"/>
        <pt x="-81" y="1526" on="0"/>
        <pt x="-25" y="1526" on="1"/>
        <pt x="222" y="1526" on="0"/>
        <pt x="243" y="1754" on="1"/>
        <pt x="420" y="1754" on="1"/>
        <pt x="337" y="1450" on="0"/>
        <pt x="-25" y="1450" on="1"/>
        <pt x="-419" y="1450" on="0"/>
      </contour>
      <contour>
        <pt x="-277" y="1685" on="0"/>
        <pt x="-308" y="1670" on="0"/>
        <pt x="-326" y="1643" on="0"/>
        <pt x="-326" y="1629" on="1"/>
        <pt x="-326" y="1615" on="0"/>
        <pt x="-308" y="1588" on="0"/>
        <pt x="-277" y="1573" on="0"/>
        <pt x="-261" y="1573" on="1"/>
        <pt x="-243" y="1573" on="0"/>
        <pt x="-212" y="1588" on="0"/>
        <pt x="-195" y="1615" on="0"/>
        <pt x="-195" y="1629" on="1"/>
        <pt x="-195" y="1643" on="0"/>
        <pt x="-212" y="1670" on="0"/>
        <pt x="-243" y="1685" on="0"/>
        <pt x="-261" y="1685" on="1"/>
      </contour>
    </TTGlyph>
    <TTGlyph name="ampersand" xMin="117" yMin="981" xMax="334" yMax="1462">
      <contour>
        <pt x="117" y="1462" on="1"/>
        <pt x="334" y="1462" on="1"/>
        <pt x="272" y="981" on="1"/>
        <pt x="178" y="981" on="1"/>
      </contour>
    </TTGlyph>
    <TTGlyph name="asterisk" xMin="133" yMin="293" xMax="1012" yMax="1171">
      <contour>
        <pt x="633" y="672" on="1"/>
        <pt x="633" y="293" on="1"/>
        <pt x="510" y="293" on="1"/>
        <pt x="510" y="672" on="1"/>
        <pt x="133" y="672" on="1"/>
        <pt x="133" y="793" on="1"/>
        <pt x="510" y="793" on="1"/>
        <pt x="510" y="1171" on="1"/>
        <pt x="633" y="1171" on="1"/>
        <pt x="633" y="793" on="1"/>
        <pt x="1012" y="793" on="1"/>
        <pt x="1012" y="672" on="1"/>
      </contour>
    </TTGlyph>
    <TTGlyph name="at" xMin="133" yMin="-291" xMax="1778" yMax="1462">
      <contour>
        <pt x="1778" y="803" on="1"/>
        <pt x="1778" y="655" on="0"/>
        <pt x="1706" y="416" on="0"/>
        <pt x="1590" y="248" on="0"/>
        <pt x="1447" y="158" on="0"/>
        <pt x="1376" y="158" on="1"/>
        <pt x="1285" y="158" on="0"/>
        <pt x="1164" y="256" on="0"/>
        <pt x="1135" y="344" on="1"/>
        <pt x="1124" y="344" on="1"/>
        <pt x="1103" y="304" on="0"/>
        <pt x="1050" y="236" on="0"/>
        <pt x="983" y="186" on="0"/>
        <pt x="900" y="158" on="0"/>
        <pt x="848" y="158" on="1"/>
        <pt x="786" y="158" on="0"/>
        <pt x="673" y="200" on="0"/>
        <pt x="588" y="286" on="0"/>
        <pt x="537" y="418" on="0"/>
        <pt x="537" y="508" on="1"/>
        <pt x="537" y="563" on="0"/>
        <pt x="562" y="691" on="0"/>
        <pt x="615" y="818" on="0"/>
        <pt x="698" y="937" on="0"/>
        <pt x="814" y="1028" on="0"/>
        <pt x="965" y="1083" on="0"/>
        <pt x="1059" y="1083" on="1"/>
        <pt x="1125" y="1083" on="0"/>
        <pt x="1220" y="1047" on="0"/>
        <pt x="1251" y="1022" on="1"/>
        <pt x="1333" y="1065" on="1"/>
        <pt x="1382" y="1065" on="1"/>
        <pt x="1278" y="543" on="1"/>
        <pt x="1275" y="519" on="0"/>
        <pt x="1271" y="495" on="1"/>
        <pt x="1268" y="475" on="0"/>
        <pt x="1264" y="427" on="0"/>
        <pt x="1264" y="406" on="1"/>
        <pt x="1264" y="370" on="0"/>
        <pt x="1285" y="317" on="0"/>
        <pt x="1319" y="282" on="0"/>
        <pt x="1364" y="266" on="0"/>
        <pt x="1389" y="266" on="1"/>
        <pt x="1434" y="266" on="0"/>
        <pt x="1528" y="338" on="0"/>
        <pt x="1604" y="477" on="0"/>
        <pt x="1653" y="679" on="0"/>
        <pt x="1653" y="809" on="1"/>
        <pt x="1653" y="943" on="0"/>
        <pt x="1567" y="1148" on="0"/>
        <pt x="1414" y="1287" on="0"/>
        <pt x="1201" y="1358" on="0"/>
        <pt x="1073" y="1358" on="1"/>
        <pt x="973" y="1358" on="0"/>
        <pt x="780" y="1302" on="0"/>
        <pt x="608" y="1193" on="0"/>
        <pt x="461" y="1036" on="0"/>
        <pt x="355" y="835" on="0"/>
        <pt x="295" y="591" on="0"/>
        <pt x="295" y="451" on="1"/>
        <pt x="295" y="280" on="0"/>
        <pt x="393" y="39" on="0"/>
        <pt x="560" y="-114" on="0"/>
        <pt x="781" y="-184" on="0"/>
        <pt x="905" y="-184" on="1"/>
        <pt x="989" y="-184" on="0"/>
        <pt x="1139" y="-155" on="0"/>
        <pt x="1270" y="-107" on="0"/>
        <pt x="1381" y="-46" on="0"/>
        <pt x="1425" y="-14" on="1"/>
        <pt x="1473" y="-88" on="1"/>
        <pt x="1422" y="-126" on="0"/>
        <pt x="1296" y="-199" on="0"/>
        <pt x="1149" y="-256" on="0"/>
        <pt x="980" y="-291" on="0"/>
        <pt x="885" y="-291" on="1"/>
        <pt x="720" y="-291" on="0"/>
        <pt x="444" y="-200" on="0"/>
        <pt x="245" y="-16" on="0"/>
        <pt x="133" y="260" on="0"/>
        <pt x="133" y="446" on="1"/>
        <pt x="133" y="591" on="0"/>
        <pt x="196" y="854" on="0"/>
        <pt x="315" y="1080" on="0"/>
        <pt x="484" y="1263" on="0"/>
        <pt x="696" y="1392" on="0"/>
        <pt x="945" y="1462" on="0"/>
        <pt x="1085" y="1462" on="1"/>
        <pt x="1257" y="1462" on="0"/>
        <pt x="1517" y="1360" on="0"/>
        <pt x="1691" y="1183" on="0"/>
        <pt x="1778" y="942" on="0"/>
      </contour>
      <contour>
        <pt x="727" y="479" on="1"/>
        <pt x="727" y="371" on="0"/>
        <pt x="814" y="266" on="0"/>
        <pt x="883" y="266" on="1"/>
        <pt x="935" y="266" on="0"/>
        <pt x="1011" y="311" on="0"/>
        <pt x="1063" y="383" on="0"/>
        <pt x="1095" y="475" on="0"/>
        <pt x="1104" y="522" on="1"/>
        <pt x="1182" y="938" on="1"/>
        <pt x="1169" y="967" on="0"/>
        <pt x="1104" y="999" on="0"/>
        <pt x="1067" y="999" on="1"/>
        <pt x="1006" y="999" on="0"/>
        <pt x="907" y="946" on="0"/>
        <pt x="832" y="860" on="0"/>
        <pt x="778" y="749" on="0"/>
        <pt x="743" y="633" on="0"/>
        <pt x="727" y="523" on="0"/>
      </contour>
    </TTGlyph>
    <TTGlyph name="colon" xMin="61" yMin="-315" xMax="397" yMax="1108">
      <contour>
        <pt x="397" y="86" on="1"/>
        <pt x="397" y="21" on="0"/>
        <pt x="361" y="-101" on="0"/>
        <pt x="280" y="-205" on="0"/>
        <pt x="153" y="-288" on="0"/>
        <pt x="61" y="-315" on="1"/>
        <pt x="61" y="-229" on="1"/>
        <pt x="162" y="-197" on="0"/>
        <pt x="256" y="-105" on="0"/>
        <pt x="256" y="-45" on="1"/>
        <pt x="256" y="-25" on="0"/>
        <pt x="234" y="2" on="0"/>
        <pt x="200" y="23" on="0"/>
        <pt x="162" y="43" on="0"/>
        <pt x="128" y="71" on="0"/>
        <pt x="106" y="112" on="0"/>
        <pt x="106" y="143" on="1"/>
        <pt x="106" y="202" on="0"/>
        <pt x="183" y="264" on="0"/>
        <pt x="240" y="264" on="1"/>
        <pt x="272" y="264" on="0"/>
        <pt x="328" y="241" on="0"/>
        <pt x="372" y="196" on="0"/>
        <pt x="397" y="129" on="0"/>
      </contour>
      <contour>
        <pt x="129" y="969" on="1"/>
        <pt x="129" y="1009" on="0"/>
        <pt x="149" y="1062" on="0"/>
        <pt x="184" y="1094" on="0"/>
        <pt x="231" y="1108" on="0"/>
        <pt x="258" y="1108" on="1"/>
        <pt x="284" y="1108" on="0"/>
        <pt x="331" y="1094" on="0"/>
        <pt x="366" y="1062" on="0"/>
        <pt x="387" y="1009" on="0"/>
        <pt x="387" y="969" on="1"/>
        <pt x="387" y="930" on="0"/>
        <pt x="366" y="876" on="0"/>
        <pt x="331" y="843" on="0"/>
        <pt x="284" y="829" on="0"/>
        <pt x="258" y="829" on="1"/>
        <pt x="231" y="829" on="0"/>
        <pt x="184" y="843" on="0"/>
        <pt x="149" y="876" on="0"/>
        <pt x="129" y="930" on="0"/>
      </contour>
    </TTGlyph>
    <TTGlyph name="comma" xMin="51" yMin="481" xMax="584" yMax="635">
      <contour>
        <pt x="51" y="481" on="1"/>
        <pt x="51" y="635" on="1"/>
        <pt x="584" y="635" on="1"/>
        <pt x="584" y="481" on="1"/>
      </contour>
    </TTGlyph>
    <TTGlyph name="dollar" xMin="92" yMin="-20" xMax="1743" yMax="1483">
      <contour>
        <pt x="764" y="1030" on="1"/>
        <pt x="764" y="927" on="0"/>
        <pt x="722" y="759" on="0"/>
        <pt x="638" y="639" on="0"/>
        <pt x="512" y="573" on="0"/>
        <pt x="428" y="573" on="1"/>
        <pt x="340" y="573" on="0"/>
        <pt x="213" y="639" on="0"/>
        <pt x="131" y="759" on="0"/>
        <pt x="92" y="927" on="0"/>
        <pt x="92" y="1030" on="1"/>
        <pt x="92" y="1133" on="0"/>
        <pt x="131" y="1300" on="0"/>
        <pt x="213" y="1419" on="0"/>
        <pt x="341" y="1483" on="0"/>
        <pt x="430" y="1483" on="1"/>
        <pt x="514" y="1483" on="0"/>
        <pt x="639" y="1419" on="0"/>
        <pt x="722" y="1300" on="0"/>
        <pt x="764" y="1133" on="0"/>
      </contour>
      <contour>
        <pt x="276" y="1030" on="1"/>
        <pt x="276" y="942" on="0"/>
        <pt x="292" y="803" on="0"/>
        <pt x="328" y="707" on="0"/>
        <pt x="386" y="657" on="0"/>
        <pt x="428" y="657" on="1"/>
        <pt x="470" y="657" on="0"/>
        <pt x="528" y="707" on="0"/>
        <pt x="563" y="803" on="0"/>
        <pt x="578" y="942" on="0"/>
        <pt x="578" y="1030" on="1"/>
        <pt x="578" y="1117" on="0"/>
        <pt x="563" y="1253" on="0"/>
        <pt x="528" y="1348" on="0"/>
        <pt x="472" y="1397" on="0"/>
        <pt x="430" y="1397" on="1"/>
        <pt x="388" y="1397" on="0"/>
        <pt x="329" y="1348" on="0"/>
        <pt x="292" y="1253" on="0"/>
        <pt x="276" y="1117" on="0"/>
      </contour>
      <contour>
        <pt x="1743" y="436" on="1"/>
        <pt x="1743" y="333" on="0"/>
        <pt x="1701" y="165" on="0"/>
        <pt x="1617" y="45" on="0"/>
        <pt x="1491" y="-20" on="0"/>
        <pt x="1407" y="-20" on="1"/>
        <pt x="1319" y="-20" on="0"/>
        <pt x="1191" y="45" on="0"/>
        <pt x="1110" y="165" on="0"/>
        <pt x="1071" y="333" on="0"/>
        <pt x="1071" y="436" on="1"/>
        <pt x="1071" y="539" on="0"/>
        <pt x="1110" y="706" on="0"/>
        <pt x="1192" y="825" on="0"/>
        <pt x="1320" y="889" on="0"/>
        <pt x="1409" y="889" on="1"/>
        <pt x="1493" y="889" on="0"/>
        <pt x="1618" y="825" on="0"/>
        <pt x="1701" y="706" on="0"/>
        <pt x="1743" y="539" on="0"/>
      </contour>
      <contour>
        <pt x="1255" y="436" on="1"/>
        <pt x="1255" y="348" on="0"/>
        <pt x="1271" y="209" on="0"/>
        <pt x="1307" y="113" on="0"/>
        <pt x="1365" y="63" on="0"/>
        <pt x="1407" y="63" on="1"/>
        <pt x="1449" y="63" on="0"/>
        <pt x="1507" y="113" on="0"/>
        <pt x="1541" y="209" on="0"/>
        <pt x="1556" y="348" on="0"/>
        <pt x="1556" y="436" on="1"/>
        <pt x="1556" y="523" on="0"/>
        <pt x="1541" y="659" on="0"/>
        <pt x="1507" y="754" on="0"/>
        <pt x="1451" y="803" on="0"/>
        <pt x="1409" y="803" on="1"/>
        <pt x="1367" y="803" on="0"/>
        <pt x="1308" y="754" on="0"/>
        <pt x="1271" y="659" on="0"/>
        <pt x="1255" y="523" on="0"/>
      </contour>
      <contour>
        <pt x="616" y="0" on="1"/>
        <pt x="481" y="0" on="1"/>
        <pt x="1212" y="1462" on="1"/>
        <pt x="1346" y="1462" on="1"/>
      </contour>
    </TTGlyph>
    <TTGlyph name="eight" xMin="104" yMin="-23" xMax="1020" yMax="1483">
      <contour>
        <pt x="467" y="90" on="1"/>
        <pt x="637" y="90" on="0"/>
        <pt x="799" y="394" on="0"/>
        <pt x="809" y="702" on="1"/>
        <pt x="787" y="675" on="0"/>
        <pt x="728" y="625" on="0"/>
        <pt x="653" y="586" on="0"/>
        <pt x="562" y="563" on="0"/>
        <pt x="508" y="563" on="1"/>
        <pt x="419" y="563" on="0"/>
        <pt x="270" y="615" on="0"/>
        <pt x="163" y="719" on="0"/>
        <pt x="104" y="875" on="0"/>
        <pt x="104" y="979" on="1"/>
        <pt x="104" y="1090" on="0"/>
        <pt x="164" y="1275" on="0"/>
        <pt x="277" y="1408" on="0"/>
        <pt x="440" y="1483" on="0"/>
        <pt x="543" y="1483" on="1"/>
        <pt x="647" y="1483" on="0"/>
        <pt x="821" y="1403" on="0"/>
        <pt x="949" y="1235" on="0"/>
        <pt x="1020" y="975" on="0"/>
        <pt x="1020" y="795" on="1"/>
        <pt x="1020" y="688" on="0"/>
        <pt x="993" y="483" on="0"/>
        <pt x="936" y="301" on="0"/>
        <pt x="847" y="149" on="0"/>
        <pt x="724" y="38" on="0"/>
        <pt x="564" y="-23" on="0"/>
        <pt x="465" y="-23" on="1"/>
        <pt x="378" y="-23" on="0"/>
        <pt x="263" y="8" on="0"/>
        <pt x="196" y="58" on="0"/>
        <pt x="168" y="122" on="0"/>
        <pt x="168" y="154" on="1"/>
        <pt x="168" y="192" on="0"/>
        <pt x="206" y="244" on="0"/>
        <pt x="229" y="252" on="1"/>
        <pt x="243" y="220" on="0"/>
        <pt x="284" y="161" on="0"/>
        <pt x="343" y="116" on="0"/>
        <pt x="419" y="90" on="0"/>
      </contour>
      <contour>
        <pt x="553" y="684" on="1"/>
        <pt x="603" y="685" on="0"/>
        <pt x="686" y="712" on="0"/>
        <pt x="750" y="757" on="0"/>
        <pt x="797" y="817" on="0"/>
        <pt x="811" y="850" on="1"/>
        <pt x="811" y="854" on="1"/>
        <pt x="809" y="989" on="0"/>
        <pt x="769" y="1184" on="0"/>
        <pt x="699" y="1310" on="0"/>
        <pt x="602" y="1370" on="0"/>
        <pt x="543" y="1370" on="1"/>
        <pt x="434" y="1370" on="0"/>
        <pt x="315" y="1180" on="0"/>
        <pt x="315" y="999" on="1"/>
        <pt x="315" y="915" on="0"/>
        <pt x="345" y="795" on="0"/>
        <pt x="405" y="719" on="0"/>
        <pt x="494" y="684" on="0"/>
      </contour>
    </TTGlyph>
    <TTGlyph name="equal" xMin="133" yMin="469" xMax="1012" yMax="993">
      <contour>
        <pt x="1012" y="590" on="1"/>
        <pt x="1012" y="469" on="1"/>
        <pt x="133" y="469" on="1"/>
        <pt x="133" y="590" on="1"/>
      </contour>
      <contour>
        <pt x="1012" y="993" on="1"/>
        <pt x="1012" y="872" on="1"/>
        <pt x="133" y="872" on="1"/>
        <pt x="133" y="993" on="1"/>
      </contour>
    </TTGlyph>
    <TTGlyph name="exclam" xMin="117" yMin="981" xMax="719" yMax="1462">
      <contour>
        <pt x="502" y="1462" on="1"/>
        <pt x="719" y="1462" on="1"/>
        <pt x="657" y="981" on="1"/>
        <pt x="563" y="981" on="1"/>
      </contour>
      <contour>
        <pt x="117" y="1462" on="1"/>
        <pt x="334" y="1462" on="1"/>
        <pt x="272" y="981" on="1"/>
        <pt x="178" y="981" on="1"/>
      </contour>
    </TTGlyph>
    <TTGlyph name="five" xMin="125" yMin="-20" xMax="1040" yMax="1483">
      <contour>
        <pt x="659" y="1384" on="1"/>
        <pt x="505" y="1384" on="0"/>
        <pt x="347" y="1081" on="0"/>
        <pt x="336" y="782" on="1"/>
        <pt x="361" y="803" on="0"/>
        <pt x="422" y="842" on="0"/>
        <pt x="494" y="871" on="0"/>
        <pt x="579" y="889" on="0"/>
        <pt x="629" y="889" on="1"/>
        <pt x="723" y="889" on="0"/>
        <pt x="875" y="831" on="0"/>
        <pt x="982" y="723" on="0"/>
        <pt x="1040" y="567" on="0"/>
        <pt x="1040" y="469" on="1"/>
        <pt x="1040" y="361" on="0"/>
        <pt x="981" y="181" on="0"/>
        <pt x="868" y="52" on="0"/>
        <pt x="705" y="-20" on="0"/>
        <pt x="600" y="-20" on="1"/>
        <pt x="498" y="-20" on="0"/>
        <pt x="324" y="65" on="0"/>
        <pt x="197" y="248" on="0"/>
        <pt x="125" y="535" on="0"/>
        <pt x="125" y="737" on="1"/>
        <pt x="125" y="834" on="0"/>
        <pt x="154" y="1020" on="0"/>
        <pt x="212" y="1186" on="0"/>
        <pt x="300" y="1326" on="0"/>
        <pt x="419" y="1427" on="0"/>
        <pt x="569" y="1483" on="0"/>
        <pt x="659" y="1483" on="1"/>
        <pt x="745" y="1483" on="0"/>
        <pt x="872" y="1447" on="0"/>
        <pt x="956" y="1387" on="0"/>
        <pt x="997" y="1309" on="0"/>
        <pt x="997" y="1268" on="1"/>
        <pt x="997" y="1209" on="0"/>
        <pt x="917" y="1145" on="0"/>
        <pt x="840" y="1145" on="1"/>
        <pt x="840" y="1195" on="0"/>
        <pt x="821" y="1282" on="0"/>
        <pt x="777" y="1347" on="0"/>
        <pt x="709" y="1384" on="0"/>
      </contour>
      <contour>
        <pt x="588" y="784" on="1"/>
        <pt x="548" y="784" on="0"/>
        <pt x="474" y="763" on="0"/>
        <pt x="409" y="730" on="0"/>
        <pt x="355" y="687" on="0"/>
        <pt x="334" y="666" on="1"/>
        <pt x="336" y="512" on="0"/>
        <pt x="375" y="294" on="0"/>
        <pt x="445" y="156" on="0"/>
        <pt x="545" y="92" on="0"/>
        <pt x="606" y="92" on="1"/>
        <pt x="716" y="92" on="0"/>
        <pt x="831" y="263" on="0"/>
        <pt x="831" y="449" on="1"/>
        <pt x="831" y="624" on="0"/>
        <pt x="706" y="784" on="0"/>
      </contour>
    </TTGlyph>
    <TTGlyph name="four" xMin="113" yMin="-20" xMax="995" yMax="1460">
      <contour>
        <pt x="489" y="100" on="1"/>
        <pt x="552" y="100" on="0"/>
        <pt x="659" y="135" on="0"/>
        <pt x="738" y="216" on="0"/>
        <pt x="782" y="349" on="0"/>
        <pt x="782" y="446" on="1"/>
        <pt x="782" y="527" on="0"/>
        <pt x="738" y="647" on="0"/>
        <pt x="656" y="727" on="0"/>
        <pt x="542" y="766" on="0"/>
        <pt x="471" y="766" on="1"/>
        <pt x="418" y="766" on="0"/>
        <pt x="341" y="758" on="0"/>
        <pt x="282" y="745" on="0"/>
        <pt x="238" y="729" on="0"/>
        <pt x="219" y="721" on="1"/>
        <pt x="170" y="735" on="1"/>
        <pt x="236" y="1460" on="1"/>
        <pt x="920" y="1460" on="1"/>
        <pt x="930" y="1151" on="1"/>
        <pt x="844" y="1151" on="1"/>
        <pt x="836" y="1212" on="1"/>
        <pt x="833" y="1234" on="0"/>
        <pt x="822" y="1265" on="0"/>
        <pt x="798" y="1286" on="0"/>
        <pt x="757" y="1296" on="0"/>
        <pt x="725" y="1296" on="1"/>
        <pt x="328" y="1296" on="1"/>
        <pt x="289" y="846" on="1"/>
        <pt x="320" y="857" on="0"/>
        <pt x="437" y="879" on="0"/>
        <pt x="528" y="879" on="1"/>
        <pt x="627" y="879" on="0"/>
        <pt x="798" y="825" on="0"/>
        <pt x="924" y="717" on="0"/>
        <pt x="995" y="554" on="0"/>
        <pt x="995" y="446" on="1"/>
        <pt x="995" y="342" on="0"/>
        <pt x="928" y="170" on="0"/>
        <pt x="801" y="47" on="0"/>
        <pt x="617" y="-20" on="0"/>
        <pt x="500" y="-20" on="1"/>
        <pt x="386" y="-20" on="0"/>
        <pt x="237" y="19" on="0"/>
        <pt x="149" y="79" on="0"/>
        <pt x="113" y="152" on="0"/>
        <pt x="113" y="186" on="1"/>
        <pt x="113" y="243" on="0"/>
        <pt x="176" y="307" on="0"/>
        <pt x="242" y="307" on="1"/>
        <pt x="242" y="263" on="0"/>
        <pt x="273" y="187" on="0"/>
        <pt x="334" y="132" on="0"/>
        <pt x="427" y="100" on="0"/>
      </contour>
    </TTGlyph>
    <TTGlyph name="greater" xMin="133" yMin="225" xMax="1012" yMax="1241">
      <contour>
        <pt x="133" y="225" on="1"/>
        <pt x="133" y="362" on="1"/>
        <pt x="821" y="731" on="1"/>
        <pt x="133" y="1104" on="1"/>
        <pt x="133" y="1241" on="1"/>
        <pt x="1012" y="768" on="1"/>
        <pt x="1012" y="696" on="1"/>
      </contour>
    </TTGlyph>
    <TTGlyph name="hyphen" xMin="164" yMin="-14" xMax="422" yMax="264">
      <contour>
        <pt x="164" y="125" on="1"/>
        <pt x="164" y="165" on="0"/>
        <pt x="184" y="218" on="0"/>
        <pt x="219" y="250" on="0"/>
        <pt x="266" y="264" on="0"/>
        <pt x="293" y="264" on="1"/>
        <pt x="319" y="264" on="0"/>
        <pt x="366" y="250" on="0"/>
        <pt x="401" y="218" on="0"/>
        <pt x="422" y="165" on="0"/>
        <pt x="422" y="125" on="1"/>
        <pt x="422" y="86" on="0"/>
        <pt x="401" y="32" on="0"/>
        <pt x="366" y="0" on="0"/>
        <pt x="319" y="-14" on="0"/>
        <pt x="293" y="-14" on="1"/>
        <pt x="266" y="-14" on="0"/>
        <pt x="219" y="0" on="0"/>
        <pt x="184" y="32" on="0"/>
        <pt x="164" y="86" on="0"/>
      </contour>
    </TTGlyph>
    <TTGlyph name="less" xMin="133" yMin="225" xMax="1012" yMax="1241">
      <contour>
        <pt x="133" y="696" on="1"/>
        <pt x="133" y="768" on="1"/>
        <pt x="1012" y="1241" on="1"/>
        <pt x="1012" y="1104" on="1"/>
        <pt x="324" y="731" on="1"/>
        <pt x="1012" y="362" on="1"/>
        <pt x="1012" y="225" on="1"/>
      </contour>
    </TTGlyph>
    <TTGlyph name="nine" xMin="166" yMin="-14" xMax="424" yMax="1108">
      <contour>
        <pt x="166" y="125" on="1"/>
        <pt x="166" y="165" on="0"/>
        <pt x="186" y="218" on="0"/>
        <pt x="221" y="250" on="0"/>
        <pt x="268" y="264" on="0"/>
        <pt x="295" y="264" on="1"/>
        <pt x="321" y="264" on="0"/>
        <pt x="368" y="250" on="0"/>
        <pt x="403" y="218" on="0"/>
        <pt x="424" y="165" on="0"/>
        <pt x="424" y="125" on="1"/>
        <pt x="424" y="86" on="0"/>
        <pt x="403" y="32" on="0"/>
        <pt x="368" y="0" on="0"/>
        <pt x="321" y="-14" on="0"/>
        <pt x="295" y="-14" on="1"/>
        <pt x="268" y="-14" on="0"/>
        <pt x="221" y="0" on="0"/>
        <pt x="186" y="32" on="0"/>
        <pt x="166" y="86" on="0"/>
      </contour>
      <contour>
        <pt x="166" y="969" on="1"/>
        <pt x="166" y="1009" on="0"/>
        <pt x="186" y="1062" on="0"/>
        <pt x="221" y="1094" on="0"/>
        <pt x="268" y="1108" on="0"/>
        <pt x="295" y="1108" on="1"/>
        <pt x="321" y="1108" on="0"/>
        <pt x="368" y="1094" on="0"/>
        <pt x="403" y="1062" on="0"/>
        <pt x="424" y="1009" on="0"/>
        <pt x="424" y="969" on="1"/>
        <pt x="424" y="930" on="0"/>
        <pt x="403" y="876" on="0"/>
        <pt x="368" y="843" on="0"/>
        <pt x="321" y="829" on="0"/>
        <pt x="295" y="829" on="1"/>
        <pt x="268" y="829" on="0"/>
        <pt x="221" y="843" on="0"/>
        <pt x="186" y="876" on="0"/>
        <pt x="166" y="930" on="0"/>
      </contour>
    </TTGlyph>
    <TTGlyph name="numbersign" xMin="135" yMin="-162" xMax="1001" yMax="1556">
      <contour>
        <pt x="621" y="1401" on="1"/>
        <pt x="713" y="1399" on="0"/>
        <pt x="842" y="1362" on="0"/>
        <pt x="924" y="1301" on="0"/>
        <pt x="961" y="1219" on="0"/>
        <pt x="961" y="1171" on="1"/>
        <pt x="961" y="1105" on="0"/>
        <pt x="873" y="1038" on="0"/>
        <pt x="799" y="1038" on="1"/>
        <pt x="799" y="1083" on="0"/>
        <pt x="784" y="1174" on="0"/>
        <pt x="745" y="1249" on="0"/>
        <pt x="675" y="1301" on="0"/>
        <pt x="621" y="1307" on="1"/>
        <pt x="621" y="829" on="1"/>
        <pt x="713" y="789" on="0"/>
        <pt x="855" y="709" on="0"/>
        <pt x="951" y="616" on="0"/>
        <pt x="1001" y="503" on="0"/>
        <pt x="1001" y="430" on="1"/>
        <pt x="1001" y="276" on="0"/>
        <pt x="803" y="105" on="0"/>
        <pt x="621" y="86" on="1"/>
        <pt x="621" y="-162" on="1"/>
        <pt x="518" y="-162" on="1"/>
        <pt x="518" y="82" on="1"/>
        <pt x="467" y="82" on="0"/>
        <pt x="363" y="91" on="0"/>
        <pt x="264" y="112" on="0"/>
        <pt x="173" y="144" on="0"/>
        <pt x="135" y="166" on="1"/>
        <pt x="135" y="481" on="1"/>
        <pt x="221" y="481" on="1"/>
        <pt x="221" y="424" on="0"/>
        <pt x="264" y="317" on="0"/>
        <pt x="343" y="232" on="0"/>
        <pt x="452" y="177" on="0"/>
        <pt x="518" y="172" on="1"/>
        <pt x="518" y="678" on="1"/>
        <pt x="422" y="721" on="0"/>
        <pt x="289" y="805" on="0"/>
        <pt x="207" y="898" on="0"/>
        <pt x="170" y="1006" on="0"/>
        <pt x="170" y="1073" on="1"/>
        <pt x="170" y="1142" on="0"/>
        <pt x="219" y="1254" on="0"/>
        <pt x="309" y="1337" on="0"/>
        <pt x="438" y="1388" on="0"/>
        <pt x="518" y="1397" on="1"/>
        <pt x="518" y="1556" on="1"/>
        <pt x="621" y="1556" on="1"/>
      </contour>
      <contour>
        <pt x="813" y="399" on="1"/>
        <pt x="813" y="440" on="0"/>
        <pt x="793" y="505" on="0"/>
        <pt x="747" y="561" on="0"/>
        <pt x="674" y="609" on="0"/>
        <pt x="621" y="633" on="1"/>
        <pt x="621" y="178" on="1"/>
        <pt x="713" y="194" on="0"/>
        <pt x="813" y="311" on="0"/>
      </contour>
      <contour>
        <pt x="354" y="1090" on="1"/>
        <pt x="354" y="1047" on="0"/>
        <pt x="375" y="982" on="0"/>
        <pt x="417" y="932" on="0"/>
        <pt x="478" y="892" on="0"/>
        <pt x="518" y="874" on="1"/>
        <pt x="518" y="1303" on="1"/>
        <pt x="478" y="1294" on="0"/>
        <pt x="416" y="1255" on="0"/>
        <pt x="375" y="1200" on="0"/>
        <pt x="354" y="1130" on="0"/>
      </contour>
    </TTGlyph>
    <TTGlyph name="one" xMin="104" yMin="0" xMax="995" yMax="1483">
      <contour>
        <pt x="944" y="1141" on="1"/>
        <pt x="944" y="1069" on="0"/>
        <pt x="898" y="933" on="0"/>
        <pt x="810" y="790" on="0"/>
        <pt x="683" y="636" on="0"/>
        <pt x="602" y="547" on="1"/>
        <pt x="256" y="164" on="1"/>
        <pt x="729" y="164" on="1"/>
        <pt x="775" y="164" on="0"/>
        <pt x="835" y="190" on="0"/>
        <pt x="873" y="232" on="0"/>
        <pt x="894" y="287" on="0"/>
        <pt x="901" y="317" on="1"/>
        <pt x="909" y="354" on="1"/>
        <pt x="995" y="354" on="1"/>
        <pt x="985" y="0" on="1"/>
        <pt x="104" y="0" on="1"/>
        <pt x="104" y="150" on="1"/>
        <pt x="446" y="545" on="1"/>
        <pt x="528" y="640" on="0"/>
        <pt x="639" y="790" on="0"/>
        <pt x="707" y="923" on="0"/>
        <pt x="737" y="1050" on="0"/>
        <pt x="737" y="1120" on="1"/>
        <pt x="737" y="1179" on="0"/>
        <pt x="712" y="1274" on="0"/>
        <pt x="661" y="1343" on="0"/>
        <pt x="582" y="1380" on="0"/>
        <pt x="528" y="1380" on="1"/>
        <pt x="458" y="1380" on="0"/>
        <pt x="371" y="1330" on="0"/>
        <pt x="321" y="1246" on="0"/>
        <pt x="303" y="1136" on="0"/>
        <pt x="303" y="1075" on="1"/>
        <pt x="266" y="1075" on="0"/>
        <pt x="202" y="1087" on="0"/>
        <pt x="154" y="1118" on="0"/>
        <pt x="127" y="1169" on="0"/>
        <pt x="127" y="1208" on="1"/>
        <pt x="127" y="1267" on="0"/>
        <pt x="178" y="1368" on="0"/>
        <pt x="279" y="1442" on="0"/>
        <pt x="429" y="1483" on="0"/>
        <pt x="528" y="1483" on="1"/>
        <pt x="625" y="1483" on="0"/>
        <pt x="779" y="1434" on="0"/>
        <pt x="887" y="1345" on="0"/>
        <pt x="944" y="1219" on="0"/>
      </contour>
    </TTGlyph>
    <TTGlyph name="parenleft" xMin="66" yMin="-262" xMax="592" yMax="1556">
      <contour>
        <pt x="379" y="649" on="1"/>
        <pt x="379" y="771" on="0"/>
        <pt x="360" y="1009" on="0"/>
        <pt x="295" y="1221" on="0"/>
        <pt x="171" y="1400" on="0"/>
        <pt x="66" y="1464" on="1"/>
        <pt x="66" y="1556" on="1"/>
        <pt x="207" y="1500" on="0"/>
        <pt x="407" y="1341" on="0"/>
        <pt x="533" y="1121" on="0"/>
        <pt x="592" y="834" on="0"/>
        <pt x="592" y="649" on="1"/>
        <pt x="592" y="464" on="0"/>
        <pt x="533" y="175" on="0"/>
        <pt x="407" y="-46" on="0"/>
        <pt x="207" y="-206" on="0"/>
        <pt x="66" y="-262" on="1"/>
        <pt x="66" y="-168" on="1"/>
        <pt x="171" y="-104" on="0"/>
        <pt x="295" y="76" on="0"/>
        <pt x="360" y="289" on="0"/>
        <pt x="379" y="527" on="0"/>
      </contour>
    </TTGlyph>
    <TTGlyph name="parenright" xMin="84" yMin="774" xMax="928" yMax="1556">
      <contour>
        <pt x="84" y="1268" on="1"/>
        <pt x="156" y="1430" on="1"/>
        <pt x="471" y="1231" on="1"/>
        <pt x="418" y="1556" on="1"/>
        <pt x="596" y="1556" on="1"/>
        <pt x="539" y="1233" on="1"/>
        <pt x="856" y="1425" on="1"/>
        <pt x="928" y="1266" on="1"/>
        <pt x="582" y="1165" on="1"/>
        <pt x="928" y="1065" on="1"/>
        <pt x="856" y="907" on="1"/>
        <pt x="539" y="1098" on="1"/>
        <pt x="596" y="774" on="1"/>
        <pt x="418" y="774" on="1"/>
        <pt x="469" y="1098" on="1"/>
        <pt x="156" y="903" on="1"/>
        <pt x="84" y="1063" on="1"/>
        <pt x="428" y="1165" on="1"/>
      </contour>
    </TTGlyph>
    <TTGlyph name="percent" xMin="74" yMin="-20" xMax="1501" yMax="1483">
      <contour>
        <pt x="1174" y="0" on="1"/>
        <pt x="1004" y="180" on="1"/>
        <pt x="967" y="138" on="0"/>
        <pt x="878" y="65" on="0"/>
        <pt x="770" y="11" on="0"/>
        <pt x="639" y="-20" on="0"/>
        <pt x="561" y="-20" on="1"/>
        <pt x="438" y="-20" on="0"/>
        <pt x="255" y="42" on="0"/>
        <pt x="134" y="155" on="0"/>
        <pt x="74" y="313" on="0"/>
        <pt x="74" y="410" on="1"/>
        <pt x="74" y="497" on="0"/>
        <pt x="121" y="626" on="0"/>
        <pt x="206" y="724" on="0"/>
        <pt x="327" y="798" on="0"/>
        <pt x="401" y="829" on="1"/>
        <pt x="362" y="875" on="0"/>
        <pt x="303" y="960" on="0"/>
        <pt x="264" y="1044" on="0"/>
        <pt x="244" y="1132" on="0"/>
        <pt x="244" y="1182" on="1"/>
        <pt x="244" y="1250" on="0"/>
        <pt x="288" y="1360" on="0"/>
        <pt x="382" y="1440" on="0"/>
        <pt x="529" y="1483" on="0"/>
        <pt x="631" y="1483" on="1"/>
        <pt x="729" y="1483" on="0"/>
        <pt x="867" y="1437" on="0"/>
        <pt x="954" y="1357" on="0"/>
        <pt x="993" y="1251" on="0"/>
        <pt x="993" y="1192" on="1"/>
        <pt x="993" y="1126" on="0"/>
        <pt x="955" y="1024" on="0"/>
        <pt x="872" y="938" on="0"/>
        <pt x="741" y="861" on="0"/>
        <pt x="647" y="821" on="1"/>
        <pt x="1020" y="426" on="1"/>
        <pt x="1034" y="472" on="0"/>
        <pt x="1052" y="567" on="0"/>
        <pt x="1063" y="658" on="0"/>
        <pt x="1067" y="745" on="0"/>
        <pt x="1067" y="782" on="1"/>
        <pt x="1067" y="862" on="1"/>
        <pt x="1436" y="862" on="1"/>
        <pt x="1436" y="776" on="1"/>
        <pt x="1417" y="776" on="1"/>
        <pt x="1383" y="776" on="0"/>
        <pt x="1317" y="768" on="0"/>
        <pt x="1260" y="739" on="0"/>
        <pt x="1215" y="684" on="0"/>
        <pt x="1202" y="637" on="1"/>
        <pt x="1184" y="571" on="0"/>
        <pt x="1137" y="417" on="0"/>
        <pt x="1102" y="340" on="1"/>
        <pt x="1292" y="137" on="1"/>
        <pt x="1307" y="122" on="0"/>
        <pt x="1339" y="102" on="0"/>
        <pt x="1382" y="90" on="0"/>
        <pt x="1441" y="86" on="0"/>
        <pt x="1483" y="86" on="1"/>
        <pt x="1501" y="86" on="1"/>
        <pt x="1501" y="0" on="1"/>
      </contour>
      <contour>
        <pt x="580" y="94" on="1"/>
        <pt x="640" y="94" on="0"/>
        <pt x="743" y="119" on="0"/>
        <pt x="829" y="163" on="0"/>
        <pt x="901" y="224" on="0"/>
        <pt x="930" y="260" on="1"/>
        <pt x="477" y="745" on="1"/>
        <pt x="430" y="719" on="0"/>
        <pt x="355" y="656" on="0"/>
        <pt x="302" y="573" on="0"/>
        <pt x="274" y="469" on="0"/>
        <pt x="274" y="403" on="1"/>
        <pt x="274" y="328" on="0"/>
        <pt x="318" y="213" on="0"/>
        <pt x="399" y="134" on="0"/>
        <pt x="511" y="94" on="0"/>
      </contour>
      <contour>
        <pt x="813" y="1190" on="1"/>
        <pt x="813" y="1231" on="0"/>
        <pt x="793" y="1301" on="0"/>
        <pt x="748" y="1352" on="0"/>
        <pt x="675" y="1382" on="0"/>
        <pt x="623" y="1382" on="1"/>
        <pt x="532" y="1382" on="0"/>
        <pt x="434" y="1276" on="0"/>
        <pt x="434" y="1188" on="1"/>
        <pt x="434" y="1149" on="0"/>
        <pt x="450" y="1081" on="0"/>
        <pt x="485" y="1014" on="0"/>
        <pt x="539" y="942" on="0"/>
        <pt x="578" y="899" on="1"/>
        <pt x="638" y="925" on="0"/>
        <pt x="727" y="983" on="0"/>
        <pt x="785" y="1052" on="0"/>
        <pt x="813" y="1136" on="0"/>
      </contour>
    </TTGlyph>
    <TTGlyph name="period" xMin="0" yMin="-248" xMax="590" yMax="1556">
      <contour>
        <pt x="121" y="-248" on="1"/>
        <pt x="0" y="-248" on="1"/>
        <pt x="471" y="1556" on="1"/>
        <pt x="590" y="1556" on="1"/>
      </contour>
    </TTGlyph>
    <TTGlyph name="plus" xMin="61" yMin="-315" xMax="397" yMax="264">
      <contour>
        <pt x="397" y="86" on="1"/>
        <pt x="397" y="21" on="0"/>
        <pt x="361" y="-101" on="0"/>
        <pt x="280" y="-205" on="0"/>
        <pt x="153" y="-288" on="0"/>
        <pt x="61" y="-315" on="1"/>
        <pt x="61" y="-229" on="1"/>
        <pt x="162" y="-197" on="0"/>
        <pt x="256" y="-105" on="0"/>
        <pt x="256" y="-45" on="1"/>
        <pt x="256" y="-25" on="0"/>
        <pt x="234" y="2" on="0"/>
        <pt x="200" y="23" on="0"/>
        <pt x="162" y="43" on="0"/>
        <pt x="128" y="71" on="0"/>
        <pt x="106" y="112" on="0"/>
        <pt x="106" y="143" on="1"/>
        <pt x="106" y="202" on="0"/>
        <pt x="183" y="264" on="0"/>
        <pt x="240" y="264" on="1"/>
        <pt x="272" y="264" on="0"/>
        <pt x="328" y="241" on="0"/>
        <pt x="372" y="196" on="0"/>
        <pt x="397" y="129" on="0"/>
      </contour>
    </TTGlyph>
    <TTGlyph name="question" xMin="88" yMin="-14" xMax="920" yMax="1483">
      <contour>
        <pt x="522" y="412" on="1"/>
        <pt x="397" y="412" on="1"/>
        <pt x="397" y="723" on="1"/>
        <pt x="486" y="759" on="0"/>
        <pt x="607" y="854" on="0"/>
        <pt x="680" y="965" on="0"/>
        <pt x="711" y="1086" on="0"/>
        <pt x="711" y="1147" on="1"/>
        <pt x="711" y="1200" on="0"/>
        <pt x="685" y="1287" on="0"/>
        <pt x="631" y="1348" on="0"/>
        <pt x="546" y="1382" on="0"/>
        <pt x="487" y="1382" on="1"/>
        <pt x="423" y="1382" on="0"/>
        <pt x="336" y="1340" on="0"/>
        <pt x="282" y="1268" on="0"/>
        <pt x="258" y="1173" on="0"/>
        <pt x="258" y="1120" on="1"/>
        <pt x="221" y="1120" on="0"/>
        <pt x="159" y="1137" on="0"/>
        <pt x="114" y="1170" on="0"/>
        <pt x="88" y="1220" on="0"/>
        <pt x="88" y="1253" on="1"/>
        <pt x="88" y="1302" on="0"/>
        <pt x="133" y="1386" on="0"/>
        <pt x="228" y="1448" on="0"/>
        <pt x="372" y="1483" on="0"/>
        <pt x="471" y="1483" on="1"/>
        <pt x="568" y="1483" on="0"/>
        <pt x="732" y="1433" on="0"/>
        <pt x="852" y="1338" on="0"/>
        <pt x="920" y="1200" on="0"/>
        <pt x="920" y="1112" on="1"/>
        <pt x="920" y="1028" on="0"/>
        <pt x="867" y="890" on="0"/>
        <pt x="765" y="776" on="0"/>
        <pt x="617" y="682" on="0"/>
        <pt x="522" y="643" on="1"/>
      </contour>
      <contour>
        <pt x="328" y="125" on="1"/>
        <pt x="328" y="165" on="0"/>
        <pt x="348" y="218" on="0"/>
        <pt x="383" y="250" on="0"/>
        <pt x="430" y="264" on="0"/>
        <pt x="457" y="264" on="1"/>
        <pt x="483" y="264" on="0"/>
        <pt x="530" y="250" on="0"/>
        <pt x="565" y="218" on="0"/>
        <pt x="586" y="165" on="0"/>
        <pt x="586" y="125" on="1"/>
        <pt x="586" y="86" on="0"/>
        <pt x="565" y="32" on="0"/>
        <pt x="530" y="0" on="0"/>
        <pt x="483" y="-14" on="0"/>
        <pt x="457" y="-14" on="1"/>
        <pt x="430" y="-14" on="0"/>
        <pt x="383" y="0" on="0"/>
        <pt x="348" y="32" on="0"/>
        <pt x="328" y="86" on="0"/>
      </contour>
    </TTGlyph>
    <TTGlyph name="quotedbl" xMin="82" yMin="0" xMax="1063" yMax="1462">
      <contour>
        <pt x="397" y="537" on="1"/>
        <pt x="682" y="537" on="1"/>
        <pt x="758" y="938" on="1"/>
        <pt x="473" y="938" on="1"/>
      </contour>
      <contour>
        <pt x="1038" y="537" on="1"/>
        <pt x="1038" y="416" on="1"/>
        <pt x="780" y="416" on="1"/>
        <pt x="702" y="0" on="1"/>
        <pt x="580" y="0" on="1"/>
        <pt x="657" y="416" on="1"/>
        <pt x="373" y="416" on="1"/>
        <pt x="295" y="0" on="1"/>
        <pt x="172" y="0" on="1"/>
        <pt x="250" y="416" on="1"/>
        <pt x="82" y="416" on="1"/>
        <pt x="82" y="537" on="1"/>
        <pt x="272" y="537" on="1"/>
        <pt x="350" y="938" on="1"/>
        <pt x="106" y="938" on="1"/>
        <pt x="106" y="1059" on="1"/>
        <pt x="373" y="1059" on="1"/>
        <pt x="446" y="1462" on="1"/>
        <pt x="571" y="1462" on="1"/>
        <pt x="496" y="1059" on="1"/>
        <pt x="780" y="1059" on="1"/>
        <pt x="856" y="1462" on="1"/>
        <pt x="979" y="1462" on="1"/>
        <pt x="903" y="1059" on="1"/>
        <pt x="1063" y="1059" on="1"/>
        <pt x="1063" y="938" on="1"/>
        <pt x="881" y="938" on="1"/>
        <pt x="805" y="537" on="1"/>
      </contour>
    </TTGlyph>
    <TTGlyph name="quotesingle" xMin="117" yMin="-262" xMax="643" yMax="1556">
      <contour>
        <pt x="330" y="649" on="1"/>
        <pt x="330" y="527" on="0"/>
        <pt x="349" y="289" on="0"/>
        <pt x="413" y="76" on="0"/>
        <pt x="538" y="-104" on="0"/>
        <pt x="643" y="-168" on="1"/>
        <pt x="643" y="-262" on="1"/>
        <pt x="502" y="-206" on="0"/>
        <pt x="302" y="-46" on="0"/>
        <pt x="175" y="175" on="0"/>
        <pt x="117" y="464" on="0"/>
        <pt x="117" y="649" on="1"/>
        <pt x="117" y="834" on="0"/>
        <pt x="175" y="1121" on="0"/>
        <pt x="302" y="1341" on="0"/>
        <pt x="502" y="1500" on="0"/>
        <pt x="643" y="1556" on="1"/>
        <pt x="643" y="1464" on="1"/>
        <pt x="538" y="1400" on="0"/>
        <pt x="413" y="1221" on="0"/>
        <pt x="349" y="1009" on="0"/>
        <pt x="330" y="771" on="0"/>
      </contour>
    </TTGlyph>
    <TTGlyph name="seven" xMin="94" yMin="-20" xMax="1051" yMax="1483">
      <contour>
        <pt x="94" y="367" on="1"/>
        <pt x="94" y="441" on="0"/>
        <pt x="141" y="552" on="0"/>
        <pt x="225" y="639" on="0"/>
        <pt x="339" y="709" on="0"/>
        <pt x="406" y="741" on="1"/>
        <pt x="348" y="774" on="0"/>
        <pt x="250" y="851" on="0"/>
        <pt x="180" y="943" on="0"/>
        <pt x="141" y="1052" on="0"/>
        <pt x="141" y="1116" on="1"/>
        <pt x="141" y="1187" on="0"/>
        <pt x="191" y="1319" on="0"/>
        <pt x="297" y="1421" on="0"/>
        <pt x="466" y="1483" on="0"/>
        <pt x="584" y="1483" on="1"/>
        <pt x="680" y="1483" on="0"/>
        <pt x="830" y="1430" on="0"/>
        <pt x="933" y="1336" on="0"/>
        <pt x="987" y="1207" on="0"/>
        <pt x="987" y="1130" on="1"/>
        <pt x="987" y="1063" on="0"/>
        <pt x="947" y="961" on="0"/>
        <pt x="875" y="880" on="0"/>
        <pt x="773" y="815" on="0"/>
        <pt x="711" y="784" on="1"/>
        <pt x="787" y="748" on="0"/>
        <pt x="912" y="666" on="0"/>
        <pt x="1002" y="570" on="0"/>
        <pt x="1051" y="458" on="0"/>
        <pt x="1051" y="391" on="1"/>
        <pt x="1051" y="294" on="0"/>
        <pt x="981" y="141" on="0"/>
        <pt x="853" y="35" on="0"/>
        <pt x="671" y="-20" on="0"/>
        <pt x="559" y="-20" on="1"/>
        <pt x="444" y="-20" on="0"/>
        <pt x="270" y="40" on="0"/>
        <pt x="153" y="145" on="0"/>
        <pt x="94" y="286" on="0"/>
      </contour>
      <contour>
        <pt x="569" y="74" on="1"/>
        <pt x="636" y="74" on="0"/>
        <pt x="745" y="115" on="0"/>
        <pt x="822" y="187" on="0"/>
        <pt x="864" y="287" on="0"/>
        <pt x="864" y="346" on="1"/>
        <pt x="864" y="398" on="0"/>
        <pt x="826" y="487" on="0"/>
        <pt x="740" y="570" on="0"/>
        <pt x="603" y="649" on="0"/>
        <pt x="504" y="692" on="1"/>
        <pt x="407" y="640" on="0"/>
        <pt x="293" y="474" on="0"/>
        <pt x="293" y="358" on="1"/>
        <pt x="293" y="294" on="0"/>
        <pt x="328" y="190" on="0"/>
        <pt x="397" y="115" on="0"/>
        <pt x="501" y="74" on="0"/>
      </contour>
      <contour>
        <pt x="805" y="1135" on="1"/>
        <pt x="805" y="1182" on="0"/>
        <pt x="780" y="1272" on="0"/>
        <pt x="725" y="1343" on="0"/>
        <pt x="636" y="1386" on="0"/>
        <pt x="571" y="1386" on="1"/>
        <pt x="514" y="1386" on="0"/>
        <pt x="425" y="1349" on="0"/>
        <pt x="365" y="1284" on="0"/>
        <pt x="334" y="1194" on="0"/>
        <pt x="334" y="1141" on="1"/>
        <pt x="334" y="1086" on="0"/>
        <pt x="369" y="998" on="0"/>
        <pt x="438" y="926" on="0"/>
        <pt x="542" y="863" on="0"/>
        <pt x="610" y="831" on="1"/>
        <pt x="668" y="860" on="0"/>
        <pt x="743" y="921" on="0"/>
        <pt x="787" y="994" on="0"/>
        <pt x="805" y="1081" on="0"/>
      </contour>
    </TTGlyph>
    <TTGlyph name="six" xMin="121" yMin="0" xMax="1047" yMax="1460">
      <contour>
        <pt x="389" y="0" on="1"/>
        <pt x="872" y="1296" on="1"/>
        <pt x="334" y="1296" on="1"/>
        <pt x="224" y="1296" on="0"/>
        <pt x="215" y="1192" on="1"/>
        <pt x="207" y="1090" on="1"/>
        <pt x="121" y="1090" on="1"/>
        <pt x="131" y="1460" on="1"/>
        <pt x="1047" y="1460" on="1"/>
        <pt x="1047" y="1401" on="1"/>
        <pt x="543" y="0" on="1"/>
      </contour>
    </TTGlyph>
    <TTGlyph name="slash" xMin="92" yMin="-20" xMax="1053" yMax="1483">
      <contour>
        <pt x="1053" y="733" on="1"/>
        <pt x="1053" y="564" on="0"/>
        <pt x="994" y="286" on="0"/>
        <pt x="874" y="88" on="0"/>
        <pt x="694" y="-20" on="0"/>
        <pt x="573" y="-20" on="1"/>
        <pt x="447" y="-20" on="0"/>
        <pt x="265" y="88" on="0"/>
        <pt x="148" y="286" on="0"/>
        <pt x="92" y="565" on="0"/>
        <pt x="92" y="735" on="1"/>
        <pt x="92" y="905" on="0"/>
        <pt x="148" y="1181" on="0"/>
        <pt x="265" y="1377" on="0"/>
        <pt x="448" y="1483" on="0"/>
        <pt x="575" y="1483" on="1"/>
        <pt x="695" y="1483" on="0"/>
        <pt x="874" y="1377" on="0"/>
        <pt x="994" y="1181" on="0"/>
        <pt x="1053" y="904" on="0"/>
      </contour>
      <contour>
        <pt x="305" y="733" on="1"/>
        <pt x="305" y="581" on="0"/>
        <pt x="333" y="342" on="0"/>
        <pt x="396" y="177" on="0"/>
        <pt x="499" y="90" on="0"/>
        <pt x="573" y="90" on="1"/>
        <pt x="648" y="90" on="0"/>
        <pt x="750" y="177" on="0"/>
        <pt x="813" y="342" on="0"/>
        <pt x="840" y="581" on="0"/>
        <pt x="840" y="733" on="1"/>
        <pt x="840" y="885" on="0"/>
        <pt x="813" y="1123" on="0"/>
        <pt x="750" y="1287" on="0"/>
        <pt x="649" y="1372" on="0"/>
        <pt x="575" y="1372" on="1"/>
        <pt x="500" y="1372" on="0"/>
        <pt x="397" y="1287" on="0"/>
        <pt x="333" y="1123" on="0"/>
        <pt x="305" y="885" on="0"/>
      </contour>
    </TTGlyph>
    <TTGlyph name="space" xMin="211" yMin="-14" xMax="469" yMax="1462">
      <contour>
        <pt x="221" y="1462" on="1"/>
        <pt x="459" y="1462" on="1"/>
        <pt x="387" y="412" on="1"/>
        <pt x="293" y="412" on="1"/>
      </contour>
      <contour>
        <pt x="211" y="125" on="1"/>
        <pt x="211" y="165" on="0"/>
        <pt x="231" y="218" on="0"/>
        <pt x="266" y="250" on="0"/>
        <pt x="313" y="264" on="0"/>
        <pt x="340" y="264" on="1"/>
        <pt x="366" y="264" on="0"/>
        <pt x="413" y="250" on="0"/>
        <pt x="448" y="218" on="0"/>
        <pt x="469" y="165" on="0"/>
        <pt x="469" y="125" on="1"/>
        <pt x="469" y="86" on="0"/>
        <pt x="448" y="32" on="0"/>
        <pt x="413" y="0" on="0"/>
        <pt x="366" y="-14" on="0"/>
        <pt x="340" y="-14" on="1"/>
        <pt x="313" y="-14" on="0"/>
        <pt x="266" y="0" on="0"/>
        <pt x="231" y="32" on="0"/>
        <pt x="211" y="86" on="0"/>
      </contour>
    </TTGlyph>
    <TTGlyph name="three" xMin="35" yMin="0" xMax="1116" yMax="1462">
      <contour>
        <pt x="862" y="401" on="1"/>
        <pt x="862" y="233" on="1"/>
        <pt x="862" y="185" on="0"/>
        <pt x="889" y="127" on="0"/>
        <pt x="934" y="96" on="0"/>
        <pt x="996" y="86" on="0"/>
        <pt x="1030" y="86" on="1"/>
        <pt x="1057" y="86" on="1"/>
        <pt x="1057" y="0" on="1"/>
        <pt x="440" y="0" on="1"/>
        <pt x="440" y="86" on="1"/>
        <pt x="498" y="86" on="1"/>
        <pt x="533" y="86" on="0"/>
        <pt x="594" y="96" on="0"/>
        <pt x="639" y="127" on="0"/>
        <pt x="666" y="185" on="0"/>
        <pt x="666" y="233" on="1"/>
        <pt x="666" y="401" on="1"/>
        <pt x="35" y="401" on="1"/>
        <pt x="35" y="485" on="1"/>
        <pt x="668" y="1462" on="1"/>
        <pt x="862" y="1462" on="1"/>
        <pt x="862" y="516" on="1"/>
        <pt x="1116" y="516" on="1"/>
        <pt x="1116" y="401" on="1"/>
      </contour>
      <contour>
        <pt x="666" y="895" on="1"/>
        <pt x="666" y="940" on="0"/>
        <pt x="668" y="1048" on="0"/>
        <pt x="671" y="1160" on="0"/>
        <pt x="676" y="1271" on="0"/>
        <pt x="680" y="1319" on="1"/>
        <pt x="673" y="1305" on="0"/>
        <pt x="647" y="1258" on="0"/>
        <pt x="614" y="1200" on="0"/>
        <pt x="577" y="1136" on="0"/>
        <pt x="540" y="1075" on="0"/>
        <pt x="508" y="1022" on="0"/>
        <pt x="496" y="1004" on="1"/>
        <pt x="182" y="516" on="1"/>
        <pt x="666" y="516" on="1"/>
      </contour>
    </TTGlyph>
    <TTGlyph name="two" xMin="119" yMin="-20" xMax="1026" yMax="1483">
      <contour>
        <pt x="508" y="90" on="1"/>
        <pt x="569" y="90" on="0"/>
        <pt x="679" y="124" on="0"/>
        <pt x="763" y="202" on="0"/>
        <pt x="813" y="328" on="0"/>
        <pt x="813" y="420" on="1"/>
        <pt x="813" y="485" on="0"/>
        <pt x="762" y="590" on="0"/>
        <pt x="666" y="664" on="0"/>
        <pt x="528" y="705" on="0"/>
        <pt x="442" y="705" on="1"/>
        <pt x="377" y="705" on="1"/>
        <pt x="377" y="809" on="1"/>
        <pt x="442" y="809" on="1"/>
        <pt x="510" y="809" on="0"/>
        <pt x="627" y="854" on="0"/>
        <pt x="714" y="936" on="0"/>
        <pt x="764" y="1053" on="0"/>
        <pt x="764" y="1126" on="1"/>
        <pt x="764" y="1186" on="0"/>
        <pt x="740" y="1280" on="0"/>
        <pt x="687" y="1346" on="0"/>
        <pt x="604" y="1380" on="0"/>
        <pt x="545" y="1380" on="1"/>
        <pt x="475" y="1380" on="0"/>
        <pt x="387" y="1330" on="0"/>
        <pt x="337" y="1246" on="0"/>
        <pt x="319" y="1136" on="0"/>
        <pt x="319" y="1075" on="1"/>
        <pt x="282" y="1075" on="0"/>
        <pt x="218" y="1087" on="0"/>
        <pt x="170" y="1118" on="0"/>
        <pt x="143" y="1169" on="0"/>
        <pt x="143" y="1208" on="1"/>
        <pt x="143" y="1267" on="0"/>
        <pt x="194" y="1368" on="0"/>
        <pt x="296" y="1442" on="0"/>
        <pt x="446" y="1483" on="0"/>
        <pt x="545" y="1483" on="1"/>
        <pt x="642" y="1483" on="0"/>
        <pt x="800" y="1439" on="0"/>
        <pt x="913" y="1356" on="0"/>
        <pt x="975" y="1235" on="0"/>
        <pt x="975" y="1157" on="1"/>
        <pt x="975" y="1088" on="0"/>
        <pt x="926" y="966" on="0"/>
        <pt x="838" y="867" on="0"/>
        <pt x="718" y="797" on="0"/>
        <pt x="647" y="780" on="1"/>
        <pt x="685" y="776" on="0"/>
        <pt x="771" y="757" on="0"/>
        <pt x="855" y="721" on="0"/>
        <pt x="932" y="667" on="0"/>
        <pt x="991" y="589" on="0"/>
        <pt x="1026" y="486" on="0"/>
        <pt x="1026" y="418" on="1"/>
        <pt x="1026" y="336" on="0"/>
        <pt x="982" y="206" on="0"/>
        <pt x="905" y="109" on="0"/>
        <pt x="803" y="41" on="0"/>
        <pt x="687" y="-1" on="0"/>
        <pt x="565" y="-20" on="0"/>
        <pt x="506" y="-20" on="1"/>
        <pt x="405" y="-20" on="0"/>
        <pt x="259" y="17" on="0"/>
        <pt x="164" y="79" on="0"/>
        <pt x="119" y="162" on="0"/>
        <pt x="119" y="207" on="1"/>
        <pt x="119" y="269" on="0"/>
        <pt x="189" y="338" on="0"/>
        <pt x="248" y="338" on="1"/>
        <pt x="248" y="284" on="0"/>
        <pt x="283" y="193" on="0"/>
        <pt x="349" y="127" on="0"/>
        <pt x="446" y="90" on="0"/>
      </contour>
    </TTGlyph>
    <TTGlyph name="uni0E81" xMin="82" yMin="0" xMax="1278" yMax="1300">
      <contour>
        <pt x="198" y="191" on="1"/>
        <pt x="198" y="116" on="0"/>
        <pt x="273" y="116" on="1"/>
        <pt x="349" y="116" on="0"/>
        <pt x="349" y="191" on="1"/>
        <pt x="349" y="267" on="0"/>
        <pt x="273" y="267" on="1"/>
        <pt x="198" y="267" on="0"/>
      </contour>
      <contour>
        <pt x="340" y="1045" on="1"/>
        <pt x="340" y="1068" on="1"/>
        <pt x="340" y="1186" on="0"/>
        <pt x="268" y="1186" on="1"/>
        <pt x="198" y="1186" on="0"/>
        <pt x="198" y="1115" on="1"/>
        <pt x="198" y="1044" on="0"/>
        <pt x="311" y="1044" on="1"/>
        <pt x="326" y="1044" on="0"/>
      </contour>
      <contour>
        <pt x="394" y="0" on="0"/>
        <pt x="273" y="0" on="1"/>
        <pt x="171" y="0" on="0"/>
        <pt x="124" y="54" on="1"/>
        <pt x="82" y="102" on="0"/>
        <pt x="82" y="191" on="1"/>
        <pt x="82" y="281" on="0"/>
        <pt x="124" y="328" on="1"/>
        <pt x="172" y="382" on="0"/>
        <pt x="273" y="382" on="1"/>
        <pt x="310" y="382" on="0"/>
        <pt x="340" y="375" on="1"/>
        <pt x="340" y="930" on="1"/>
        <pt x="313" y="930" on="1"/>
        <pt x="189" y="930" on="0"/>
        <pt x="132" y="983" on="1"/>
        <pt x="82" y="1029" on="0"/>
        <pt x="82" y="1115" on="1"/>
        <pt x="82" y="1209" on="0"/>
        <pt x="131" y="1255" on="1"/>
        <pt x="179" y="1300" on="0"/>
        <pt x="273" y="1300" on="1"/>
        <pt x="475" y="1300" on="0"/>
        <pt x="517" y="1159" on="1"/>
        <pt x="628" y="1300" on="0"/>
        <pt x="846" y="1300" on="1"/>
        <pt x="1063" y="1300" on="0"/>
        <pt x="1278" y="1124" on="0"/>
        <pt x="1278" y="950" on="1"/>
        <pt x="1278" y="200" on="1"/>
        <pt x="1278" y="105" on="0"/>
        <pt x="1228" y="0" on="1"/>
        <pt x="1040" y="0" on="1"/>
        <pt x="1090" y="75" on="0"/>
        <pt x="1090" y="200" on="1"/>
        <pt x="1090" y="950" on="1"/>
        <pt x="1090" y="1039" on="0"/>
        <pt x="968" y="1190" on="0"/>
        <pt x="846" y="1190" on="1"/>
        <pt x="658" y="1190" on="0"/>
        <pt x="561" y="1033" on="1"/>
        <pt x="528" y="985" on="1"/>
        <pt x="528" y="260" on="1"/>
        <pt x="528" y="123" on="0"/>
        <pt x="457" y="58" on="1"/>
      </contour>
    </TTGlyph>
    <TTGlyph name="uni0E81.am" xMin="82" yMin="0" xMax="1278" yMax="1850">
      <contour>
        <pt x="198" y="191" on="1"/>
        <pt x="198" y="116" on="0"/>
        <pt x="273" y="116" on="1"/>
        <pt x="349" y="116" on="0"/>
        <pt x="349" y="191" on="1"/>
        <pt x="349" y="267" on="0"/>
        <pt x="273" y="267" on="1"/>
        <pt x="198" y="267" on="0"/>
      </contour>
      <contour>
        <pt x="340" y="1045" on="1"/>
        <pt x="340" y="1068" on="1"/>
        <pt x="340" y="1186" on="0"/>
        <pt x="268" y="1186" on="1"/>
        <pt x="198" y="1186" on="0"/>
        <pt x="198" y="1115" on="1"/>
        <pt x="198" y="1044" on="0"/>
        <pt x="311" y="1044" on="1"/>
        <pt x="326" y="1044" on="0"/>
      </contour>
      <contour>
        <pt x="394" y="0" on="0"/>
        <pt x="273" y="0" on="1"/>
        <pt x="171" y="0" on="0"/>
        <pt x="124" y="54" on="1"/>
        <pt x="82" y="102" on="0"/>
        <pt x="82" y="191" on="1"/>
        <pt x="82" y="281" on="0"/>
        <pt x="124" y="328" on="1"/>
        <pt x="172" y="382" on="0"/>
        <pt x="273" y="382" on="1"/>
        <pt x="310" y="382" on="0"/>
        <pt x="340" y="375" on="1"/>
        <pt x="340" y="930" on="1"/>
        <pt x="313" y="930" on="1"/>
        <pt x="189" y="930" on="0"/>
        <pt x="132" y="983" on="1"/>
        <pt x="82" y="1029" on="0"/>
        <pt x="82" y="1115" on="1"/>
        <pt x="82" y="1209" on="0"/>
        <pt x="131" y="1255" on="1"/>
        <pt x="179" y="1300" on="0"/>
        <pt x="273" y="1300" on="1"/>
        <pt x="475" y="1300" on="0"/>
        <pt x="517" y="1159" on="1"/>
        <pt x="628" y="1300" on="0"/>
        <pt x="846" y="1300" on="1"/>
        <pt x="1063" y="1300" on="0"/>
        <pt x="1278" y="1124" on="0"/>
        <pt x="1278" y="950" on="1"/>
        <pt x="1278" y="200" on="1"/>
        <pt x="1278" y="105" on="0"/>
        <pt x="1228" y="0" on="1"/>
        <pt x="1040" y="0" on="1"/>
        <pt x="1090" y="75" on="0"/>
        <pt x="1090" y="200" on="1"/>
        <pt x="1090" y="950" on="1"/>
        <pt x="1090" y="1039" on="0"/>
        <pt x="968" y="1190" on="0"/>
        <pt x="846" y="1190" on="1"/>
        <pt x="658" y="1190" on="0"/>
        <pt x="561" y="1033" on="1"/>
        <pt x="528" y="985" on="1"/>
        <pt x="528" y="260" on="1"/>
        <pt x="528" y="123" on="0"/>
        <pt x="457" y="58" on="1"/>
      </contour>
      <contour>
        <pt x="847" y="1730" on="0"/>
        <pt x="809" y="1709" on="0"/>
        <pt x="787" y="1671" on="0"/>
        <pt x="787" y="1650" on="1"/>
        <pt x="787" y="1629" on="0"/>
        <pt x="809" y="1591" on="0"/>
        <pt x="847" y="1570" on="0"/>
        <pt x="867" y="1570" on="1"/>
        <pt x="888" y="1570" on="0"/>
        <pt x="926" y="1591" on="0"/>
        <pt x="947" y="1629" on="0"/>
        <pt x="947" y="1650" on="1"/>
        <pt x="947" y="1671" on="0"/>
        <pt x="926" y="1709" on="0"/>
        <pt x="888" y="1730" on="0"/>
        <pt x="867" y="1730" on="1"/>
      </contour>
      <contour>
        <pt x="867" y="1850" on="1"/>
        <pt x="918" y="1850" on="0"/>
        <pt x="1013" y="1798" on="0"/>
        <pt x="1067" y="1702" on="0"/>
        <pt x="1067" y="1650" on="1"/>
        <pt x="1067" y="1598" on="0"/>
        <pt x="1015" y="1503" on="0"/>
        <pt x="919" y="1450" on="0"/>
        <pt x="867" y="1450" on="1"/>
        <pt x="816" y="1450" on="0"/>
        <pt x="720" y="1503" on="0"/>
        <pt x="667" y="1598" on="0"/>
        <pt x="667" y="1650" on="1"/>
        <pt x="667" y="1702" on="0"/>
        <pt x="721" y="1798" on="0"/>
        <pt x="817" y="1850" on="0"/>
      </contour>
    </TTGlyph>
    <TTGlyph name="uni0E82" xMin="147" yMin="-20" xMax="1297" yMax="1300">
      <contour>
        <pt x="417" y="700" on="1"/>
        <pt x="147" y="700" on="0"/>
        <pt x="147" y="961" on="1"/>
        <pt x="147" y="1300" on="0"/>
        <pt x="677" y="1300" on="1"/>
        <pt x="957" y="1300" on="0"/>
        <pt x="1207" y="1136" on="0"/>
        <pt x="1207" y="921" on="1"/>
        <pt x="1207" y="750" on="0"/>
        <pt x="912" y="572" on="0"/>
        <pt x="677" y="514" on="1"/>
        <pt x="506" y="470" on="1"/>
        <pt x="335" y="425" on="0"/>
        <pt x="335" y="230" on="1"/>
        <pt x="335" y="110" on="0"/>
        <pt x="439" y="110" on="1"/>
        <pt x="543" y="110" on="0"/>
        <pt x="850" y="364" on="0"/>
        <pt x="1002" y="364" on="1"/>
        <pt x="1233" y="364" on="0"/>
        <pt x="1297" y="87" on="1"/>
        <pt x="1237" y="-20" on="1"/>
        <pt x="1196" y="96" on="0"/>
        <pt x="1090" y="200" on="0"/>
        <pt x="1002" y="200" on="1"/>
        <pt x="893" y="200" on="0"/>
        <pt x="593" y="0" on="0"/>
        <pt x="439" y="0" on="1"/>
        <pt x="293" y="0" on="0"/>
        <pt x="147" y="115" on="0"/>
        <pt x="147" y="230" on="1"/>
        <pt x="147" y="495" on="0"/>
        <pt x="396" y="558" on="1"/>
        <pt x="644" y="622" on="1"/>
        <pt x="802" y="662" on="0"/>
        <pt x="1019" y="802" on="0"/>
        <pt x="1019" y="921" on="1"/>
        <pt x="1019" y="1064" on="0"/>
        <pt x="863" y="1190" on="0"/>
        <pt x="677" y="1190" on="1"/>
        <pt x="291" y="1190" on="0"/>
        <pt x="291" y="961" on="1"/>
        <pt x="291" y="960" on="1"/>
        <pt x="310" y="984" on="0"/>
        <pt x="338" y="1000" on="1"/>
        <pt x="376" y="1020" on="0"/>
        <pt x="417" y="1020" on="1"/>
        <pt x="457" y="1020" on="0"/>
        <pt x="534" y="979" on="0"/>
        <pt x="577" y="902" on="0"/>
        <pt x="577" y="860" on="1"/>
        <pt x="577" y="818" on="0"/>
        <pt x="535" y="742" on="0"/>
        <pt x="459" y="700" on="0"/>
      </contour>
      <contour>
        <pt x="400" y="928" on="0"/>
        <pt x="368" y="910" on="0"/>
        <pt x="350" y="878" on="0"/>
        <pt x="350" y="860" on="1"/>
        <pt x="350" y="842" on="0"/>
        <pt x="367" y="810" on="0"/>
        <pt x="399" y="793" on="0"/>
        <pt x="417" y="793" on="1"/>
        <pt x="435" y="793" on="0"/>
        <pt x="467" y="810" on="0"/>
        <pt x="485" y="842" on="0"/>
        <pt x="485" y="860" on="1"/>
        <pt x="485" y="878" on="0"/>
        <pt x="466" y="910" on="0"/>
        <pt x="434" y="928" on="0"/>
        <pt x="417" y="928" on="1"/>
      </contour>
    </TTGlyph>
    <TTGlyph name="uni0E82.am" xMin="147" yMin="-100" xMax="1297" yMax="1850">
      <contour>
        <pt x="417" y="700" on="1"/>
        <pt x="147" y="700" on="0"/>
        <pt x="147" y="961" on="1"/>
        <pt x="147" y="1300" on="0"/>
        <pt x="677" y="1300" on="1"/>
        <pt x="957" y="1300" on="0"/>
        <pt x="1207" y="1136" on="0"/>
        <pt x="1207" y="921" on="1"/>
        <pt x="1207" y="750" on="0"/>
        <pt x="912" y="572" on="0"/>
        <pt x="677" y="514" on="1"/>
        <pt x="506" y="470" on="1"/>
        <pt x="335" y="425" on="0"/>
        <pt x="335" y="230" on="1"/>
        <pt x="335" y="110" on="0"/>
        <pt x="439" y="110" on="1"/>
        <pt x="543" y="110" on="0"/>
        <pt x="770" y="264" on="0"/>
        <pt x="932" y="264" on="1"/>
        <pt x="1173" y="264" on="0"/>
        <pt x="1297" y="7" on="1"/>
        <pt x="1237" y="-100" on="1"/>
        <pt x="1146" y="46" on="0"/>
        <pt x="1010" y="120" on="0"/>
        <pt x="932" y="120" on="1"/>
        <pt x="813" y="120" on="0"/>
        <pt x="593" y="0" on="0"/>
        <pt x="439" y="0" on="1"/>
        <pt x="293" y="0" on="0"/>
        <pt x="147" y="115" on="0"/>
        <pt x="147" y="230" on="1"/>
        <pt x="147" y="495" on="0"/>
        <pt x="396" y="558" on="1"/>
        <pt x="644" y="622" on="1"/>
        <pt x="802" y="662" on="0"/>
        <pt x="1019" y="802" on="0"/>
        <pt x="1019" y="921" on="1"/>
        <pt x="1019" y="1064" on="0"/>
        <pt x="863" y="1190" on="0"/>
        <pt x="677" y="1190" on="1"/>
        <pt x="291" y="1190" on="0"/>
        <pt x="291" y="961" on="1"/>
        <pt x="291" y="960" on="1"/>
        <pt x="310" y="984" on="0"/>
        <pt x="338" y="1000" on="1"/>
        <pt x="376" y="1020" on="0"/>
        <pt x="417" y="1020" on="1"/>
        <pt x="457" y="1020" on="0"/>
        <pt x="534" y="979" on="0"/>
        <pt x="577" y="902" on="0"/>
        <pt x="577" y="860" on="1"/>
        <pt x="577" y="818" on="0"/>
        <pt x="535" y="742" on="0"/>
        <pt x="459" y="700" on="0"/>
      </contour>
      <contour>
        <pt x="400" y="928" on="0"/>
        <pt x="368" y="910" on="0"/>
        <pt x="350" y="878" on="0"/>
        <pt x="350" y="860" on="1"/>
        <pt x="350" y="842" on="0"/>
        <pt x="367" y="810" on="0"/>
        <pt x="399" y="793" on="0"/>
        <pt x="417" y="793" on="1"/>
        <pt x="435" y="793" on="0"/>
        <pt x="467" y="810" on="0"/>
        <pt x="485" y="842" on="0"/>
        <pt x="485" y="860" on="1"/>
        <pt x="485" y="878" on="0"/>
        <pt x="466" y="910" on="0"/>
        <pt x="434" y="928" on="0"/>
        <pt x="417" y="928" on="1"/>
      </contour>
      <contour>
        <pt x="667" y="1730" on="0"/>
        <pt x="629" y="1709" on="0"/>
        <pt x="607" y="1671" on="0"/>
        <pt x="607" y="1650" on="1"/>
        <pt x="607" y="1629" on="0"/>
        <pt x="629" y="1591" on="0"/>
        <pt x="667" y="1570" on="0"/>
        <pt x="687" y="1570" on="1"/>
        <pt x="708" y="1570" on="0"/>
        <pt x="746" y="1591" on="0"/>
        <pt x="767" y="1629" on="0"/>
        <pt x="767" y="1650" on="1"/>
        <pt x="767" y="1671" on="0"/>
        <pt x="746" y="1709" on="0"/>
        <pt x="708" y="1730" on="0"/>
        <pt x="687" y="1730" on="1"/>
      </contour>
      <contour>
        <pt x="687" y="1850" on="1"/>
        <pt x="738" y="1850" on="0"/>
        <pt x="833" y="1798" on="0"/>
        <pt x="887" y="1702" on="0"/>
        <pt x="887" y="1650" on="1"/>
        <pt x="887" y="1598" on="0"/>
        <pt x="835" y="1503" on="0"/>
        <pt x="739" y="1450" on="0"/>
        <pt x="687" y="1450" on="1"/>
        <pt x="636" y="1450" on="0"/>
        <pt x="540" y="1503" on="0"/>
        <pt x="487" y="1598" on="0"/>
        <pt x="487" y="1650" on="1"/>
        <pt x="487" y="1702" on="0"/>
        <pt x="541" y="1798" on="0"/>
        <pt x="637" y="1850" on="0"/>
      </contour>
    </TTGlyph>
    <TTGlyph name="uni0E84" xMin="147" yMin="0" xMax="1197" yMax="1300">
      <contour>
        <pt x="510" y="131" on="1"/>
        <pt x="532" y="150" on="0"/>
        <pt x="532" y="191" on="1"/>
        <pt x="532" y="227" on="0"/>
        <pt x="515" y="246" on="1"/>
        <pt x="496" y="267" on="0"/>
        <pt x="457" y="267" on="1"/>
        <pt x="381" y="267" on="0"/>
        <pt x="381" y="191" on="1"/>
        <pt x="381" y="146" on="0"/>
        <pt x="408" y="128" on="1"/>
        <pt x="426" y="116" on="0"/>
        <pt x="457" y="116" on="1"/>
        <pt x="491" y="116" on="0"/>
      </contour>
      <contour>
        <pt x="1009" y="920" on="1"/>
        <pt x="1009" y="1047" on="0"/>
        <pt x="848" y="1190" on="0"/>
        <pt x="668" y="1190" on="1"/>
        <pt x="488" y="1190" on="0"/>
        <pt x="335" y="1071" on="0"/>
        <pt x="335" y="950" on="1"/>
        <pt x="335" y="780" on="0"/>
        <pt x="547" y="780" on="1"/>
        <pt x="627" y="780" on="1"/>
        <pt x="627" y="646" on="1"/>
        <pt x="547" y="646" on="1"/>
        <pt x="335" y="646" on="0"/>
        <pt x="335" y="430" on="1"/>
        <pt x="335" y="352" on="1"/>
        <pt x="381" y="382" on="0"/>
        <pt x="457" y="382" on="1"/>
        <pt x="552" y="382" on="0"/>
        <pt x="600" y="334" on="1"/>
        <pt x="647" y="286" on="0"/>
        <pt x="647" y="190" on="1"/>
        <pt x="647" y="95" on="0"/>
        <pt x="599" y="47" on="1"/>
        <pt x="552" y="0" on="0"/>
        <pt x="457" y="0" on="1"/>
        <pt x="327" y="0" on="0"/>
        <pt x="252" y="52" on="1"/>
        <pt x="147" y="123" on="0"/>
        <pt x="147" y="295" on="1"/>
        <pt x="147" y="430" on="1"/>
        <pt x="147" y="637" on="0"/>
        <pt x="310" y="710" on="1"/>
        <pt x="147" y="776" on="0"/>
        <pt x="147" y="950" on="1"/>
        <pt x="147" y="1137" on="0"/>
        <pt x="267" y="1217" on="1"/>
        <pt x="392" y="1300" on="0"/>
        <pt x="668" y="1300" on="1"/>
        <pt x="943" y="1300" on="0"/>
        <pt x="1067" y="1208" on="1"/>
        <pt x="1197" y="1113" on="0"/>
        <pt x="1197" y="920" on="1"/>
        <pt x="1197" y="200" on="1"/>
        <pt x="1197" y="105" on="0"/>
        <pt x="1147" y="0" on="1"/>
        <pt x="959" y="0" on="1"/>
        <pt x="1009" y="75" on="0"/>
        <pt x="1009" y="200" on="1"/>
      </contour>
    </TTGlyph>
    <TTGlyph name="uni0E84.am" xMin="147" yMin="0" xMax="1197" yMax="1850">
      <contour>
        <pt x="510" y="131" on="1"/>
        <pt x="532" y="150" on="0"/>
        <pt x="532" y="191" on="1"/>
        <pt x="532" y="227" on="0"/>
        <pt x="515" y="246" on="1"/>
        <pt x="496" y="267" on="0"/>
        <pt x="457" y="267" on="1"/>
        <pt x="381" y="267" on="0"/>
        <pt x="381" y="191" on="1"/>
        <pt x="381" y="146" on="0"/>
        <pt x="408" y="128" on="1"/>
        <pt x="426" y="116" on="0"/>
        <pt x="457" y="116" on="1"/>
        <pt x="491" y="116" on="0"/>
      </contour>
      <contour>
        <pt x="1009" y="920" on="1"/>
        <pt x="1009" y="1047" on="0"/>
        <pt x="848" y="1190" on="0"/>
        <pt x="668" y="1190" on="1"/>
        <pt x="488" y="1190" on="0"/>
        <pt x="335" y="1071" on="0"/>
        <pt x="335" y="950" on="1"/>
        <pt x="335" y="780" on="0"/>
        <pt x="547" y="780" on="1"/>
        <pt x="627" y="780" on="1"/>
        <pt x="627" y="646" on="1"/>
        <pt x="547" y="646" on="1"/>
        <pt x="335" y="646" on="0"/>
        <pt x="335" y="430" on="1"/>
        <pt x="335" y="352" on="1"/>
        <pt x="381" y="382" on="0"/>
        <pt x="457" y="382" on="1"/>
        <pt x="552" y="382" on="0"/>
        <pt x="600" y="334" on="1"/>
        <pt x="647" y="286" on="0"/>
        <pt x="647" y="190" on="1"/>
        <pt x="647" y="95" on="0"/>
        <pt x="599" y="47" on="1"/>
        <pt x="552" y="0" on="0"/>
        <pt x="457" y="0" on="1"/>
        <pt x="327" y="0" on="0"/>
        <pt x="252" y="52" on="1"/>
        <pt x="147" y="123" on="0"/>
        <pt x="147" y="295" on="1"/>
        <pt x="147" y="430" on="1"/>
        <pt x="147" y="637" on="0"/>
        <pt x="310" y="710" on="1"/>
        <pt x="147" y="776" on="0"/>
        <pt x="147" y="950" on="1"/>
        <pt x="147" y="1137" on="0"/>
        <pt x="267" y="1217" on="1"/>
        <pt x="392" y="1300" on="0"/>
        <pt x="668" y="1300" on="1"/>
        <pt x="943" y="1300" on="0"/>
        <pt x="1067" y="1208" on="1"/>
        <pt x="1197" y="1113" on="0"/>
        <pt x="1197" y="920" on="1"/>
        <pt x="1197" y="200" on="1"/>
        <pt x="1197" y="105" on="0"/>
        <pt x="1147" y="0" on="1"/>
        <pt x="959" y="0" on="1"/>
        <pt x="1009" y="75" on="0"/>
        <pt x="1009" y="200" on="1"/>
      </contour>
      <contour>
        <pt x="677" y="1730" on="0"/>
        <pt x="639" y="1709" on="0"/>
        <pt x="617" y="1671" on="0"/>
        <pt x="617" y="1650" on="1"/>
        <pt x="617" y="1629" on="0"/>
        <pt x="639" y="1591" on="0"/>
        <pt x="677" y="1570" on="0"/>
        <pt x="697" y="1570" on="1"/>
        <pt x="718" y="1570" on="0"/>
        <pt x="756" y="1591" on="0"/>
        <pt x="777" y="1629" on="0"/>
        <pt x="777" y="1650" on="1"/>
        <pt x="777" y="1671" on="0"/>
        <pt x="756" y="1709" on="0"/>
        <pt x="718" y="1730" on="0"/>
        <pt x="697" y="1730" on="1"/>
      </contour>
      <contour>
        <pt x="697" y="1850" on="1"/>
        <pt x="748" y="1850" on="0"/>
        <pt x="843" y="1798" on="0"/>
        <pt x="897" y="1702" on="0"/>
        <pt x="897" y="1650" on="1"/>
        <pt x="897" y="1598" on="0"/>
        <pt x="845" y="1503" on="0"/>
        <pt x="749" y="1450" on="0"/>
        <pt x="697" y="1450" on="1"/>
        <pt x="646" y="1450" on="0"/>
        <pt x="550" y="1503" on="0"/>
        <pt x="497" y="1598" on="0"/>
        <pt x="497" y="1650" on="1"/>
        <pt x="497" y="1702" on="0"/>
        <pt x="551" y="1798" on="0"/>
        <pt x="647" y="1850" on="0"/>
      </contour>
    </TTGlyph>
    <TTGlyph name="uni0E87" xMin="32" yMin="-400" xMax="742" yMax="1300">
      <contour>
        <pt x="198" y="1040" on="1"/>
        <pt x="198" y="966" on="0"/>
        <pt x="273" y="966" on="1"/>
        <pt x="349" y="966" on="0"/>
        <pt x="349" y="1041" on="1"/>
        <pt x="349" y="1117" on="0"/>
        <pt x="273" y="1117" on="1"/>
        <pt x="198" y="1117" on="0"/>
      </contour>
      <contour>
        <pt x="549" y="-400" on="0"/>
        <pt x="420" y="-400" on="1"/>
        <pt x="191" y="-400" on="0"/>
        <pt x="32" y="-196" on="1"/>
        <pt x="191" y="-296" on="0"/>
        <pt x="330" y="-296" on="1"/>
        <pt x="453" y="-296" on="0"/>
        <pt x="554" y="-112" on="0"/>
        <pt x="554" y="0" on="1"/>
        <pt x="554" y="920" on="1"/>
        <pt x="554" y="1137" on="0"/>
        <pt x="413" y="1163" on="1"/>
        <pt x="464" y="1117" on="0"/>
        <pt x="464" y="1040" on="1"/>
        <pt x="464" y="850" on="0"/>
        <pt x="272" y="850" on="1"/>
        <pt x="82" y="850" on="0"/>
        <pt x="82" y="1040" on="1"/>
        <pt x="82" y="1300" on="0"/>
        <pt x="387" y="1300" on="1"/>
        <pt x="742" y="1300" on="0"/>
        <pt x="742" y="920" on="1"/>
        <pt x="742" y="0" on="1"/>
        <pt x="742" y="-190" on="0"/>
      </contour>
    </TTGlyph>
    <TTGlyph name="uni0E87.am" xMin="32" yMin="-400" xMax="742" yMax="1850">
      <contour>
        <pt x="198" y="1040" on="1"/>
        <pt x="198" y="966" on="0"/>
        <pt x="273" y="966" on="1"/>
        <pt x="349" y="966" on="0"/>
        <pt x="349" y="1041" on="1"/>
        <pt x="349" y="1117" on="0"/>
        <pt x="273" y="1117" on="1"/>
        <pt x="198" y="1117" on="0"/>
      </contour>
      <contour>
        <pt x="549" y="-400" on="0"/>
        <pt x="420" y="-400" on="1"/>
        <pt x="191" y="-400" on="0"/>
        <pt x="32" y="-196" on="1"/>
        <pt x="191" y="-296" on="0"/>
        <pt x="330" y="-296" on="1"/>
        <pt x="453" y="-296" on="0"/>
        <pt x="554" y="-112" on="0"/>
        <pt x="554" y="0" on="1"/>
        <pt x="554" y="920" on="1"/>
        <pt x="554" y="1137" on="0"/>
        <pt x="413" y="1163" on="1"/>
        <pt x="464" y="1117" on="0"/>
        <pt x="464" y="1040" on="1"/>
        <pt x="464" y="850" on="0"/>
        <pt x="272" y="850" on="1"/>
        <pt x="82" y="850" on="0"/>
        <pt x="82" y="1040" on="1"/>
        <pt x="82" y="1300" on="0"/>
        <pt x="387" y="1300" on="1"/>
        <pt x="742" y="1300" on="0"/>
        <pt x="742" y="920" on="1"/>
        <pt x="742" y="0" on="1"/>
        <pt x="742" y="-190" on="0"/>
      </contour>
      <contour>
        <pt x="417" y="1730" on="0"/>
        <pt x="379" y="1709" on="0"/>
        <pt x="357" y="1671" on="0"/>
        <pt x="357" y="1650" on="1"/>
        <pt x="357" y="1629" on="0"/>
        <pt x="379" y="1591" on="0"/>
        <pt x="417" y="1570" on="0"/>
        <pt x="437" y="1570" on="1"/>
        <pt x="458" y="1570" on="0"/>
        <pt x="496" y="1591" on="0"/>
        <pt x="517" y="1629" on="0"/>
        <pt x="517" y="1650" on="1"/>
        <pt x="517" y="1671" on="0"/>
        <pt x="496" y="1709" on="0"/>
        <pt x="458" y="1730" on="0"/>
        <pt x="437" y="1730" on="1"/>
      </contour>
      <contour>
        <pt x="437" y="1850" on="1"/>
        <pt x="488" y="1850" on="0"/>
        <pt x="583" y="1798" on="0"/>
        <pt x="637" y="1702" on="0"/>
        <pt x="637" y="1650" on="1"/>
        <pt x="637" y="1598" on="0"/>
        <pt x="585" y="1503" on="0"/>
        <pt x="489" y="1450" on="0"/>
        <pt x="437" y="1450" on="1"/>
        <pt x="386" y="1450" on="0"/>
        <pt x="290" y="1503" on="0"/>
        <pt x="237" y="1598" on="0"/>
        <pt x="237" y="1650" on="1"/>
        <pt x="237" y="1702" on="0"/>
        <pt x="291" y="1798" on="0"/>
        <pt x="387" y="1850" on="0"/>
      </contour>
    </TTGlyph>
    <TTGlyph name="uni0E88" xMin="82" yMin="0" xMax="1082" yMax="1300">
      <contour>
        <pt x="584" y="591" on="1"/>
        <pt x="659" y="592" on="0"/>
        <pt x="659" y="661" on="1"/>
        <pt x="659" y="728" on="0"/>
        <pt x="587" y="728" on="1"/>
        <pt x="513" y="728" on="0"/>
        <pt x="510" y="660" on="1"/>
        <pt x="510" y="655" on="1"/>
        <pt x="510" y="591" on="0"/>
        <pt x="582" y="591" on="1"/>
      </contour>
      <contour>
        <pt x="965" y="0" on="0"/>
        <pt x="799" y="0" on="1"/>
        <pt x="623" y="0" on="0"/>
        <pt x="581" y="105" on="1"/>
        <pt x="561" y="151" on="0"/>
        <pt x="561" y="228" on="1"/>
        <pt x="561" y="323" on="0"/>
        <pt x="588" y="378" on="1"/>
        <pt x="639" y="481" on="0"/>
        <pt x="639" y="486" on="1"/>
        <pt x="618" y="467" on="0"/>
        <pt x="554" y="467" on="1"/>
        <pt x="548" y="467" on="1"/>
        <pt x="467" y="479" on="0"/>
        <pt x="425" y="526" on="1"/>
        <pt x="382" y="573" on="0"/>
        <pt x="379" y="657" on="1"/>
        <pt x="379" y="667" on="1"/>
        <pt x="379" y="743" on="0"/>
        <pt x="422" y="790" on="1"/>
        <pt x="468" y="838" on="0"/>
        <pt x="561" y="854" on="1"/>
        <pt x="566" y="854" on="1"/>
        <pt x="664" y="854" on="0"/>
        <pt x="720" y="815" on="1"/>
        <pt x="771" y="779" on="0"/>
        <pt x="784" y="710" on="1"/>
        <pt x="794" y="659" on="0"/>
        <pt x="794" y="612" on="1"/>
        <pt x="794" y="536" on="0"/>
        <pt x="767" y="473" on="1"/>
        <pt x="723" y="370" on="0"/>
        <pt x="723" y="241" on="1"/>
        <pt x="723" y="110" on="0"/>
        <pt x="799" y="110" on="1"/>
        <pt x="894" y="110" on="0"/>
        <pt x="894" y="205" on="1"/>
        <pt x="894" y="902" on="1"/>
        <pt x="894" y="1009" on="0"/>
        <pt x="741" y="1176" on="0"/>
        <pt x="547" y="1176" on="1"/>
        <pt x="428" y="1176" on="0"/>
        <pt x="200" y="1100" on="0"/>
        <pt x="82" y="863" on="1"/>
        <pt x="82" y="1126" on="0"/>
        <pt x="206" y="1213" on="1"/>
        <pt x="331" y="1300" on="0"/>
        <pt x="542" y="1300" on="1"/>
        <pt x="833" y="1300" on="0"/>
        <pt x="1082" y="1075" on="0"/>
        <pt x="1082" y="902" on="1"/>
        <pt x="1082" y="201" on="1"/>
        <pt x="1082" y="108" on="0"/>
        <pt x="1028" y="58" on="1"/>
      </contour>
    </TTGlyph>
    <TTGlyph name="uni0E88.am" xMin="82" yMin="0" xMax="1082" yMax="1850">
      <contour>
        <pt x="584" y="591" on="1"/>
        <pt x="659" y="592" on="0"/>
        <pt x="659" y="661" on="1"/>
        <pt x="659" y="728" on="0"/>
        <pt x="587" y="728" on="1"/>
        <pt x="513" y="728" on="0"/>
        <pt x="510" y="660" on="1"/>
        <pt x="510" y="655" on="1"/>
        <pt x="510" y="591" on="0"/>
        <pt x="582" y="591" on="1"/>
      </contour>
      <contour>
        <pt x="965" y="0" on="0"/>
        <pt x="799" y="0" on="1"/>
        <pt x="623" y="0" on="0"/>
        <pt x="581" y="105" on="1"/>
        <pt x="561" y="151" on="0"/>
        <pt x="561" y="228" on="1"/>
        <pt x="561" y="323" on="0"/>
        <pt x="588" y="378" on="1"/>
        <pt x="639" y="481" on="0"/>
        <pt x="639" y="486" on="1"/>
        <pt x="618" y="467" on="0"/>
        <pt x="554" y="467" on="1"/>
        <pt x="548" y="467" on="1"/>
        <pt x="467" y="479" on="0"/>
        <pt x="425" y="526" on="1"/>
        <pt x="382" y="573" on="0"/>
        <pt x="379" y="657" on="1"/>
        <pt x="379" y="667" on="1"/>
        <pt x="379" y="743" on="0"/>
        <pt x="422" y="790" on="1"/>
        <pt x="468" y="838" on="0"/>
        <pt x="561" y="854" on="1"/>
        <pt x="566" y="854" on="1"/>
        <pt x="664" y="854" on="0"/>
        <pt x="720" y="815" on="1"/>
        <pt x="771" y="779" on="0"/>
        <pt x="784" y="710" on="1"/>
        <pt x="794" y="659" on="0"/>
        <pt x="794" y="612" on="1"/>
        <pt x="794" y="536" on="0"/>
        <pt x="767" y="473" on="1"/>
        <pt x="723" y="370" on="0"/>
        <pt x="723" y="241" on="1"/>
        <pt x="723" y="110" on="0"/>
        <pt x="799" y="110" on="1"/>
        <pt x="894" y="110" on="0"/>
        <pt x="894" y="205" on="1"/>
        <pt x="894" y="902" on="1"/>
        <pt x="894" y="1009" on="0"/>
        <pt x="741" y="1176" on="0"/>
        <pt x="547" y="1176" on="1"/>
        <pt x="428" y="1176" on="0"/>
        <pt x="200" y="1100" on="0"/>
        <pt x="82" y="863" on="1"/>
        <pt x="82" y="1126" on="0"/>
        <pt x="206" y="1213" on="1"/>
        <pt x="331" y="1300" on="0"/>
        <pt x="542" y="1300" on="1"/>
        <pt x="833" y="1300" on="0"/>
        <pt x="1082" y="1075" on="0"/>
        <pt x="1082" y="902" on="1"/>
        <pt x="1082" y="201" on="1"/>
        <pt x="1082" y="108" on="0"/>
        <pt x="1028" y="58" on="1"/>
      </contour>
      <contour>
        <pt x="677" y="1730" on="0"/>
        <pt x="639" y="1709" on="0"/>
        <pt x="617" y="1671" on="0"/>
        <pt x="617" y="1650" on="1"/>
        <pt x="617" y="1629" on="0"/>
        <pt x="639" y="1591" on="0"/>
        <pt x="677" y="1570" on="0"/>
        <pt x="697" y="1570" on="1"/>
        <pt x="718" y="1570" on="0"/>
        <pt x="756" y="1591" on="0"/>
        <pt x="777" y="1629" on="0"/>
        <pt x="777" y="1650" on="1"/>
        <pt x="777" y="1671" on="0"/>
        <pt x="756" y="1709" on="0"/>
        <pt x="718" y="1730" on="0"/>
        <pt x="697" y="1730" on="1"/>
      </contour>
      <contour>
        <pt x="697" y="1850" on="1"/>
        <pt x="748" y="1850" on="0"/>
        <pt x="843" y="1798" on="0"/>
        <pt x="897" y="1702" on="0"/>
        <pt x="897" y="1650" on="1"/>
        <pt x="897" y="1598" on="0"/>
        <pt x="845" y="1503" on="0"/>
        <pt x="749" y="1450" on="0"/>
        <pt x="697" y="1450" on="1"/>
        <pt x="646" y="1450" on="0"/>
        <pt x="550" y="1503" on="0"/>
        <pt x="497" y="1598" on="0"/>
        <pt x="497" y="1650" on="1"/>
        <pt x="497" y="1702" on="0"/>
        <pt x="551" y="1798" on="0"/>
        <pt x="647" y="1850" on="0"/>
      </contour>
    </TTGlyph>
    <TTGlyph name="uni0E8A" xMin="147" yMin="-390" xMax="1300" yMax="1300">
      <contour>
        <pt x="350" y="878" on="0"/>
        <pt x="350" y="860" on="1"/>
        <pt x="350" y="842" on="0"/>
        <pt x="367" y="810" on="0"/>
        <pt x="399" y="793" on="0"/>
        <pt x="417" y="793" on="1"/>
        <pt x="435" y="793" on="0"/>
        <pt x="467" y="810" on="0"/>
        <pt x="485" y="842" on="0"/>
        <pt x="485" y="860" on="1"/>
        <pt x="485" y="878" on="0"/>
        <pt x="466" y="910" on="0"/>
        <pt x="434" y="928" on="0"/>
        <pt x="417" y="928" on="1"/>
        <pt x="400" y="928" on="0"/>
        <pt x="368" y="910" on="0"/>
      </contour>
      <contour>
        <pt x="1019" y="921" on="1"/>
        <pt x="1019" y="1064" on="0"/>
        <pt x="863" y="1190" on="0"/>
        <pt x="677" y="1190" on="1"/>
        <pt x="291" y="1190" on="0"/>
        <pt x="291" y="961" on="1"/>
        <pt x="291" y="960" on="1"/>
        <pt x="310" y="984" on="0"/>
        <pt x="338" y="1000" on="1"/>
        <pt x="376" y="1020" on="0"/>
        <pt x="417" y="1020" on="1"/>
        <pt x="457" y="1020" on="0"/>
        <pt x="534" y="979" on="0"/>
        <pt x="577" y="902" on="0"/>
        <pt x="577" y="860" on="1"/>
        <pt x="577" y="818" on="0"/>
        <pt x="535" y="742" on="0"/>
        <pt x="459" y="700" on="0"/>
        <pt x="417" y="700" on="1"/>
        <pt x="147" y="700" on="0"/>
        <pt x="147" y="961" on="1"/>
        <pt x="147" y="1300" on="0"/>
        <pt x="677" y="1300" on="1"/>
        <pt x="957" y="1300" on="0"/>
        <pt x="1207" y="1136" on="0"/>
        <pt x="1207" y="921" on="1"/>
        <pt x="1207" y="750" on="0"/>
        <pt x="912" y="572" on="0"/>
        <pt x="677" y="514" on="1"/>
        <pt x="506" y="470" on="1"/>
        <pt x="335" y="425" on="0"/>
        <pt x="335" y="230" on="1"/>
        <pt x="335" y="110" on="0"/>
        <pt x="409" y="110" on="1"/>
        <pt x="483" y="110" on="0"/>
        <pt x="838" y="305" on="0"/>
        <pt x="945" y="305" on="1"/>
        <pt x="1070" y="305" on="0"/>
        <pt x="1133" y="243" on="1"/>
        <pt x="1197" y="179" on="0"/>
        <pt x="1197" y="-60" on="1"/>
        <pt x="1197" y="-270" on="0"/>
        <pt x="1300" y="-390" on="1"/>
        <pt x="1009" y="-300" on="0"/>
        <pt x="1009" y="-60" on="1"/>
        <pt x="1009" y="161" on="0"/>
        <pt x="945" y="161" on="1"/>
        <pt x="841" y="161" on="0"/>
        <pt x="533" y="0" on="0"/>
        <pt x="409" y="0" on="1"/>
        <pt x="293" y="0" on="0"/>
        <pt x="147" y="115" on="0"/>
        <pt x="147" y="230" on="1"/>
        <pt x="147" y="495" on="0"/>
        <pt x="396" y="558" on="1"/>
        <pt x="644" y="622" on="1"/>
        <pt x="802" y="662" on="0"/>
        <pt x="1019" y="802" on="0"/>
      </contour>
    </TTGlyph>
    <TTGlyph name="uni0E8A.am" xMin="147" yMin="-390" xMax="1300" yMax="1850">
      <contour>
        <pt x="350" y="878" on="0"/>
        <pt x="350" y="860" on="1"/>
        <pt x="350" y="842" on="0"/>
        <pt x="367" y="810" on="0"/>
        <pt x="399" y="793" on="0"/>
        <pt x="417" y="793" on="1"/>
        <pt x="435" y="793" on="0"/>
        <pt x="467" y="810" on="0"/>
        <pt x="485" y="842" on="0"/>
        <pt x="485" y="860" on="1"/>
        <pt x="485" y="878" on="0"/>
        <pt x="466" y="910" on="0"/>
        <pt x="434" y="928" on="0"/>
        <pt x="417" y="928" on="1"/>
        <pt x="400" y="928" on="0"/>
        <pt x="368" y="910" on="0"/>
      </contour>
      <contour>
        <pt x="1019" y="921" on="1"/>
        <pt x="1019" y="1064" on="0"/>
        <pt x="863" y="1190" on="0"/>
        <pt x="677" y="1190" on="1"/>
        <pt x="291" y="1190" on="0"/>
        <pt x="291" y="961" on="1"/>
        <pt x="291" y="960" on="1"/>
        <pt x="310" y="984" on="0"/>
        <pt x="338" y="1000" on="1"/>
        <pt x="376" y="1020" on="0"/>
        <pt x="417" y="1020" on="1"/>
        <pt x="457" y="1020" on="0"/>
        <pt x="534" y="979" on="0"/>
        <pt x="577" y="902" on="0"/>
        <pt x="577" y="860" on="1"/>
        <pt x="577" y="818" on="0"/>
        <pt x="535" y="742" on="0"/>
        <pt x="459" y="700" on="0"/>
        <pt x="417" y="700" on="1"/>
        <pt x="147" y="700" on="0"/>
        <pt x="147" y="961" on="1"/>
        <pt x="147" y="1300" on="0"/>
        <pt x="677" y="1300" on="1"/>
        <pt x="957" y="1300" on="0"/>
        <pt x="1207" y="1136" on="0"/>
        <pt x="1207" y="921" on="1"/>
        <pt x="1207" y="750" on="0"/>
        <pt x="912" y="572" on="0"/>
        <pt x="677" y="514" on="1"/>
        <pt x="506" y="470" on="1"/>
        <pt x="335" y="425" on="0"/>
        <pt x="335" y="230" on="1"/>
        <pt x="335" y="110" on="0"/>
        <pt x="409" y="110" on="1"/>
        <pt x="483" y="110" on="0"/>
        <pt x="838" y="305" on="0"/>
        <pt x="945" y="305" on="1"/>
        <pt x="1070" y="305" on="0"/>
        <pt x="1133" y="243" on="1"/>
        <pt x="1197" y="179" on="0"/>
        <pt x="1197" y="-60" on="1"/>
        <pt x="1197" y="-270" on="0"/>
        <pt x="1300" y="-390" on="1"/>
        <pt x="1009" y="-300" on="0"/>
        <pt x="1009" y="-60" on="1"/>
        <pt x="1009" y="161" on="0"/>
        <pt x="945" y="161" on="1"/>
        <pt x="841" y="161" on="0"/>
        <pt x="533" y="0" on="0"/>
        <pt x="409" y="0" on="1"/>
        <pt x="293" y="0" on="0"/>
        <pt x="147" y="115" on="0"/>
        <pt x="147" y="230" on="1"/>
        <pt x="147" y="495" on="0"/>
        <pt x="396" y="558" on="1"/>
        <pt x="644" y="622" on="1"/>
        <pt x="802" y="662" on="0"/>
        <pt x="1019" y="802" on="0"/>
      </contour>
      <contour>
        <pt x="677" y="1730" on="0"/>
        <pt x="639" y="1709" on="0"/>
        <pt x="617" y="1671" on="0"/>
        <pt x="617" y="1650" on="1"/>
        <pt x="617" y="1629" on="0"/>
        <pt x="639" y="1591" on="0"/>
        <pt x="677" y="1570" on="0"/>
        <pt x="697" y="1570" on="1"/>
        <pt x="718" y="1570" on="0"/>
        <pt x="756" y="1591" on="0"/>
        <pt x="777" y="1629" on="0"/>
        <pt x="777" y="1650" on="1"/>
        <pt x="777" y="1671" on="0"/>
        <pt x="756" y="1709" on="0"/>
        <pt x="718" y="1730" on="0"/>
        <pt x="697" y="1730" on="1"/>
      </contour>
      <contour>
        <pt x="697" y="1850" on="1"/>
        <pt x="748" y="1850" on="0"/>
        <pt x="843" y="1798" on="0"/>
        <pt x="897" y="1702" on="0"/>
        <pt x="897" y="1650" on="1"/>
        <pt x="897" y="1598" on="0"/>
        <pt x="845" y="1503" on="0"/>
        <pt x="749" y="1450" on="0"/>
        <pt x="697" y="1450" on="1"/>
        <pt x="646" y="1450" on="0"/>
        <pt x="550" y="1503" on="0"/>
        <pt x="497" y="1598" on="0"/>
        <pt x="497" y="1650" on="1"/>
        <pt x="497" y="1702" on="0"/>
        <pt x="551" y="1798" on="0"/>
        <pt x="647" y="1850" on="0"/>
      </contour>
    </TTGlyph>
    <TTGlyph name="uni0E8D" xMin="147" yMin="0" xMax="1247" yMax="1300">
      <contour>
        <pt x="457" y="1184" on="1"/>
        <pt x="426" y="1184" on="0"/>
        <pt x="408" y="1172" on="1"/>
        <pt x="381" y="1154" on="0"/>
        <pt x="381" y="1109" on="1"/>
        <pt x="381" y="1033" on="0"/>
        <pt x="457" y="1033" on="1"/>
        <pt x="496" y="1033" on="0"/>
        <pt x="515" y="1054" on="1"/>
        <pt x="532" y="1073" on="0"/>
        <pt x="532" y="1109" on="1"/>
        <pt x="532" y="1150" on="0"/>
        <pt x="510" y="1169" on="1"/>
        <pt x="491" y="1184" on="0"/>
      </contour>
      <contour>
        <pt x="1197" y="380" on="1"/>
        <pt x="1197" y="187" on="0"/>
        <pt x="1067" y="92" on="1"/>
        <pt x="943" y="0" on="0"/>
        <pt x="668" y="0" on="1"/>
        <pt x="392" y="0" on="0"/>
        <pt x="267" y="83" on="1"/>
        <pt x="147" y="163" on="0"/>
        <pt x="147" y="350" on="1"/>
        <pt x="147" y="574" on="0"/>
        <pt x="310" y="640" on="1"/>
        <pt x="147" y="713" on="0"/>
        <pt x="147" y="870" on="1"/>
        <pt x="147" y="1005" on="1"/>
        <pt x="147" y="1177" on="0"/>
        <pt x="252" y="1248" on="1"/>
        <pt x="327" y="1300" on="0"/>
        <pt x="457" y="1300" on="1"/>
        <pt x="552" y="1300" on="0"/>
        <pt x="599" y="1253" on="1"/>
        <pt x="647" y="1205" on="0"/>
        <pt x="647" y="1110" on="1"/>
        <pt x="647" y="1014" on="0"/>
        <pt x="600" y="966" on="1"/>
        <pt x="552" y="918" on="0"/>
        <pt x="457" y="918" on="1"/>
        <pt x="381" y="918" on="0"/>
        <pt x="335" y="948" on="1"/>
        <pt x="335" y="870" on="1"/>
        <pt x="335" y="704" on="0"/>
        <pt x="547" y="704" on="1"/>
        <pt x="627" y="704" on="1"/>
        <pt x="627" y="570" on="1"/>
        <pt x="547" y="570" on="1"/>
        <pt x="335" y="570" on="0"/>
        <pt x="335" y="350" on="1"/>
        <pt x="335" y="229" on="0"/>
        <pt x="488" y="110" on="0"/>
        <pt x="668" y="110" on="1"/>
        <pt x="848" y="110" on="0"/>
        <pt x="1009" y="253" on="0"/>
        <pt x="1009" y="380" on="1"/>
        <pt x="1009" y="1100" on="1"/>
        <pt x="1009" y="1195" on="0"/>
        <pt x="1059" y="1300" on="1"/>
        <pt x="1247" y="1300" on="1"/>
        <pt x="1197" y="1225" on="0"/>
        <pt x="1197" y="1100" on="1"/>
      </contour>
    </TTGlyph>
    <TTGlyph name="uni0E8D.am" xMin="147" yMin="0" xMax="1247" yMax="1850">
      <contour>
        <pt x="457" y="1184" on="1"/>
        <pt x="426" y="1184" on="0"/>
        <pt x="408" y="1172" on="1"/>
        <pt x="381" y="1154" on="0"/>
        <pt x="381" y="1109" on="1"/>
        <pt x="381" y="1033" on="0"/>
        <pt x="457" y="1033" on="1"/>
        <pt x="496" y="1033" on="0"/>
        <pt x="515" y="1054" on="1"/>
        <pt x="532" y="1073" on="0"/>
        <pt x="532" y="1109" on="1"/>
        <pt x="532" y="1150" on="0"/>
        <pt x="510" y="1169" on="1"/>
        <pt x="491" y="1184" on="0"/>
      </contour>
      <contour>
        <pt x="1197" y="380" on="1"/>
        <pt x="1197" y="187" on="0"/>
        <pt x="1067" y="92" on="1"/>
        <pt x="943" y="0" on="0"/>
        <pt x="668" y="0" on="1"/>
        <pt x="392" y="0" on="0"/>
        <pt x="267" y="83" on="1"/>
        <pt x="147" y="163" on="0"/>
        <pt x="147" y="350" on="1"/>
        <pt x="147" y="574" on="0"/>
        <pt x="310" y="640" on="1"/>
        <pt x="147" y="713" on="0"/>
        <pt x="147" y="870" on="1"/>
        <pt x="147" y="1005" on="1"/>
        <pt x="147" y="1177" on="0"/>
        <pt x="252" y="1248" on="1"/>
        <pt x="327" y="1300" on="0"/>
        <pt x="457" y="1300" on="1"/>
        <pt x="552" y="1300" on="0"/>
        <pt x="599" y="1253" on="1"/>
        <pt x="647" y="1205" on="0"/>
        <pt x="647" y="1110" on="1"/>
        <pt x="647" y="1014" on="0"/>
        <pt x="600" y="966" on="1"/>
        <pt x="552" y="918" on="0"/>
        <pt x="457" y="918" on="1"/>
        <pt x="381" y="918" on="0"/>
        <pt x="335" y="948" on="1"/>
        <pt x="335" y="870" on="1"/>
        <pt x="335" y="704" on="0"/>
        <pt x="547" y="704" on="1"/>
        <pt x="627" y="704" on="1"/>
        <pt x="627" y="570" on="1"/>
        <pt x="547" y="570" on="1"/>
        <pt x="335" y="570" on="0"/>
        <pt x="335" y="350" on="1"/>
        <pt x="335" y="229" on="0"/>
        <pt x="488" y="110" on="0"/>
        <pt x="668" y="110" on="1"/>
        <pt x="848" y="110" on="0"/>
        <pt x="1009" y="253" on="0"/>
        <pt x="1009" y="380" on="1"/>
        <pt x="1009" y="1100" on="1"/>
        <pt x="1009" y="1195" on="0"/>
        <pt x="1059" y="1300" on="1"/>
        <pt x="1247" y="1300" on="1"/>
        <pt x="1197" y="1225" on="0"/>
        <pt x="1197" y="1100" on="1"/>
      </contour>
      <contour>
        <pt x="747" y="1730" on="0"/>
        <pt x="709" y="1709" on="0"/>
        <pt x="687" y="1671" on="0"/>
        <pt x="687" y="1650" on="1"/>
        <pt x="687" y="1629" on="0"/>
        <pt x="709" y="1591" on="0"/>
        <pt x="747" y="1570" on="0"/>
        <pt x="767" y="1570" on="1"/>
        <pt x="788" y="1570" on="0"/>
        <pt x="826" y="1591" on="0"/>
        <pt x="847" y="1629" on="0"/>
        <pt x="847" y="1650" on="1"/>
        <pt x="847" y="1671" on="0"/>
        <pt x="826" y="1709" on="0"/>
        <pt x="788" y="1730" on="0"/>
        <pt x="767" y="1730" on="1"/>
      </contour>
      <contour>
        <pt x="767" y="1850" on="1"/>
        <pt x="818" y="1850" on="0"/>
        <pt x="913" y="1798" on="0"/>
        <pt x="967" y="1702" on="0"/>
        <pt x="967" y="1650" on="1"/>
        <pt x="967" y="1598" on="0"/>
        <pt x="915" y="1503" on="0"/>
        <pt x="819" y="1450" on="0"/>
        <pt x="767" y="1450" on="1"/>
        <pt x="716" y="1450" on="0"/>
        <pt x="620" y="1503" on="0"/>
        <pt x="567" y="1598" on="0"/>
        <pt x="567" y="1650" on="1"/>
        <pt x="567" y="1702" on="0"/>
        <pt x="621" y="1798" on="0"/>
        <pt x="717" y="1850" on="0"/>
      </contour>
    </TTGlyph>
    <TTGlyph name="uni0E94" xMin="168" yMin="0" xMax="1218" yMax="1300">
      <contour>
        <pt x="531" y="131" on="1"/>
        <pt x="553" y="150" on="0"/>
        <pt x="553" y="191" on="1"/>
        <pt x="553" y="227" on="0"/>
        <pt x="536" y="246" on="1"/>
        <pt x="517" y="267" on="0"/>
        <pt x="478" y="267" on="1"/>
        <pt x="402" y="267" on="0"/>
        <pt x="402" y="191" on="1"/>
        <pt x="402" y="146" on="0"/>
        <pt x="429" y="128" on="1"/>
        <pt x="447" y="116" on="0"/>
        <pt x="478" y="116" on="1"/>
        <pt x="512" y="116" on="0"/>
      </contour>
      <contour>
        <pt x="1030" y="920" on="1"/>
        <pt x="1030" y="1047" on="0"/>
        <pt x="869" y="1190" on="0"/>
        <pt x="689" y="1190" on="1"/>
        <pt x="509" y="1190" on="0"/>
        <pt x="356" y="1047" on="0"/>
        <pt x="356" y="920" on="1"/>
        <pt x="356" y="352" on="1"/>
        <pt x="402" y="382" on="0"/>
        <pt x="478" y="382" on="1"/>
        <pt x="573" y="382" on="0"/>
        <pt x="621" y="334" on="1"/>
        <pt x="668" y="286" on="0"/>
        <pt x="668" y="190" on="1"/>
        <pt x="668" y="95" on="0"/>
        <pt x="620" y="47" on="1"/>
        <pt x="573" y="0" on="0"/>
        <pt x="478" y="0" on="1"/>
        <pt x="348" y="0" on="0"/>
        <pt x="273" y="52" on="1"/>
        <pt x="168" y="123" on="0"/>
        <pt x="168" y="295" on="1"/>
        <pt x="168" y="920" on="1"/>
        <pt x="168" y="1113" on="0"/>
        <pt x="413" y="1300" on="0"/>
        <pt x="689" y="1300" on="1"/>
        <pt x="964" y="1300" on="0"/>
        <pt x="1218" y="1113" on="0"/>
        <pt x="1218" y="920" on="1"/>
        <pt x="1218" y="200" on="1"/>
        <pt x="1218" y="105" on="0"/>
        <pt x="1168" y="0" on="1"/>
        <pt x="980" y="0" on="1"/>
        <pt x="1030" y="75" on="0"/>
        <pt x="1030" y="200" on="1"/>
      </contour>
    </TTGlyph>
    <TTGlyph name="uni0E94.am" xMin="168" yMin="0" xMax="1218" yMax="1850">
      <contour>
        <pt x="531" y="131" on="1"/>
        <pt x="553" y="150" on="0"/>
        <pt x="553" y="191" on="1"/>
        <pt x="553" y="227" on="0"/>
        <pt x="536" y="246" on="1"/>
        <pt x="517" y="267" on="0"/>
        <pt x="478" y="267" on="1"/>
        <pt x="402" y="267" on="0"/>
        <pt x="402" y="191" on="1"/>
        <pt x="402" y="146" on="0"/>
        <pt x="429" y="128" on="1"/>
        <pt x="447" y="116" on="0"/>
        <pt x="478" y="116" on="1"/>
        <pt x="512" y="116" on="0"/>
      </contour>
      <contour>
        <pt x="1030" y="920" on="1"/>
        <pt x="1030" y="1047" on="0"/>
        <pt x="869" y="1190" on="0"/>
        <pt x="689" y="1190" on="1"/>
        <pt x="509" y="1190" on="0"/>
        <pt x="356" y="1047" on="0"/>
        <pt x="356" y="920" on="1"/>
        <pt x="356" y="352" on="1"/>
        <pt x="402" y="382" on="0"/>
        <pt x="478" y="382" on="1"/>
        <pt x="573" y="382" on="0"/>
        <pt x="621" y="334" on="1"/>
        <pt x="668" y="286" on="0"/>
        <pt x="668" y="190" on="1"/>
        <pt x="668" y="95" on="0"/>
        <pt x="620" y="47" on="1"/>
        <pt x="573" y="0" on="0"/>
        <pt x="478" y="0" on="1"/>
        <pt x="348" y="0" on="0"/>
        <pt x="273" y="52" on="1"/>
        <pt x="168" y="123" on="0"/>
        <pt x="168" y="295" on="1"/>
        <pt x="168" y="920" on="1"/>
        <pt x="168" y="1113" on="0"/>
        <pt x="413" y="1300" on="0"/>
        <pt x="689" y="1300" on="1"/>
        <pt x="964" y="1300" on="0"/>
        <pt x="1218" y="1113" on="0"/>
        <pt x="1218" y="920" on="1"/>
        <pt x="1218" y="200" on="1"/>
        <pt x="1218" y="105" on="0"/>
        <pt x="1168" y="0" on="1"/>
        <pt x="980" y="0" on="1"/>
        <pt x="1030" y="75" on="0"/>
        <pt x="1030" y="200" on="1"/>
      </contour>
      <contour>
        <pt x="677" y="1730" on="0"/>
        <pt x="639" y="1709" on="0"/>
        <pt x="617" y="1671" on="0"/>
        <pt x="617" y="1650" on="1"/>
        <pt x="617" y="1629" on="0"/>
        <pt x="639" y="1591" on="0"/>
        <pt x="677" y="1570" on="0"/>
        <pt x="697" y="1570" on="1"/>
        <pt x="718" y="1570" on="0"/>
        <pt x="756" y="1591" on="0"/>
        <pt x="777" y="1629" on="0"/>
        <pt x="777" y="1650" on="1"/>
        <pt x="777" y="1671" on="0"/>
        <pt x="756" y="1709" on="0"/>
        <pt x="718" y="1730" on="0"/>
        <pt x="697" y="1730" on="1"/>
      </contour>
      <contour>
        <pt x="697" y="1850" on="1"/>
        <pt x="748" y="1850" on="0"/>
        <pt x="843" y="1798" on="0"/>
        <pt x="897" y="1702" on="0"/>
        <pt x="897" y="1650" on="1"/>
        <pt x="897" y="1598" on="0"/>
        <pt x="845" y="1503" on="0"/>
        <pt x="749" y="1450" on="0"/>
        <pt x="697" y="1450" on="1"/>
        <pt x="646" y="1450" on="0"/>
        <pt x="550" y="1503" on="0"/>
        <pt x="497" y="1598" on="0"/>
        <pt x="497" y="1650" on="1"/>
        <pt x="497" y="1702" on="0"/>
        <pt x="551" y="1798" on="0"/>
        <pt x="647" y="1850" on="0"/>
      </contour>
    </TTGlyph>
    <TTGlyph name="uni0E95" xMin="168" yMin="0" xMax="1218" yMax="1300">
      <contour>
        <pt x="531" y="131" on="1"/>
        <pt x="553" y="150" on="0"/>
        <pt x="553" y="191" on="1"/>
        <pt x="553" y="227" on="0"/>
        <pt x="536" y="246" on="1"/>
        <pt x="517" y="267" on="0"/>
        <pt x="478" y="267" on="1"/>
        <pt x="402" y="267" on="0"/>
        <pt x="402" y="191" on="1"/>
        <pt x="402" y="146" on="0"/>
        <pt x="429" y="128" on="1"/>
        <pt x="447" y="116" on="0"/>
        <pt x="478" y="116" on="1"/>
        <pt x="512" y="116" on="0"/>
      </contour>
      <contour>
        <pt x="356" y="352" on="1"/>
        <pt x="402" y="382" on="0"/>
        <pt x="478" y="382" on="1"/>
        <pt x="573" y="382" on="0"/>
        <pt x="621" y="334" on="1"/>
        <pt x="668" y="286" on="0"/>
        <pt x="668" y="190" on="1"/>
        <pt x="668" y="95" on="0"/>
        <pt x="620" y="47" on="1"/>
        <pt x="573" y="0" on="0"/>
        <pt x="478" y="0" on="1"/>
        <pt x="348" y="0" on="0"/>
        <pt x="273" y="52" on="1"/>
        <pt x="168" y="123" on="0"/>
        <pt x="168" y="295" on="1"/>
        <pt x="168" y="920" on="1"/>
        <pt x="168" y="1135" on="0"/>
        <pt x="263" y="1228" on="1"/>
        <pt x="335" y="1300" on="0"/>
        <pt x="464" y="1300" on="1"/>
        <pt x="597" y="1300" on="0"/>
        <pt x="693" y="1127" on="1"/>
        <pt x="789" y="1300" on="0"/>
        <pt x="922" y="1300" on="1"/>
        <pt x="1052" y="1300" on="0"/>
        <pt x="1126" y="1226" on="1"/>
        <pt x="1218" y="1132" on="0"/>
        <pt x="1218" y="920" on="1"/>
        <pt x="1218" y="200" on="1"/>
        <pt x="1218" y="105" on="0"/>
        <pt x="1168" y="0" on="1"/>
        <pt x="980" y="0" on="1"/>
        <pt x="1030" y="75" on="0"/>
        <pt x="1030" y="200" on="1"/>
        <pt x="1030" y="920" on="1"/>
        <pt x="1030" y="1066" on="0"/>
        <pt x="960" y="1186" on="0"/>
        <pt x="922" y="1186" on="1"/>
        <pt x="852" y="1186" on="0"/>
        <pt x="693" y="973" on="1"/>
        <pt x="534" y="1186" on="0"/>
        <pt x="464" y="1186" on="1"/>
        <pt x="426" y="1186" on="0"/>
        <pt x="356" y="1066" on="0"/>
        <pt x="356" y="920" on="1"/>
      </contour>
    </TTGlyph>
    <TTGlyph name="uni0E95.am" xMin="168" yMin="0" xMax="1218" yMax="1850">
      <contour>
        <pt x="531" y="131" on="1"/>
        <pt x="553" y="150" on="0"/>
        <pt x="553" y="191" on="1"/>
        <pt x="553" y="227" on="0"/>
        <pt x="536" y="246" on="1"/>
        <pt x="517" y="267" on="0"/>
        <pt x="478" y="267" on="1"/>
        <pt x="402" y="267" on="0"/>
        <pt x="402" y="191" on="1"/>
        <pt x="402" y="146" on="0"/>
        <pt x="429" y="128" on="1"/>
        <pt x="447" y="116" on="0"/>
        <pt x="478" y="116" on="1"/>
        <pt x="512" y="116" on="0"/>
      </contour>
      <contour>
        <pt x="356" y="352" on="1"/>
        <pt x="402" y="382" on="0"/>
        <pt x="478" y="382" on="1"/>
        <pt x="573" y="382" on="0"/>
        <pt x="621" y="334" on="1"/>
        <pt x="668" y="286" on="0"/>
        <pt x="668" y="190" on="1"/>
        <pt x="668" y="95" on="0"/>
        <pt x="620" y="47" on="1"/>
        <pt x="573" y="0" on="0"/>
        <pt x="478" y="0" on="1"/>
        <pt x="348" y="0" on="0"/>
        <pt x="273" y="52" on="1"/>
        <pt x="168" y="123" on="0"/>
        <pt x="168" y="295" on="1"/>
        <pt x="168" y="920" on="1"/>
        <pt x="168" y="1135" on="0"/>
        <pt x="263" y="1228" on="1"/>
        <pt x="335" y="1300" on="0"/>
        <pt x="464" y="1300" on="1"/>
        <pt x="597" y="1300" on="0"/>
        <pt x="693" y="1127" on="1"/>
        <pt x="789" y="1300" on="0"/>
        <pt x="922" y="1300" on="1"/>
        <pt x="1052" y="1300" on="0"/>
        <pt x="1126" y="1226" on="1"/>
        <pt x="1218" y="1132" on="0"/>
        <pt x="1218" y="920" on="1"/>
        <pt x="1218" y="200" on="1"/>
        <pt x="1218" y="105" on="0"/>
        <pt x="1168" y="0" on="1"/>
        <pt x="980" y="0" on="1"/>
        <pt x="1030" y="75" on="0"/>
        <pt x="1030" y="200" on="1"/>
        <pt x="1030" y="920" on="1"/>
        <pt x="1030" y="1066" on="0"/>
        <pt x="960" y="1186" on="0"/>
        <pt x="922" y="1186" on="1"/>
        <pt x="852" y="1186" on="0"/>
        <pt x="693" y="973" on="1"/>
        <pt x="534" y="1186" on="0"/>
        <pt x="464" y="1186" on="1"/>
        <pt x="426" y="1186" on="0"/>
        <pt x="356" y="1066" on="0"/>
        <pt x="356" y="920" on="1"/>
      </contour>
      <contour>
        <pt x="677" y="1730" on="0"/>
        <pt x="639" y="1709" on="0"/>
        <pt x="617" y="1671" on="0"/>
        <pt x="617" y="1650" on="1"/>
        <pt x="617" y="1629" on="0"/>
        <pt x="639" y="1591" on="0"/>
        <pt x="677" y="1570" on="0"/>
        <pt x="697" y="1570" on="1"/>
        <pt x="718" y="1570" on="0"/>
        <pt x="756" y="1591" on="0"/>
        <pt x="777" y="1629" on="0"/>
        <pt x="777" y="1650" on="1"/>
        <pt x="777" y="1671" on="0"/>
        <pt x="756" y="1709" on="0"/>
        <pt x="718" y="1730" on="0"/>
        <pt x="697" y="1730" on="1"/>
      </contour>
      <contour>
        <pt x="697" y="1850" on="1"/>
        <pt x="748" y="1850" on="0"/>
        <pt x="843" y="1798" on="0"/>
        <pt x="897" y="1702" on="0"/>
        <pt x="897" y="1650" on="1"/>
        <pt x="897" y="1598" on="0"/>
        <pt x="845" y="1503" on="0"/>
        <pt x="749" y="1450" on="0"/>
        <pt x="697" y="1450" on="1"/>
        <pt x="646" y="1450" on="0"/>
        <pt x="550" y="1503" on="0"/>
        <pt x="497" y="1598" on="0"/>
        <pt x="497" y="1650" on="1"/>
        <pt x="497" y="1702" on="0"/>
        <pt x="551" y="1798" on="0"/>
        <pt x="647" y="1850" on="0"/>
      </contour>
    </TTGlyph>
    <TTGlyph name="uni0E96" xMin="82" yMin="-400" xMax="1368" yMax="1300">
      <contour>
        <pt x="595" y="267" on="1"/>
        <pt x="519" y="267" on="0"/>
        <pt x="519" y="191" on="1"/>
        <pt x="519" y="116" on="0"/>
        <pt x="595" y="116" on="1"/>
        <pt x="670" y="116" on="0"/>
        <pt x="670" y="191" on="1"/>
        <pt x="670" y="267" on="0"/>
      </contour>
      <contour>
        <pt x="340" y="1045" on="1"/>
        <pt x="340" y="1068" on="1"/>
        <pt x="340" y="1186" on="0"/>
        <pt x="268" y="1186" on="1"/>
        <pt x="198" y="1186" on="0"/>
        <pt x="198" y="1115" on="1"/>
        <pt x="198" y="1044" on="0"/>
        <pt x="311" y="1044" on="1"/>
        <pt x="326" y="1044" on="0"/>
      </contour>
      <contour>
        <pt x="528" y="375" on="1"/>
        <pt x="558" y="382" on="0"/>
        <pt x="595" y="382" on="1"/>
        <pt x="696" y="382" on="0"/>
        <pt x="744" y="328" on="1"/>
        <pt x="786" y="281" on="0"/>
        <pt x="786" y="191" on="1"/>
        <pt x="786" y="102" on="0"/>
        <pt x="744" y="54" on="1"/>
        <pt x="697" y="0" on="0"/>
        <pt x="595" y="0" on="1"/>
        <pt x="474" y="0" on="0"/>
        <pt x="411" y="58" on="1"/>
        <pt x="340" y="123" on="0"/>
        <pt x="340" y="260" on="1"/>
        <pt x="340" y="930" on="1"/>
        <pt x="313" y="930" on="1"/>
        <pt x="189" y="930" on="0"/>
        <pt x="132" y="983" on="1"/>
        <pt x="82" y="1029" on="0"/>
        <pt x="82" y="1115" on="1"/>
        <pt x="82" y="1209" on="0"/>
        <pt x="131" y="1255" on="1"/>
        <pt x="179" y="1300" on="0"/>
        <pt x="273" y="1300" on="1"/>
        <pt x="475" y="1300" on="0"/>
        <pt x="517" y="1159" on="1"/>
        <pt x="628" y="1300" on="0"/>
        <pt x="846" y="1300" on="1"/>
        <pt x="1063" y="1300" on="0"/>
        <pt x="1278" y="1124" on="0"/>
        <pt x="1278" y="950" on="1"/>
        <pt x="1278" y="-100" on="1"/>
        <pt x="1278" y="-305" on="0"/>
        <pt x="1368" y="-400" on="1"/>
        <pt x="1250" y="-400" on="0"/>
        <pt x="1090" y="-225" on="0"/>
        <pt x="1090" y="-100" on="1"/>
        <pt x="1090" y="950" on="1"/>
        <pt x="1090" y="1039" on="0"/>
        <pt x="968" y="1190" on="0"/>
        <pt x="846" y="1190" on="1"/>
        <pt x="658" y="1190" on="0"/>
        <pt x="561" y="1033" on="1"/>
        <pt x="528" y="985" on="1"/>
      </contour>
    </TTGlyph>
    <TTGlyph name="uni0E96.am" xMin="82" yMin="-400" xMax="1368" yMax="1850">
      <contour>
        <pt x="595" y="267" on="1"/>
        <pt x="519" y="267" on="0"/>
        <pt x="519" y="191" on="1"/>
        <pt x="519" y="116" on="0"/>
        <pt x="595" y="116" on="1"/>
        <pt x="670" y="116" on="0"/>
        <pt x="670" y="191" on="1"/>
        <pt x="670" y="267" on="0"/>
      </contour>
      <contour>
        <pt x="340" y="1045" on="1"/>
        <pt x="340" y="1068" on="1"/>
        <pt x="340" y="1186" on="0"/>
        <pt x="268" y="1186" on="1"/>
        <pt x="198" y="1186" on="0"/>
        <pt x="198" y="1115" on="1"/>
        <pt x="198" y="1044" on="0"/>
        <pt x="311" y="1044" on="1"/>
        <pt x="326" y="1044" on="0"/>
      </contour>
      <contour>
        <pt x="528" y="375" on="1"/>
        <pt x="558" y="382" on="0"/>
        <pt x="595" y="382" on="1"/>
        <pt x="696" y="382" on="0"/>
        <pt x="744" y="328" on="1"/>
        <pt x="786" y="281" on="0"/>
        <pt x="786" y="191" on="1"/>
        <pt x="786" y="102" on="0"/>
        <pt x="744" y="54" on="1"/>
        <pt x="697" y="0" on="0"/>
        <pt x="595" y="0" on="1"/>
        <pt x="474" y="0" on="0"/>
        <pt x="411" y="58" on="1"/>
        <pt x="340" y="123" on="0"/>
        <pt x="340" y="260" on="1"/>
        <pt x="340" y="930" on="1"/>
        <pt x="313" y="930" on="1"/>
        <pt x="189" y="930" on="0"/>
        <pt x="132" y="983" on="1"/>
        <pt x="82" y="1029" on="0"/>
        <pt x="82" y="1115" on="1"/>
        <pt x="82" y="1209" on="0"/>
        <pt x="131" y="1255" on="1"/>
        <pt x="179" y="1300" on="0"/>
        <pt x="273" y="1300" on="1"/>
        <pt x="475" y="1300" on="0"/>
        <pt x="517" y="1159" on="1"/>
        <pt x="628" y="1300" on="0"/>
        <pt x="846" y="1300" on="1"/>
        <pt x="1063" y="1300" on="0"/>
        <pt x="1278" y="1124" on="0"/>
        <pt x="1278" y="950" on="1"/>
        <pt x="1278" y="-100" on="1"/>
        <pt x="1278" y="-305" on="0"/>
        <pt x="1368" y="-400" on="1"/>
        <pt x="1250" y="-400" on="0"/>
        <pt x="1090" y="-225" on="0"/>
        <pt x="1090" y="-100" on="1"/>
        <pt x="1090" y="950" on="1"/>
        <pt x="1090" y="1039" on="0"/>
        <pt x="968" y="1190" on="0"/>
        <pt x="846" y="1190" on="1"/>
        <pt x="658" y="1190" on="0"/>
        <pt x="561" y="1033" on="1"/>
        <pt x="528" y="985" on="1"/>
      </contour>
      <contour>
        <pt x="847" y="1730" on="0"/>
        <pt x="809" y="1709" on="0"/>
        <pt x="787" y="1671" on="0"/>
        <pt x="787" y="1650" on="1"/>
        <pt x="787" y="1629" on="0"/>
        <pt x="809" y="1591" on="0"/>
        <pt x="847" y="1570" on="0"/>
        <pt x="867" y="1570" on="1"/>
        <pt x="888" y="1570" on="0"/>
        <pt x="926" y="1591" on="0"/>
        <pt x="947" y="1629" on="0"/>
        <pt x="947" y="1650" on="1"/>
        <pt x="947" y="1671" on="0"/>
        <pt x="926" y="1709" on="0"/>
        <pt x="888" y="1730" on="0"/>
        <pt x="867" y="1730" on="1"/>
      </contour>
      <contour>
        <pt x="867" y="1850" on="1"/>
        <pt x="918" y="1850" on="0"/>
        <pt x="1013" y="1798" on="0"/>
        <pt x="1067" y="1702" on="0"/>
        <pt x="1067" y="1650" on="1"/>
        <pt x="1067" y="1598" on="0"/>
        <pt x="1015" y="1503" on="0"/>
        <pt x="919" y="1450" on="0"/>
        <pt x="867" y="1450" on="1"/>
        <pt x="816" y="1450" on="0"/>
        <pt x="720" y="1503" on="0"/>
        <pt x="667" y="1598" on="0"/>
        <pt x="667" y="1650" on="1"/>
        <pt x="667" y="1702" on="0"/>
        <pt x="721" y="1798" on="0"/>
        <pt x="817" y="1850" on="0"/>
      </contour>
    </TTGlyph>
    <TTGlyph name="uni0E97" xMin="147" yMin="0" xMax="1465" yMax="1300">
      <contour>
        <pt x="317" y="1055" on="1"/>
        <pt x="381" y="1055" on="0"/>
        <pt x="381" y="1118" on="1"/>
        <pt x="381" y="1182" on="0"/>
        <pt x="317" y="1182" on="1"/>
        <pt x="253" y="1182" on="0"/>
        <pt x="253" y="1118" on="1"/>
        <pt x="253" y="1055" on="0"/>
      </contour>
      <contour>
        <pt x="1277" y="905" on="1"/>
        <pt x="1277" y="1099" on="0"/>
        <pt x="1183" y="1190" on="0"/>
        <pt x="1096" y="1190" on="1"/>
        <pt x="1009" y="1190" on="0"/>
        <pt x="915" y="1100" on="0"/>
        <pt x="915" y="905" on="1"/>
        <pt x="915" y="374" on="1"/>
        <pt x="915" y="164" on="0"/>
        <pt x="816" y="79" on="1"/>
        <pt x="725" y="0" on="0"/>
        <pt x="531" y="0" on="1"/>
        <pt x="338" y="0" on="0"/>
        <pt x="247" y="78" on="1"/>
        <pt x="147" y="164" on="0"/>
        <pt x="147" y="374" on="1"/>
        <pt x="147" y="692" on="0"/>
        <pt x="263" y="847" on="1"/>
        <pt x="303" y="899" on="0"/>
        <pt x="330" y="946" on="1"/>
        <pt x="239" y="947" on="0"/>
        <pt x="147" y="1033" on="0"/>
        <pt x="147" y="1118" on="1"/>
        <pt x="147" y="1209" on="0"/>
        <pt x="240" y="1300" on="0"/>
        <pt x="332" y="1300" on="1"/>
        <pt x="436" y="1300" on="0"/>
        <pt x="539" y="1209" on="0"/>
        <pt x="539" y="1118" on="1"/>
        <pt x="539" y="992" on="0"/>
        <pt x="335" y="648" on="0"/>
        <pt x="335" y="374" on="1"/>
        <pt x="335" y="206" on="0"/>
        <pt x="430" y="110" on="0"/>
        <pt x="531" y="110" on="1"/>
        <pt x="634" y="110" on="0"/>
        <pt x="727" y="208" on="0"/>
        <pt x="727" y="374" on="1"/>
        <pt x="727" y="905" on="1"/>
        <pt x="727" y="1135" on="0"/>
        <pt x="832" y="1225" on="1"/>
        <pt x="918" y="1300" on="0"/>
        <pt x="1096" y="1300" on="1"/>
        <pt x="1274" y="1300" on="0"/>
        <pt x="1361" y="1225" on="1"/>
        <pt x="1465" y="1134" on="0"/>
        <pt x="1465" y="905" on="1"/>
        <pt x="1465" y="200" on="1"/>
        <pt x="1465" y="105" on="0"/>
        <pt x="1415" y="0" on="1"/>
        <pt x="1227" y="0" on="1"/>
        <pt x="1277" y="75" on="0"/>
        <pt x="1277" y="200" on="1"/>
      </contour>
    </TTGlyph>
    <TTGlyph name="uni0E97.am" xMin="147" yMin="0" xMax="1465" yMax="1850">
      <contour>
        <pt x="317" y="1055" on="1"/>
        <pt x="381" y="1055" on="0"/>
        <pt x="381" y="1118" on="1"/>
        <pt x="381" y="1182" on="0"/>
        <pt x="317" y="1182" on="1"/>
        <pt x="253" y="1182" on="0"/>
        <pt x="253" y="1118" on="1"/>
        <pt x="253" y="1055" on="0"/>
      </contour>
      <contour>
        <pt x="1277" y="905" on="1"/>
        <pt x="1277" y="1099" on="0"/>
        <pt x="1183" y="1190" on="0"/>
        <pt x="1096" y="1190" on="1"/>
        <pt x="1009" y="1190" on="0"/>
        <pt x="915" y="1100" on="0"/>
        <pt x="915" y="905" on="1"/>
        <pt x="915" y="374" on="1"/>
        <pt x="915" y="164" on="0"/>
        <pt x="816" y="79" on="1"/>
        <pt x="725" y="0" on="0"/>
        <pt x="531" y="0" on="1"/>
        <pt x="338" y="0" on="0"/>
        <pt x="247" y="78" on="1"/>
        <pt x="147" y="164" on="0"/>
        <pt x="147" y="374" on="1"/>
        <pt x="147" y="692" on="0"/>
        <pt x="263" y="847" on="1"/>
        <pt x="303" y="899" on="0"/>
        <pt x="330" y="946" on="1"/>
        <pt x="239" y="947" on="0"/>
        <pt x="147" y="1033" on="0"/>
        <pt x="147" y="1118" on="1"/>
        <pt x="147" y="1209" on="0"/>
        <pt x="240" y="1300" on="0"/>
        <pt x="332" y="1300" on="1"/>
        <pt x="436" y="1300" on="0"/>
        <pt x="539" y="1209" on="0"/>
        <pt x="539" y="1118" on="1"/>
        <pt x="539" y="992" on="0"/>
        <pt x="335" y="648" on="0"/>
        <pt x="335" y="374" on="1"/>
        <pt x="335" y="206" on="0"/>
        <pt x="430" y="110" on="0"/>
        <pt x="531" y="110" on="1"/>
        <pt x="634" y="110" on="0"/>
        <pt x="727" y="208" on="0"/>
        <pt x="727" y="374" on="1"/>
        <pt x="727" y="905" on="1"/>
        <pt x="727" y="1135" on="0"/>
        <pt x="832" y="1225" on="1"/>
        <pt x="918" y="1300" on="0"/>
        <pt x="1096" y="1300" on="1"/>
        <pt x="1274" y="1300" on="0"/>
        <pt x="1361" y="1225" on="1"/>
        <pt x="1465" y="1134" on="0"/>
        <pt x="1465" y="905" on="1"/>
        <pt x="1465" y="200" on="1"/>
        <pt x="1465" y="105" on="0"/>
        <pt x="1415" y="0" on="1"/>
        <pt x="1227" y="0" on="1"/>
        <pt x="1277" y="75" on="0"/>
        <pt x="1277" y="200" on="1"/>
      </contour>
      <contour>
        <pt x="1087" y="1730" on="0"/>
        <pt x="1049" y="1709" on="0"/>
        <pt x="1027" y="1671" on="0"/>
        <pt x="1027" y="1650" on="1"/>
        <pt x="1027" y="1629" on="0"/>
        <pt x="1049" y="1591" on="0"/>
        <pt x="1087" y="1570" on="0"/>
        <pt x="1107" y="1570" on="1"/>
        <pt x="1128" y="1570" on="0"/>
        <pt x="1166" y="1591" on="0"/>
        <pt x="1187" y="1629" on="0"/>
        <pt x="1187" y="1650" on="1"/>
        <pt x="1187" y="1671" on="0"/>
        <pt x="1166" y="1709" on="0"/>
        <pt x="1128" y="1730" on="0"/>
        <pt x="1107" y="1730" on="1"/>
      </contour>
      <contour>
        <pt x="1107" y="1850" on="1"/>
        <pt x="1158" y="1850" on="0"/>
        <pt x="1253" y="1798" on="0"/>
        <pt x="1307" y="1702" on="0"/>
        <pt x="1307" y="1650" on="1"/>
        <pt x="1307" y="1598" on="0"/>
        <pt x="1255" y="1503" on="0"/>
        <pt x="1159" y="1450" on="0"/>
        <pt x="1107" y="1450" on="1"/>
        <pt x="1056" y="1450" on="0"/>
        <pt x="960" y="1503" on="0"/>
        <pt x="907" y="1598" on="0"/>
        <pt x="907" y="1650" on="1"/>
        <pt x="907" y="1702" on="0"/>
        <pt x="961" y="1798" on="0"/>
        <pt x="1057" y="1850" on="0"/>
      </contour>
    </TTGlyph>
    <TTGlyph name="uni0E99" xMin="82" yMin="0" xMax="1278" yMax="1300">
      <contour>
        <pt x="273" y="1033" on="1"/>
        <pt x="349" y="1033" on="0"/>
        <pt x="349" y="1109" on="1"/>
        <pt x="349" y="1184" on="0"/>
        <pt x="273" y="1184" on="1"/>
        <pt x="198" y="1184" on="0"/>
        <pt x="198" y="1109" on="1"/>
        <pt x="198" y="1033" on="0"/>
      </contour>
      <contour>
        <pt x="340" y="925" on="1"/>
        <pt x="310" y="918" on="0"/>
        <pt x="273" y="918" on="1"/>
        <pt x="172" y="918" on="0"/>
        <pt x="124" y="972" on="1"/>
        <pt x="82" y="1019" on="0"/>
        <pt x="82" y="1109" on="1"/>
        <pt x="82" y="1198" on="0"/>
        <pt x="124" y="1246" on="1"/>
        <pt x="171" y="1300" on="0"/>
        <pt x="273" y="1300" on="1"/>
        <pt x="394" y="1300" on="0"/>
        <pt x="457" y="1242" on="1"/>
        <pt x="528" y="1177" on="0"/>
        <pt x="528" y="1040" on="1"/>
        <pt x="528" y="390" on="1"/>
        <pt x="528" y="307" on="0"/>
        <pt x="519" y="252" on="1"/>
        <pt x="577" y="247" on="0"/>
        <pt x="634" y="190" on="1"/>
        <pt x="691" y="110" on="0"/>
        <pt x="849" y="110" on="1"/>
        <pt x="968" y="110" on="0"/>
        <pt x="1090" y="256" on="0"/>
        <pt x="1090" y="360" on="1"/>
        <pt x="1090" y="1100" on="1"/>
        <pt x="1090" y="1225" on="0"/>
        <pt x="1040" y="1300" on="1"/>
        <pt x="1228" y="1300" on="1"/>
        <pt x="1278" y="1195" on="0"/>
        <pt x="1278" y="1100" on="1"/>
        <pt x="1278" y="360" on="1"/>
        <pt x="1278" y="183" on="0"/>
        <pt x="1071" y="0" on="0"/>
        <pt x="869" y="0" on="1"/>
        <pt x="648" y="0" on="0"/>
        <pt x="550" y="106" on="1"/>
        <pt x="517" y="141" on="0"/>
        <pt x="479" y="144" on="1"/>
        <pt x="391" y="0" on="0"/>
        <pt x="147" y="0" on="1"/>
        <pt x="147" y="144" on="1"/>
        <pt x="244" y="144" on="0"/>
        <pt x="340" y="247" on="0"/>
        <pt x="340" y="390" on="1"/>
      </contour>
    </TTGlyph>
    <TTGlyph name="uni0E99.am" xMin="82" yMin="0" xMax="1278" yMax="1850">
      <contour>
        <pt x="273" y="1033" on="1"/>
        <pt x="349" y="1033" on="0"/>
        <pt x="349" y="1109" on="1"/>
        <pt x="349" y="1184" on="0"/>
        <pt x="273" y="1184" on="1"/>
        <pt x="198" y="1184" on="0"/>
        <pt x="198" y="1109" on="1"/>
        <pt x="198" y="1033" on="0"/>
      </contour>
      <contour>
        <pt x="340" y="925" on="1"/>
        <pt x="310" y="918" on="0"/>
        <pt x="273" y="918" on="1"/>
        <pt x="172" y="918" on="0"/>
        <pt x="124" y="972" on="1"/>
        <pt x="82" y="1019" on="0"/>
        <pt x="82" y="1109" on="1"/>
        <pt x="82" y="1198" on="0"/>
        <pt x="124" y="1246" on="1"/>
        <pt x="171" y="1300" on="0"/>
        <pt x="273" y="1300" on="1"/>
        <pt x="394" y="1300" on="0"/>
        <pt x="457" y="1242" on="1"/>
        <pt x="528" y="1177" on="0"/>
        <pt x="528" y="1040" on="1"/>
        <pt x="528" y="390" on="1"/>
        <pt x="528" y="307" on="0"/>
        <pt x="519" y="252" on="1"/>
        <pt x="577" y="247" on="0"/>
        <pt x="634" y="190" on="1"/>
        <pt x="691" y="110" on="0"/>
        <pt x="849" y="110" on="1"/>
        <pt x="968" y="110" on="0"/>
        <pt x="1090" y="256" on="0"/>
        <pt x="1090" y="360" on="1"/>
        <pt x="1090" y="1100" on="1"/>
        <pt x="1090" y="1225" on="0"/>
        <pt x="1040" y="1300" on="1"/>
        <pt x="1228" y="1300" on="1"/>
        <pt x="1278" y="1195" on="0"/>
        <pt x="1278" y="1100" on="1"/>
        <pt x="1278" y="360" on="1"/>
        <pt x="1278" y="183" on="0"/>
        <pt x="1071" y="0" on="0"/>
        <pt x="869" y="0" on="1"/>
        <pt x="648" y="0" on="0"/>
        <pt x="550" y="106" on="1"/>
        <pt x="517" y="141" on="0"/>
        <pt x="479" y="144" on="1"/>
        <pt x="391" y="0" on="0"/>
        <pt x="147" y="0" on="1"/>
        <pt x="147" y="144" on="1"/>
        <pt x="244" y="144" on="0"/>
        <pt x="340" y="247" on="0"/>
        <pt x="340" y="390" on="1"/>
      </contour>
      <contour>
        <pt x="677" y="1730" on="0"/>
        <pt x="639" y="1709" on="0"/>
        <pt x="617" y="1671" on="0"/>
        <pt x="617" y="1650" on="1"/>
        <pt x="617" y="1629" on="0"/>
        <pt x="639" y="1591" on="0"/>
        <pt x="677" y="1570" on="0"/>
        <pt x="697" y="1570" on="1"/>
        <pt x="718" y="1570" on="0"/>
        <pt x="756" y="1591" on="0"/>
        <pt x="777" y="1629" on="0"/>
        <pt x="777" y="1650" on="1"/>
        <pt x="777" y="1671" on="0"/>
        <pt x="756" y="1709" on="0"/>
        <pt x="718" y="1730" on="0"/>
        <pt x="697" y="1730" on="1"/>
      </contour>
      <contour>
        <pt x="697" y="1850" on="1"/>
        <pt x="748" y="1850" on="0"/>
        <pt x="843" y="1798" on="0"/>
        <pt x="897" y="1702" on="0"/>
        <pt x="897" y="1650" on="1"/>
        <pt x="897" y="1598" on="0"/>
        <pt x="845" y="1503" on="0"/>
        <pt x="749" y="1450" on="0"/>
        <pt x="697" y="1450" on="1"/>
        <pt x="646" y="1450" on="0"/>
        <pt x="550" y="1503" on="0"/>
        <pt x="497" y="1598" on="0"/>
        <pt x="497" y="1650" on="1"/>
        <pt x="497" y="1702" on="0"/>
        <pt x="551" y="1798" on="0"/>
        <pt x="647" y="1850" on="0"/>
      </contour>
    </TTGlyph>
    <TTGlyph name="uni0E9A" xMin="147" yMin="0" xMax="1197" yMax="1300">
      <contour>
        <pt x="310" y="1053" on="1"/>
        <pt x="371" y="1053" on="0"/>
        <pt x="371" y="1117" on="1"/>
        <pt x="371" y="1180" on="0"/>
        <pt x="310" y="1180" on="1"/>
        <pt x="249" y="1180" on="0"/>
        <pt x="249" y="1117" on="1"/>
        <pt x="249" y="1053" on="0"/>
      </contour>
      <contour>
        <pt x="1197" y="430" on="1"/>
        <pt x="1197" y="190" on="0"/>
        <pt x="1072" y="95" on="1"/>
        <pt x="947" y="0" on="0"/>
        <pt x="671" y="0" on="1"/>
        <pt x="395" y="0" on="0"/>
        <pt x="270" y="92" on="1"/>
        <pt x="147" y="183" on="0"/>
        <pt x="147" y="413" on="1"/>
        <pt x="147" y="691" on="0"/>
        <pt x="259" y="846" on="1"/>
        <pt x="297" y="898" on="0"/>
        <pt x="322" y="945" on="1"/>
        <pt x="230" y="946" on="0"/>
        <pt x="186" y="994" on="1"/>
        <pt x="147" y="1037" on="0"/>
        <pt x="147" y="1117" on="1"/>
        <pt x="147" y="1206" on="0"/>
        <pt x="189" y="1251" on="1"/>
        <pt x="233" y="1300" on="0"/>
        <pt x="325" y="1300" on="1"/>
        <pt x="426" y="1300" on="0"/>
        <pt x="476" y="1252" on="1"/>
        <pt x="523" y="1206" on="0"/>
        <pt x="523" y="1117" on="1"/>
        <pt x="523" y="970" on="0"/>
        <pt x="335" y="647" on="0"/>
        <pt x="335" y="413" on="1"/>
        <pt x="335" y="223" on="0"/>
        <pt x="491" y="110" on="0"/>
        <pt x="672" y="110" on="1"/>
        <pt x="852" y="110" on="0"/>
        <pt x="1009" y="232" on="0"/>
        <pt x="1009" y="430" on="1"/>
        <pt x="1009" y="1100" on="1"/>
        <pt x="1009" y="1225" on="0"/>
        <pt x="959" y="1300" on="1"/>
        <pt x="1147" y="1300" on="1"/>
        <pt x="1197" y="1195" on="0"/>
        <pt x="1197" y="1100" on="1"/>
      </contour>
    </TTGlyph>
    <TTGlyph name="uni0E9A.am" xMin="147" yMin="0" xMax="1197" yMax="1850">
      <contour>
        <pt x="310" y="1053" on="1"/>
        <pt x="371" y="1053" on="0"/>
        <pt x="371" y="1117" on="1"/>
        <pt x="371" y="1180" on="0"/>
        <pt x="310" y="1180" on="1"/>
        <pt x="249" y="1180" on="0"/>
        <pt x="249" y="1117" on="1"/>
        <pt x="249" y="1053" on="0"/>
      </contour>
      <contour>
        <pt x="1197" y="430" on="1"/>
        <pt x="1197" y="190" on="0"/>
        <pt x="1072" y="95" on="1"/>
        <pt x="947" y="0" on="0"/>
        <pt x="671" y="0" on="1"/>
        <pt x="395" y="0" on="0"/>
        <pt x="270" y="92" on="1"/>
        <pt x="147" y="183" on="0"/>
        <pt x="147" y="413" on="1"/>
        <pt x="147" y="691" on="0"/>
        <pt x="259" y="846" on="1"/>
        <pt x="297" y="898" on="0"/>
        <pt x="322" y="945" on="1"/>
        <pt x="230" y="946" on="0"/>
        <pt x="186" y="994" on="1"/>
        <pt x="147" y="1037" on="0"/>
        <pt x="147" y="1117" on="1"/>
        <pt x="147" y="1206" on="0"/>
        <pt x="189" y="1251" on="1"/>
        <pt x="233" y="1300" on="0"/>
        <pt x="325" y="1300" on="1"/>
        <pt x="426" y="1300" on="0"/>
        <pt x="476" y="1252" on="1"/>
        <pt x="523" y="1206" on="0"/>
        <pt x="523" y="1117" on="1"/>
        <pt x="523" y="970" on="0"/>
        <pt x="335" y="647" on="0"/>
        <pt x="335" y="413" on="1"/>
        <pt x="335" y="223" on="0"/>
        <pt x="491" y="110" on="0"/>
        <pt x="672" y="110" on="1"/>
        <pt x="852" y="110" on="0"/>
        <pt x="1009" y="232" on="0"/>
        <pt x="1009" y="430" on="1"/>
        <pt x="1009" y="1100" on="1"/>
        <pt x="1009" y="1225" on="0"/>
        <pt x="959" y="1300" on="1"/>
        <pt x="1147" y="1300" on="1"/>
        <pt x="1197" y="1195" on="0"/>
        <pt x="1197" y="1100" on="1"/>
      </contour>
      <contour>
        <pt x="677" y="1730" on="0"/>
        <pt x="639" y="1709" on="0"/>
        <pt x="617" y="1671" on="0"/>
        <pt x="617" y="1650" on="1"/>
        <pt x="617" y="1629" on="0"/>
        <pt x="639" y="1591" on="0"/>
        <pt x="677" y="1570" on="0"/>
        <pt x="697" y="1570" on="1"/>
        <pt x="718" y="1570" on="0"/>
        <pt x="756" y="1591" on="0"/>
        <pt x="777" y="1629" on="0"/>
        <pt x="777" y="1650" on="1"/>
        <pt x="777" y="1671" on="0"/>
        <pt x="756" y="1709" on="0"/>
        <pt x="718" y="1730" on="0"/>
        <pt x="697" y="1730" on="1"/>
      </contour>
      <contour>
        <pt x="697" y="1850" on="1"/>
        <pt x="748" y="1850" on="0"/>
        <pt x="843" y="1798" on="0"/>
        <pt x="897" y="1702" on="0"/>
        <pt x="897" y="1650" on="1"/>
        <pt x="897" y="1598" on="0"/>
        <pt x="845" y="1503" on="0"/>
        <pt x="749" y="1450" on="0"/>
        <pt x="697" y="1450" on="1"/>
        <pt x="646" y="1450" on="0"/>
        <pt x="550" y="1503" on="0"/>
        <pt x="497" y="1598" on="0"/>
        <pt x="497" y="1650" on="1"/>
        <pt x="497" y="1702" on="0"/>
        <pt x="551" y="1798" on="0"/>
        <pt x="647" y="1850" on="0"/>
      </contour>
    </TTGlyph>
    <TTGlyph name="uni0E9B" xMin="147" yMin="0" xMax="1280" yMax="1635">
      <contour>
        <pt x="310" y="1053" on="1"/>
        <pt x="371" y="1053" on="0"/>
        <pt x="371" y="1117" on="1"/>
        <pt x="371" y="1180" on="0"/>
        <pt x="310" y="1180" on="1"/>
        <pt x="249" y="1180" on="0"/>
        <pt x="249" y="1117" on="1"/>
        <pt x="249" y="1053" on="0"/>
      </contour>
      <contour>
        <pt x="1197" y="430" on="1"/>
        <pt x="1197" y="190" on="0"/>
        <pt x="1072" y="95" on="1"/>
        <pt x="947" y="0" on="0"/>
        <pt x="671" y="0" on="1"/>
        <pt x="395" y="0" on="0"/>
        <pt x="270" y="92" on="1"/>
        <pt x="147" y="183" on="0"/>
        <pt x="147" y="413" on="1"/>
        <pt x="147" y="691" on="0"/>
        <pt x="259" y="846" on="1"/>
        <pt x="297" y="898" on="0"/>
        <pt x="322" y="945" on="1"/>
        <pt x="230" y="946" on="0"/>
        <pt x="186" y="994" on="1"/>
        <pt x="147" y="1037" on="0"/>
        <pt x="147" y="1117" on="1"/>
        <pt x="147" y="1206" on="0"/>
        <pt x="189" y="1251" on="1"/>
        <pt x="233" y="1300" on="0"/>
        <pt x="325" y="1300" on="1"/>
        <pt x="426" y="1300" on="0"/>
        <pt x="476" y="1252" on="1"/>
        <pt x="523" y="1206" on="0"/>
        <pt x="523" y="1117" on="1"/>
        <pt x="523" y="970" on="0"/>
        <pt x="335" y="647" on="0"/>
        <pt x="335" y="413" on="1"/>
        <pt x="335" y="223" on="0"/>
        <pt x="491" y="110" on="0"/>
        <pt x="672" y="110" on="1"/>
        <pt x="852" y="110" on="0"/>
        <pt x="1009" y="232" on="0"/>
        <pt x="1009" y="430" on="1"/>
        <pt x="1009" y="1270" on="1"/>
        <pt x="1009" y="1355" on="0"/>
        <pt x="1116" y="1575" on="0"/>
        <pt x="1280" y="1635" on="1"/>
        <pt x="1197" y="1485" on="0"/>
        <pt x="1197" y="1270" on="1"/>
      </contour>
    </TTGlyph>
    <TTGlyph name="uni0E9B.am" xMin="147" yMin="0" xMax="1280" yMax="1850">
      <contour>
        <pt x="310" y="1053" on="1"/>
        <pt x="371" y="1053" on="0"/>
        <pt x="371" y="1117" on="1"/>
        <pt x="371" y="1180" on="0"/>
        <pt x="310" y="1180" on="1"/>
        <pt x="249" y="1180" on="0"/>
        <pt x="249" y="1117" on="1"/>
        <pt x="249" y="1053" on="0"/>
      </contour>
      <contour>
        <pt x="1197" y="430" on="1"/>
        <pt x="1197" y="190" on="0"/>
        <pt x="1072" y="95" on="1"/>
        <pt x="947" y="0" on="0"/>
        <pt x="671" y="0" on="1"/>
        <pt x="395" y="0" on="0"/>
        <pt x="270" y="92" on="1"/>
        <pt x="147" y="183" on="0"/>
        <pt x="147" y="413" on="1"/>
        <pt x="147" y="691" on="0"/>
        <pt x="259" y="846" on="1"/>
        <pt x="297" y="898" on="0"/>
        <pt x="322" y="945" on="1"/>
        <pt x="230" y="946" on="0"/>
        <pt x="186" y="994" on="1"/>
        <pt x="147" y="1037" on="0"/>
        <pt x="147" y="1117" on="1"/>
        <pt x="147" y="1206" on="0"/>
        <pt x="189" y="1251" on="1"/>
        <pt x="233" y="1300" on="0"/>
        <pt x="325" y="1300" on="1"/>
        <pt x="426" y="1300" on="0"/>
        <pt x="476" y="1252" on="1"/>
        <pt x="523" y="1206" on="0"/>
        <pt x="523" y="1117" on="1"/>
        <pt x="523" y="970" on="0"/>
        <pt x="335" y="647" on="0"/>
        <pt x="335" y="413" on="1"/>
        <pt x="335" y="223" on="0"/>
        <pt x="491" y="110" on="0"/>
        <pt x="672" y="110" on="1"/>
        <pt x="852" y="110" on="0"/>
        <pt x="1009" y="232" on="0"/>
        <pt x="1009" y="430" on="1"/>
        <pt x="1009" y="1270" on="1"/>
        <pt x="1009" y="1355" on="0"/>
        <pt x="1116" y="1575" on="0"/>
        <pt x="1280" y="1635" on="1"/>
        <pt x="1197" y="1485" on="0"/>
        <pt x="1197" y="1270" on="1"/>
      </contour>
      <contour>
        <pt x="677" y="1730" on="0"/>
        <pt x="639" y="1709" on="0"/>
        <pt x="617" y="1671" on="0"/>
        <pt x="617" y="1650" on="1"/>
        <pt x="617" y="1629" on="0"/>
        <pt x="639" y="1591" on="0"/>
        <pt x="677" y="1570" on="0"/>
        <pt x="697" y="1570" on="1"/>
        <pt x="718" y="1570" on="0"/>
        <pt x="756" y="1591" on="0"/>
        <pt x="777" y="1629" on="0"/>
        <pt x="777" y="1650" on="1"/>
        <pt x="777" y="1671" on="0"/>
        <pt x="756" y="1709" on="0"/>
        <pt x="718" y="1730" on="0"/>
        <pt x="697" y="1730" on="1"/>
      </contour>
      <contour>
        <pt x="697" y="1850" on="1"/>
        <pt x="748" y="1850" on="0"/>
        <pt x="843" y="1798" on="0"/>
        <pt x="897" y="1702" on="0"/>
        <pt x="897" y="1650" on="1"/>
        <pt x="897" y="1598" on="0"/>
        <pt x="845" y="1503" on="0"/>
        <pt x="749" y="1450" on="0"/>
        <pt x="697" y="1450" on="1"/>
        <pt x="646" y="1450" on="0"/>
        <pt x="550" y="1503" on="0"/>
        <pt x="497" y="1598" on="0"/>
        <pt x="497" y="1650" on="1"/>
        <pt x="497" y="1702" on="0"/>
        <pt x="551" y="1798" on="0"/>
        <pt x="647" y="1850" on="0"/>
      </contour>
    </TTGlyph>
    <TTGlyph name="uni0E9C" xMin="168" yMin="0" xMax="1278" yMax="1400">
      <contour>
        <pt x="494" y="1130" on="1"/>
        <pt x="494" y="1194" on="0"/>
        <pt x="430" y="1194" on="1"/>
        <pt x="365" y="1194" on="0"/>
        <pt x="365" y="1130" on="1"/>
        <pt x="365" y="1067" on="0"/>
        <pt x="430" y="1067" on="1"/>
        <pt x="494" y="1067" on="0"/>
      </contour>
      <contour>
        <pt x="946" y="1067" on="1"/>
        <pt x="979" y="1067" on="0"/>
        <pt x="1020" y="1107" on="1"/>
        <pt x="1011" y="1194" on="0"/>
        <pt x="946" y="1194" on="1"/>
        <pt x="882" y="1194" on="0"/>
        <pt x="882" y="1130" on="1"/>
        <pt x="882" y="1067" on="0"/>
      </contour>
      <contour>
        <pt x="700" y="400" on="1"/>
        <pt x="757" y="110" on="0"/>
        <pt x="912" y="110" on="1"/>
        <pt x="968" y="110" on="0"/>
        <pt x="1020" y="232" on="0"/>
        <pt x="1020" y="380" on="1"/>
        <pt x="1020" y="971" on="1"/>
        <pt x="989" y="960" on="0"/>
        <pt x="946" y="960" on="1"/>
        <pt x="866" y="960" on="0"/>
        <pt x="826" y="1002" on="1"/>
        <pt x="786" y="1045" on="0"/>
        <pt x="786" y="1131" on="1"/>
        <pt x="786" y="1205" on="0"/>
        <pt x="876" y="1300" on="0"/>
        <pt x="956" y="1300" on="1"/>
        <pt x="1056" y="1300" on="0"/>
        <pt x="1119" y="1254" on="1"/>
        <pt x="1134" y="1243" on="0"/>
        <pt x="1146" y="1230" on="1"/>
        <pt x="1169" y="1266" on="0"/>
        <pt x="1169" y="1305" on="1"/>
        <pt x="1169" y="1373" on="0"/>
        <pt x="1140" y="1400" on="1"/>
        <pt x="1278" y="1400" on="0"/>
        <pt x="1278" y="1300" on="1"/>
        <pt x="1278" y="1203" on="0"/>
        <pt x="1200" y="1119" on="1"/>
        <pt x="1208" y="1082" on="0"/>
        <pt x="1208" y="1037" on="1"/>
        <pt x="1208" y="380" on="1"/>
        <pt x="1208" y="165" on="0"/>
        <pt x="1116" y="71" on="1"/>
        <pt x="1046" y="0" on="0"/>
        <pt x="912" y="0" on="1"/>
        <pt x="759" y="0" on="0"/>
        <pt x="688" y="117" on="1"/>
        <pt x="617" y="0" on="0"/>
        <pt x="464" y="0" on="1"/>
        <pt x="331" y="0" on="0"/>
        <pt x="261" y="70" on="1"/>
        <pt x="168" y="163" on="0"/>
        <pt x="168" y="380" on="1"/>
        <pt x="168" y="1037" on="1"/>
        <pt x="168" y="1190" on="0"/>
        <pt x="257" y="1254" on="1"/>
        <pt x="320" y="1300" on="0"/>
        <pt x="420" y="1300" on="1"/>
        <pt x="500" y="1300" on="0"/>
        <pt x="590" y="1205" on="0"/>
        <pt x="590" y="1131" on="1"/>
        <pt x="590" y="1045" on="0"/>
        <pt x="550" y="1002" on="1"/>
        <pt x="510" y="960" on="0"/>
        <pt x="430" y="960" on="1"/>
        <pt x="387" y="960" on="0"/>
        <pt x="356" y="971" on="1"/>
        <pt x="356" y="380" on="1"/>
        <pt x="356" y="227" on="0"/>
        <pt x="410" y="110" on="0"/>
        <pt x="464" y="110" on="1"/>
        <pt x="619" y="110" on="0"/>
        <pt x="676" y="400" on="1"/>
      </contour>
    </TTGlyph>
</ttFont>
